<svg xmlns="http://www.w3.org/2000/svg" height="200.0000" stroke-opacity="1" viewBox="0 0 200 200" font-size="1" width="200.0000" xmlns:xlink="http://www.w3.org/1999/xlink" stroke="rgb(0,0,0)" version="1.1"><defs></defs><g stroke-linejoin="miter" stroke-opacity="1.0" fill-opacity="0.0" stroke="rgb(0,0,0)" stroke-width="2.0" fill="rgb(0,0,0)" stroke-linecap="butt" stroke-miterlimit="10.0"><path d="M 19.6721,180.3279 l 0.0000,-173.3279 "/></g><g stroke-linejoin="miter" stroke-opacity="1.0" fill-opacity="1.0" stroke="rgb(0,0,0)" stroke-width="0.0" fill="rgb(0,0,0)" stroke-linecap="butt" stroke-miterlimit="10.0"></g><g stroke-linejoin="miter" stroke-opacity="1.0" fill-opacity="1.0" stroke="rgb(0,0,0)" stroke-width="0.0" fill="rgb(0,0,0)" stroke-linecap="butt" stroke-miterlimit="10.0"></g><g stroke-linejoin="miter" stroke-opacity="1.0" fill-opacity="1.0" stroke="rgb(0,0,0)" stroke-width="0.0" fill="rgb(0,0,0)" stroke-linecap="butt" stroke-miterlimit="10.0"><path d="M 19.6721,0.0000 l -2.5370,7.8080 l 2.5370,-1.3338 l 2.5370,1.3338 Z"/></g><g stroke-linejoin="miter" stroke-opacity="1.0" fill-opacity="1.0" stroke="rgb(0,0,0)" stroke-width="0.0" fill="rgb(0,0,0)" stroke-linecap="butt" stroke-miterlimit="10.0"><path d="M 19.6721,6.4743 l -0.0000,0.5257 l -1.0000,-0.0000 l 1.0000,-0.5257 l -0.0000,0.5257 l 1.0000,0.0000 Z"/></g><g stroke-linejoin="miter" stroke-opacity="1.0" fill-opacity="0.0" stroke="rgb(0,0,0)" stroke-width="2.0" fill="rgb(0,0,0)" stroke-linecap="butt" stroke-miterlimit="10.0"><path d="M 19.6721,180.3279 h 173.3279 "/></g><g stroke-linejoin="miter" stroke-opacity="1.0" fill-opacity="1.0" stroke="rgb(0,0,0)" stroke-width="0.0" fill="rgb(0,0,0)" stroke-linecap="butt" stroke-miterlimit="10.0"></g><g stroke-linejoin="miter" stroke-opacity="1.0" fill-opacity="1.0" stroke="rgb(0,0,0)" stroke-width="0.0" fill="rgb(0,0,0)" stroke-linecap="butt" stroke-miterlimit="10.0"></g><g stroke-linejoin="miter" stroke-opacity="1.0" fill-opacity="1.0" stroke="rgb(0,0,0)" stroke-width="0.0" fill="rgb(0,0,0)" stroke-linecap="butt" stroke-miterlimit="10.0"><path d="M 200.0000,180.3279 l -7.8080,-2.5370 l 1.3338,2.5370 l -1.3338,2.5370 Z"/></g><g stroke-linejoin="miter" stroke-opacity="1.0" fill-opacity="1.0" stroke="rgb(0,0,0)" stroke-width="0.0" fill="rgb(0,0,0)" stroke-linecap="butt" stroke-miterlimit="10.0"><path d="M 193.5257,180.3279 h -0.5257 v -1.0000 l 0.5257,1.0000 h -0.5257 v 1.0000 Z"/></g><g stroke-linejoin="miter" stroke-opacity="1.0" fill-opacity="0.0" stroke="rgb(0,0,0)" stroke-width="2.0" fill="rgb(0,0,0)" stroke-linecap="butt" stroke-miterlimit="10.0"><path d="M 17.2131,16.3934 l 4.9180,0.0000 "/></g><g stroke-linejoin="miter" stroke-opacity="1.0" fill-opacity="0.0" stroke="rgb(0,0,0)" stroke-width="2.0" fill="rgb(0,0,0)" stroke-linecap="butt" stroke-miterlimit="10.0"><path d="M 17.2131,49.1803 l 4.9180,0.0000 "/></g><g stroke-linejoin="miter" stroke-opacity="1.0" fill-opacity="0.0" stroke="rgb(0,0,0)" stroke-width="2.0" fill="rgb(0,0,0)" stroke-linecap="butt" stroke-miterlimit="10.0"><path d="M 17.2131,81.9672 l 4.9180,0.0000 "/></g><g stroke-linejoin="miter" stroke-opacity="1.0" fill-opacity="0.0" stroke="rgb(0,0,0)" stroke-width="2.0" fill="rgb(0,0,0)" stroke-linecap="butt" stroke-miterlimit="10.0"><path d="M 17.2131,114.7541 l 4.9180,0.0000 "/></g><g stroke-linejoin="miter" stroke-opacity="1.0" fill-opacity="0.0" stroke="rgb(0,0,0)" stroke-width="2.0" fill="rgb(0,0,0)" stroke-linecap="butt" stroke-miterlimit="10.0"><path d="M 17.2131,147.5410 l 4.9180,0.0000 "/></g><g stroke-linejoin="miter" stroke-opacity="1.0" fill-opacity="0.0" stroke="rgb(0,0,0)" stroke-width="2.0" fill="rgb(0,0,0)" stroke-linecap="butt" stroke-miterlimit="10.0"><path d="M 183.6066,177.8689 v 4.9180 "/></g><g stroke-linejoin="miter" stroke-opacity="1.0" fill-opacity="0.0" stroke="rgb(0,0,0)" stroke-width="2.0" fill="rgb(0,0,0)" stroke-linecap="butt" stroke-miterlimit="10.0"><path d="M 150.8197,177.8689 v 4.9180 "/></g><g stroke-linejoin="miter" stroke-opacity="1.0" fill-opacity="0.0" stroke="rgb(0,0,0)" stroke-width="2.0" fill="rgb(0,0,0)" stroke-linecap="butt" stroke-miterlimit="10.0"><path d="M 118.0328,177.8689 v 4.9180 "/></g><g stroke-linejoin="miter" stroke-opacity="1.0" fill-opacity="0.0" stroke="rgb(0,0,0)" stroke-width="2.0" fill="rgb(0,0,0)" stroke-linecap="butt" stroke-miterlimit="10.0"><path d="M 85.2459,177.8689 v 4.9180 "/></g><g stroke-linejoin="miter" stroke-opacity="1.0" fill-opacity="0.0" stroke="rgb(0,0,0)" stroke-width="2.0" fill="rgb(0,0,0)" stroke-linecap="butt" stroke-miterlimit="10.0"><path d="M 52.4590,177.8689 v 4.9180 "/></g><g stroke-linejoin="miter" stroke-opacity="1.0" fill-opacity="0.0" stroke="rgb(255,0,0)" stroke-width="1.0" fill="rgb(0,0,0)" stroke-linecap="butt" stroke-miterlimit="10.0"><path d="M 19.6721,180.3279 c 1.0929,0.0007 2.1858,0.0015 3.2787 -0.0039c 1.0929,-0.0054 2.1858,-0.0169 3.2787 -0.0538c 1.0929,-0.0369 2.1858,-0.0990 3.2787 -0.2106c 1.0929,-0.1116 2.1858,-0.2726 3.2787 -0.5088c 1.0929,-0.2361 2.1858,-0.5473 3.2787 -0.9573c 1.0929,-0.4100 2.1858,-0.9187 3.2787 -1.5454c 1.0929,-0.6267 2.1858,-1.3715 3.2787 -2.2474c 1.0929,-0.8759 2.1858,-1.8830 3.2787 -3.0272c 1.0929,-1.1442 2.1858,-2.4256 3.2787 -3.8426c 1.0929,-1.4170 2.1858,-2.9695 3.2787 -4.6486c 1.0929,-1.6791 2.1858,-3.4846 3.2787 -5.4007c 1.0929,-1.9161 2.1858,-3.9427 3.2787 -6.0578c 1.0929,-2.1151 2.1858,-4.3188 3.2787 -6.5842c 1.0929,-2.2654 2.1858,-4.5927 3.2787 -6.9516c 1.0929,-2.3590 2.1858,-4.7496 3.2787 -7.1403c 1.0929,-2.3907 2.1858,-4.7814 3.2787 -7.1403c 1.0929,-2.3590 2.1858,-4.6862 3.2787 -6.9516c 1.0929,-2.2654 2.1858,-4.4691 3.2787 -6.5842c 1.0929,-2.1151 2.1858,-4.1417 3.2787 -6.0578c 1.0929,-1.9161 2.1858,-3.7217 3.2787 -5.4007c 1.0929,-1.6791 2.1858,-3.2316 3.2787 -4.6486c 1.0929,-1.4170 2.1858,-2.6984 3.2787 -3.8426c 1.0929,-1.1442 2.1857,-2.1513 3.2787 -3.0272c 1.0929,-0.8759 2.1860,-1.6207 3.2787 -2.2474c 1.0927,-0.6267 2.1851,-1.1354 3.2787 -1.5454c 1.0936,-0.4100 2.1884,-0.7212 3.2787 -0.9573c 1.0903,-0.2361 2.1760,-0.3972 3.2787 -0.5088c 1.1027,-0.1116 2.2222,-0.1737 3.2787 -0.2106c 1.0565,-0.0369 2.0499,-0.0485 3.2787 -0.0538c 1.2288,-0.0053 2.6930,-0.0043 3.2787 -0.0039c 0.5857,0.0004 0.2928,0.0002 0.0000 0.0000"/></g><g stroke-linejoin="miter" stroke-opacity="1.0" fill-opacity="1.0" stroke="rgb(0,0,0)" stroke-width="0.0" fill="rgb(255,0,0)" stroke-linecap="butt" stroke-miterlimit="10.0"><path d="M 22.9508,180.3279 c 0.0000,-1.8108 -1.4679,-3.2787 -3.2787 -3.2787c -1.8108,-0.0000 -3.2787,1.4679 -3.2787 3.2787c -0.0000,1.8108 1.4679,3.2787 3.2787 3.2787c 1.8108,0.0000 3.2787,-1.4679 3.2787 -3.2787Z"/></g><g stroke-linejoin="miter" stroke-opacity="1.0" fill-opacity="1.0" stroke="rgb(0,0,0)" stroke-width="0.0" fill="rgb(255,0,0)" stroke-linecap="butt" stroke-miterlimit="10.0"><path d="M 121.3115,81.9672 c 0.0000,-1.8108 -1.4679,-3.2787 -3.2787 -3.2787c -1.8108,-0.0000 -3.2787,1.4679 -3.2787 3.2787c -0.0000,1.8108 1.4679,3.2787 3.2787 3.2787c 1.8108,0.0000 3.2787,-1.4679 3.2787 -3.2787Z"/></g></svg>