<svg xmlns="http://www.w3.org/2000/svg" height="187.8788" stroke-opacity="1" viewBox="0 0 200 188" font-size="1" width="200.0000" xmlns:xlink="http://www.w3.org/1999/xlink" stroke="rgb(0,0,0)" version="1.1"><defs></defs><g stroke-linejoin="miter" stroke-opacity="1.0" fill-opacity="0.0" stroke="rgb(0,0,0)" stroke-width="2.0" fill="rgb(0,0,0)" stroke-linecap="butt" stroke-miterlimit="10.0"><path d="M 18.1818,169.6970 l 0.0000,-159.8821 "/></g><g stroke-linejoin="miter" stroke-opacity="1.0" fill-opacity="1.0" stroke="rgb(0,0,0)" stroke-width="0.0" fill="rgb(0,0,0)" stroke-linecap="butt" stroke-miterlimit="10.0"></g><g stroke-linejoin="miter" stroke-opacity="1.0" fill-opacity="1.0" stroke="rgb(0,0,0)" stroke-width="0.0" fill="rgb(0,0,0)" stroke-linecap="butt" stroke-miterlimit="10.0"></g><g stroke-linejoin="miter" stroke-opacity="1.0" fill-opacity="1.0" stroke="rgb(0,0,0)" stroke-width="0.0" fill="rgb(0,0,0)" stroke-linecap="butt" stroke-miterlimit="10.0"><path d="M 18.1818,3.0303 l -2.4526,7.5482 l 2.4526,-1.2894 l 2.4526,1.2894 Z"/></g><g stroke-linejoin="miter" stroke-opacity="1.0" fill-opacity="1.0" stroke="rgb(0,0,0)" stroke-width="0.0" fill="rgb(0,0,0)" stroke-linecap="butt" stroke-miterlimit="10.0"><path d="M 18.1818,9.2891 l -0.0000,0.5257 l -1.0000,-0.0000 l 1.0000,-0.5257 l -0.0000,0.5257 l 1.0000,0.0000 Z"/></g><g stroke-linejoin="miter" stroke-opacity="1.0" fill-opacity="0.0" stroke="rgb(0,0,0)" stroke-width="2.0" fill="rgb(0,0,0)" stroke-linecap="butt" stroke-miterlimit="10.0"><path d="M 18.1818,169.6970 h 159.8821 "/></g><g stroke-linejoin="miter" stroke-opacity="1.0" fill-opacity="1.0" stroke="rgb(0,0,0)" stroke-width="0.0" fill="rgb(0,0,0)" stroke-linecap="butt" stroke-miterlimit="10.0"></g><g stroke-linejoin="miter" stroke-opacity="1.0" fill-opacity="1.0" stroke="rgb(0,0,0)" stroke-width="0.0" fill="rgb(0,0,0)" stroke-linecap="butt" stroke-miterlimit="10.0"></g><g stroke-linejoin="miter" stroke-opacity="1.0" fill-opacity="1.0" stroke="rgb(0,0,0)" stroke-width="0.0" fill="rgb(0,0,0)" stroke-linecap="butt" stroke-miterlimit="10.0"><path d="M 184.8485,169.6970 l -7.5482,-2.4526 l 1.2894,2.4526 l -1.2894,2.4526 Z"/></g><g stroke-linejoin="miter" stroke-opacity="1.0" fill-opacity="1.0" stroke="rgb(0,0,0)" stroke-width="0.0" fill="rgb(0,0,0)" stroke-linecap="butt" stroke-miterlimit="10.0"><path d="M 178.5897,169.6970 h -0.5257 v -1.0000 l 0.5257,1.0000 h -0.5257 v 1.0000 Z"/></g><g stroke-linejoin="miter" stroke-opacity="1.0" fill-opacity="0.0" stroke="rgb(0,0,0)" stroke-width="2.0" fill="rgb(0,0,0)" stroke-linecap="butt" stroke-miterlimit="10.0"><path d="M 15.9091,18.1818 l 4.5455,0.0000 "/></g><g stroke-linejoin="miter" stroke-opacity="1.0" fill-opacity="0.0" stroke="rgb(0,0,0)" stroke-width="2.0" fill="rgb(0,0,0)" stroke-linecap="butt" stroke-miterlimit="10.0"><path d="M 15.9091,48.4848 l 4.5455,0.0000 "/></g><g stroke-linejoin="miter" stroke-opacity="1.0" fill-opacity="0.0" stroke="rgb(0,0,0)" stroke-width="2.0" fill="rgb(0,0,0)" stroke-linecap="butt" stroke-miterlimit="10.0"><path d="M 15.9091,78.7879 l 4.5455,0.0000 "/></g><g stroke-linejoin="miter" stroke-opacity="1.0" fill-opacity="0.0" stroke="rgb(0,0,0)" stroke-width="2.0" fill="rgb(0,0,0)" stroke-linecap="butt" stroke-miterlimit="10.0"><path d="M 15.9091,109.0909 l 4.5455,0.0000 "/></g><g stroke-linejoin="miter" stroke-opacity="1.0" fill-opacity="0.0" stroke="rgb(0,0,0)" stroke-width="2.0" fill="rgb(0,0,0)" stroke-linecap="butt" stroke-miterlimit="10.0"><path d="M 15.9091,139.3939 l 4.5455,0.0000 "/></g><g stroke-linejoin="miter" stroke-opacity="1.0" fill-opacity="0.0" stroke="rgb(0,0,0)" stroke-width="2.0" fill="rgb(0,0,0)" stroke-linecap="butt" stroke-miterlimit="10.0"><path d="M 169.6970,167.4242 v 4.5455 "/></g><g stroke-linejoin="miter" stroke-opacity="1.0" fill-opacity="0.0" stroke="rgb(0,0,0)" stroke-width="2.0" fill="rgb(0,0,0)" stroke-linecap="butt" stroke-miterlimit="10.0"><path d="M 139.3939,167.4242 v 4.5455 "/></g><g stroke-linejoin="miter" stroke-opacity="1.0" fill-opacity="0.0" stroke="rgb(0,0,0)" stroke-width="2.0" fill="rgb(0,0,0)" stroke-linecap="butt" stroke-miterlimit="10.0"><path d="M 109.0909,167.4242 v 4.5455 "/></g><g stroke-linejoin="miter" stroke-opacity="1.0" fill-opacity="0.0" stroke="rgb(0,0,0)" stroke-width="2.0" fill="rgb(0,0,0)" stroke-linecap="butt" stroke-miterlimit="10.0"><path d="M 78.7879,167.4242 v 4.5455 "/></g><g stroke-linejoin="miter" stroke-opacity="1.0" fill-opacity="0.0" stroke="rgb(0,0,0)" stroke-width="2.0" fill="rgb(0,0,0)" stroke-linecap="butt" stroke-miterlimit="10.0"><path d="M 48.4848,167.4242 v 4.5455 "/></g><g stroke-linejoin="miter" stroke-opacity="1.0" fill-opacity="0.0" stroke="rgb(255,0,0)" stroke-width="1.0" fill="rgb(0,0,0)" stroke-linecap="butt" stroke-miterlimit="10.0"><path d="M 78.7879,78.7879 c 2.5253,-0.0000 5.0505,-0.0000 7.5758 -0.0000c 2.5253,-0.0000 5.0505,-0.0000 7.5758 -0.0000c 2.5253,-0.0000 5.0505,-0.0000 7.5758 -0.0000c 2.5253,-0.0000 5.0505,-0.0000 7.5758 -0.0000c 2.5253,-0.0000 5.0505,-0.0000 7.5758 -0.0000c 2.5253,-0.0000 5.0505,-0.0000 7.5758 -0.0000c 2.5253,-0.0000 5.0505,-0.0000 7.5758 -0.0000c 2.5253,-0.0000 5.0505,-0.0000 7.5758 -0.0000c 2.5253,-0.0000 5.0505,-0.0000 7.5758 -0.0000c 2.5253,-0.0000 5.0505,-0.0000 7.5758 -0.0000c 2.5253,-0.0000 5.0505,-0.0000 7.5758 -0.0000c 2.5253,-0.0000 5.0505,-0.0000 7.5758 -0.0000c 2.5253,-0.0000 5.0505,-0.0000 7.5758 -0.0000c 2.5253,-0.0000 5.0505,-0.0000 7.5758 -0.0000"/></g><g stroke-linejoin="miter" stroke-opacity="1.0" fill-opacity="1.0" stroke="rgb(0,0,0)" stroke-width="0.0" fill="rgb(255,0,0)" stroke-linecap="butt" stroke-miterlimit="10.0"><path d="M 81.8182,18.1818 c 0.0000,-1.6736 -1.3567,-3.0303 -3.0303 -3.0303c -1.6736,-0.0000 -3.0303,1.3567 -3.0303 3.0303c -0.0000,1.6736 1.3567,3.0303 3.0303 3.0303c 1.6736,0.0000 3.0303,-1.3567 3.0303 -3.0303Z"/></g><g stroke-linejoin="miter" stroke-opacity="1.0" fill-opacity="1.0" stroke="rgb(255,0,0)" stroke-width="1.0" fill="rgb(255,255,255)" stroke-linecap="butt" stroke-miterlimit="10.0"><path d="M 81.8182,78.7879 c 0.0000,-1.6736 -1.3567,-3.0303 -3.0303 -3.0303c -1.6736,-0.0000 -3.0303,1.3567 -3.0303 3.0303c -0.0000,1.6736 1.3567,3.0303 3.0303 3.0303c 1.6736,0.0000 3.0303,-1.3567 3.0303 -3.0303Z"/></g><g stroke-linejoin="miter" stroke-opacity="1.0" fill-opacity="0.0" stroke="rgb(255,0,0)" stroke-width="1.0" fill="rgb(0,0,0)" stroke-linecap="butt" stroke-miterlimit="10.0"><path d="M 18.1818,169.6970 c 2.5253,-2.5253 5.0505,-5.0505 7.5758 -7.5758c 2.5253,-2.5252 5.0505,-5.0504 7.5758 -7.5758c 2.5253,-2.5253 5.0505,-5.0507 7.5758 -7.5758c 2.5253,-2.5250 5.0505,-5.0496 7.5758 -7.5758c 2.5253,-2.5262 5.0505,-5.0539 7.5758 -7.5758c 2.5253,-2.5219 5.0505,-5.0379 7.5758 -7.5758c 2.5253,-2.5378 5.0505,-5.0974 7.5758 -7.5758c 2.5253,-2.4784 5.0505,-4.8756 7.5758 -7.2727"/></g><g stroke-linejoin="miter" stroke-opacity="1.0" fill-opacity="1.0" stroke="rgb(255,0,0)" stroke-width="1.0" fill="rgb(255,255,255)" stroke-linecap="butt" stroke-miterlimit="10.0"><path d="M 81.8182,109.3939 c 0.0000,-1.6736 -1.3567,-3.0303 -3.0303 -3.0303c -1.6736,-0.0000 -3.0303,1.3567 -3.0303 3.0303c -0.0000,1.6736 1.3567,3.0303 3.0303 3.0303c 1.6736,0.0000 3.0303,-1.3567 3.0303 -3.0303Z"/></g><g stroke-linejoin="miter" stroke-opacity="1.0" fill-opacity="1.0" stroke="rgb(0,0,0)" stroke-width="0.0" fill="rgb(255,0,0)" stroke-linecap="butt" stroke-miterlimit="10.0"><path d="M 21.2121,169.6970 c 0.0000,-1.6736 -1.3567,-3.0303 -3.0303 -3.0303c -1.6736,-0.0000 -3.0303,1.3567 -3.0303 3.0303c -0.0000,1.6736 1.3567,3.0303 3.0303 3.0303c 1.6736,0.0000 3.0303,-1.3567 3.0303 -3.0303Z"/></g></svg>