<svg xmlns="http://www.w3.org/2000/svg" height="184.1292" stroke-opacity="1" viewBox="0 0 200 184" font-size="1" width="200.0000" xmlns:xlink="http://www.w3.org/1999/xlink" stroke="rgb(0,0,0)" version="1.1"><defs></defs><g stroke-linejoin="miter" stroke-opacity="1.0" fill-opacity="0.0" stroke="rgb(0,0,0)" stroke-width="2.0" fill="rgb(0,0,0)" stroke-linecap="butt" stroke-miterlimit="10.0"><path d="M 18.1111,166.0181 l 0.0000,-159.3016 "/></g><g stroke-linejoin="miter" stroke-opacity="1.0" fill-opacity="1.0" stroke="rgb(0,0,0)" stroke-width="0.0" fill="rgb(0,0,0)" stroke-linecap="butt" stroke-miterlimit="10.0"></g><g stroke-linejoin="miter" stroke-opacity="1.0" fill-opacity="1.0" stroke="rgb(0,0,0)" stroke-width="0.0" fill="rgb(0,0,0)" stroke-linecap="butt" stroke-miterlimit="10.0"></g><g stroke-linejoin="miter" stroke-opacity="1.0" fill-opacity="1.0" stroke="rgb(0,0,0)" stroke-width="0.0" fill="rgb(0,0,0)" stroke-linecap="butt" stroke-miterlimit="10.0"><path d="M 18.1111,0.0000 l -2.4259,7.4662 l 2.4259,-1.2754 l 2.4259,1.2754 Z"/></g><g stroke-linejoin="miter" stroke-opacity="1.0" fill-opacity="1.0" stroke="rgb(0,0,0)" stroke-width="0.0" fill="rgb(0,0,0)" stroke-linecap="butt" stroke-miterlimit="10.0"><path d="M 18.1111,6.1908 l -0.0000,0.5257 l -1.0000,-0.0000 l 1.0000,-0.5257 l -0.0000,0.5257 l 1.0000,0.0000 Z"/></g><g stroke-linejoin="miter" stroke-opacity="1.0" fill-opacity="0.0" stroke="rgb(0,0,0)" stroke-width="2.0" fill="rgb(0,0,0)" stroke-linecap="butt" stroke-miterlimit="10.0"><path d="M 18.1111,166.0181 h 159.3016 "/></g><g stroke-linejoin="miter" stroke-opacity="1.0" fill-opacity="1.0" stroke="rgb(0,0,0)" stroke-width="0.0" fill="rgb(0,0,0)" stroke-linecap="butt" stroke-miterlimit="10.0"></g><g stroke-linejoin="miter" stroke-opacity="1.0" fill-opacity="1.0" stroke="rgb(0,0,0)" stroke-width="0.0" fill="rgb(0,0,0)" stroke-linecap="butt" stroke-miterlimit="10.0"></g><g stroke-linejoin="miter" stroke-opacity="1.0" fill-opacity="1.0" stroke="rgb(0,0,0)" stroke-width="0.0" fill="rgb(0,0,0)" stroke-linecap="butt" stroke-miterlimit="10.0"><path d="M 184.1292,166.0181 l -7.4662,-2.4259 l 1.2754,2.4259 l -1.2754,2.4259 Z"/></g><g stroke-linejoin="miter" stroke-opacity="1.0" fill-opacity="1.0" stroke="rgb(0,0,0)" stroke-width="0.0" fill="rgb(0,0,0)" stroke-linecap="butt" stroke-miterlimit="10.0"><path d="M 177.9384,166.0181 h -0.5257 v -1.0000 l 0.5257,1.0000 h -0.5257 v 1.0000 Z"/></g><g stroke-linejoin="miter" stroke-opacity="1.0" fill-opacity="0.0" stroke="rgb(0,0,0)" stroke-width="2.0" fill="rgb(0,0,0)" stroke-linecap="butt" stroke-miterlimit="10.0"><path d="M 15.8472,15.0926 l 4.5278,0.0000 "/></g><g stroke-linejoin="miter" stroke-opacity="1.0" fill-opacity="0.0" stroke="rgb(0,0,0)" stroke-width="2.0" fill="rgb(0,0,0)" stroke-linecap="butt" stroke-miterlimit="10.0"><path d="M 15.8472,45.2777 l 4.5278,0.0000 "/></g><g stroke-linejoin="miter" stroke-opacity="1.0" fill-opacity="0.0" stroke="rgb(0,0,0)" stroke-width="2.0" fill="rgb(0,0,0)" stroke-linecap="butt" stroke-miterlimit="10.0"><path d="M 15.8472,75.4628 l 4.5278,0.0000 "/></g><g stroke-linejoin="miter" stroke-opacity="1.0" fill-opacity="0.0" stroke="rgb(0,0,0)" stroke-width="2.0" fill="rgb(0,0,0)" stroke-linecap="butt" stroke-miterlimit="10.0"><path d="M 15.8472,105.6479 l 4.5278,0.0000 "/></g><g stroke-linejoin="miter" stroke-opacity="1.0" fill-opacity="0.0" stroke="rgb(0,0,0)" stroke-width="2.0" fill="rgb(0,0,0)" stroke-linecap="butt" stroke-miterlimit="10.0"><path d="M 15.8472,135.8330 l 4.5278,0.0000 "/></g><g stroke-linejoin="miter" stroke-opacity="1.0" fill-opacity="0.0" stroke="rgb(0,0,0)" stroke-width="2.0" fill="rgb(0,0,0)" stroke-linecap="butt" stroke-miterlimit="10.0"><path d="M 169.0366,163.7542 v 4.5278 "/></g><g stroke-linejoin="miter" stroke-opacity="1.0" fill-opacity="0.0" stroke="rgb(0,0,0)" stroke-width="2.0" fill="rgb(0,0,0)" stroke-linecap="butt" stroke-miterlimit="10.0"><path d="M 138.8515,163.7542 v 4.5278 "/></g><g stroke-linejoin="miter" stroke-opacity="1.0" fill-opacity="0.0" stroke="rgb(0,0,0)" stroke-width="2.0" fill="rgb(0,0,0)" stroke-linecap="butt" stroke-miterlimit="10.0"><path d="M 108.6664,163.7542 v 4.5278 "/></g><g stroke-linejoin="miter" stroke-opacity="1.0" fill-opacity="0.0" stroke="rgb(0,0,0)" stroke-width="2.0" fill="rgb(0,0,0)" stroke-linecap="butt" stroke-miterlimit="10.0"><path d="M 78.4813,163.7542 v 4.5278 "/></g><g stroke-linejoin="miter" stroke-opacity="1.0" fill-opacity="0.0" stroke="rgb(0,0,0)" stroke-width="2.0" fill="rgb(0,0,0)" stroke-linecap="butt" stroke-miterlimit="10.0"><path d="M 48.2962,163.7542 v 4.5278 "/></g><g stroke-linejoin="miter" stroke-opacity="1.0" fill-opacity="0.0" stroke="rgb(255,0,0)" stroke-width="1.0" fill="rgb(0,0,0)" stroke-linecap="butt" stroke-miterlimit="10.0"><path d="M 78.4813,75.4628 c 2.5154,-0.0000 5.0309,-0.0000 7.5463 -0.0000c 2.5154,-0.0000 5.0309,-0.0000 7.5463 -0.0000c 2.5154,-0.0000 5.0309,-0.0000 7.5463 -0.0000c 2.5154,-0.0000 5.0309,-0.0000 7.5463 -0.0000c 2.5154,-0.0000 5.0308,-0.0000 7.5463 -0.0000c 2.5154,-0.0000 5.0309,-0.0000 7.5463 -0.0000c 2.5154,-0.0000 5.0307,-0.0000 7.5463 -0.0000c 2.5155,-0.0000 5.0313,-0.0000 7.5463 -0.0000c 2.5150,-0.0000 5.0292,-0.0000 7.5463 -0.0000c 2.5170,-0.0000 5.0369,-0.0000 7.5463 -0.0000c 2.5094,-0.0000 5.0084,-0.0000 7.5463 -0.0000c 2.5379,-0.0000 5.1147,-0.0000 7.5463 -0.0000c 2.4316,-0.0000 4.7180,-0.0000 7.5463 -0.0000c 2.8282,-0.0000 6.1983,-0.0000 7.5463 -0.0000c 1.3480,-0.0000 0.6740,-0.0000 0.0000 -0.0000"/></g><g stroke-linejoin="miter" stroke-opacity="1.0" fill-opacity="1.0" stroke="rgb(0,0,0)" stroke-width="0.0" fill="rgb(255,0,0)" stroke-linecap="butt" stroke-miterlimit="10.0"><path d="M 81.4998,75.4628 c 0.0000,-1.6671 -1.3514,-3.0185 -3.0185 -3.0185c -1.6671,-0.0000 -3.0185,1.3514 -3.0185 3.0185c -0.0000,1.6671 1.3514,3.0185 3.0185 3.0185c 1.6671,0.0000 3.0185,-1.3514 3.0185 -3.0185Z"/></g><g stroke-linejoin="miter" stroke-opacity="1.0" fill-opacity="0.0" stroke="rgb(255,0,0)" stroke-width="1.0" fill="rgb(0,0,0)" stroke-linecap="butt" stroke-miterlimit="10.0"><path d="M 18.1111,166.0181 c 2.5154,-2.5154 5.0309,-5.0309 7.5463 -7.5463c 2.5154,-2.5154 5.0309,-5.0308 7.5463 -7.5463c 2.5154,-2.5155 5.0309,-5.0311 7.5463 -7.5463c 2.5154,-2.5152 5.0309,-5.0300 7.5463 -7.5463c 2.5154,-2.5163 5.0309,-5.0342 7.5463 -7.5463c 2.5154,-2.5121 5.0309,-5.0183 7.5463 -7.5463c 2.5154,-2.5279 5.0309,-5.0775 7.5463 -7.5463c 2.5154,-2.4687 5.0309,-4.8566 7.5463 -7.2444"/></g><g stroke-linejoin="miter" stroke-opacity="1.0" fill-opacity="1.0" stroke="rgb(255,0,0)" stroke-width="1.0" fill="rgb(255,255,255)" stroke-linecap="butt" stroke-miterlimit="10.0"><path d="M 81.4998,105.9497 c 0.0000,-1.6671 -1.3514,-3.0185 -3.0185 -3.0185c -1.6671,-0.0000 -3.0185,1.3514 -3.0185 3.0185c -0.0000,1.6671 1.3514,3.0185 3.0185 3.0185c 1.6671,0.0000 3.0185,-1.3514 3.0185 -3.0185Z"/></g><g stroke-linejoin="miter" stroke-opacity="1.0" fill-opacity="1.0" stroke="rgb(0,0,0)" stroke-width="0.0" fill="rgb(255,0,0)" stroke-linecap="butt" stroke-miterlimit="10.0"><path d="M 21.1296,166.0181 c 0.0000,-1.6671 -1.3514,-3.0185 -3.0185 -3.0185c -1.6671,-0.0000 -3.0185,1.3514 -3.0185 3.0185c -0.0000,1.6671 1.3514,3.0185 3.0185 3.0185c 1.6671,0.0000 3.0185,-1.3514 3.0185 -3.0185Z"/></g></svg>