<svg xmlns="http://www.w3.org/2000/svg" height="183.0298" stroke-opacity="1" viewBox="0 0 450 183" font-size="1" width="450.0000" xmlns:xlink="http://www.w3.org/1999/xlink" stroke="rgb(0,0,0)" version="1.1"><defs></defs><g stroke-linejoin="miter" stroke-opacity="1.0" fill-opacity="0.0" stroke="rgb(0,0,0)" stroke-width="2.0" fill="rgb(0,0,0)" stroke-linecap="butt" stroke-miterlimit="10.0"><path d="M 292.8477,143.8091 l 0.0000,-133.7645 "/></g><g stroke-linejoin="miter" stroke-opacity="1.0" fill-opacity="1.0" stroke="rgb(0,0,0)" stroke-width="0.0" fill="rgb(0,0,0)" stroke-linecap="butt" stroke-miterlimit="10.0"></g><g stroke-linejoin="miter" stroke-opacity="1.0" fill-opacity="1.0" stroke="rgb(0,0,0)" stroke-width="0.0" fill="rgb(0,0,0)" stroke-linecap="butt" stroke-miterlimit="10.0"></g><g stroke-linejoin="miter" stroke-opacity="1.0" fill-opacity="1.0" stroke="rgb(0,0,0)" stroke-width="0.0" fill="rgb(0,0,0)" stroke-linecap="butt" stroke-miterlimit="10.0"><path d="M 292.8477,-0.0000 l -3.7301,11.4799 l 3.7301,-1.9610 l 3.7301,1.9610 Z"/></g><g stroke-linejoin="miter" stroke-opacity="1.0" fill-opacity="1.0" stroke="rgb(0,0,0)" stroke-width="0.0" fill="rgb(0,0,0)" stroke-linecap="butt" stroke-miterlimit="10.0"><path d="M 292.8477,9.5189 l -0.0000,0.5257 l -1.0000,-0.0000 l 1.0000,-0.5257 l -0.0000,0.5257 l 1.0000,0.0000 Z"/></g><g stroke-linejoin="miter" stroke-opacity="1.0" fill-opacity="0.0" stroke="rgb(0,0,0)" stroke-width="2.0" fill="rgb(0,0,0)" stroke-linecap="butt" stroke-miterlimit="10.0"><path d="M 292.8477,143.8091 h 133.7645 "/></g><g stroke-linejoin="miter" stroke-opacity="1.0" fill-opacity="1.0" stroke="rgb(0,0,0)" stroke-width="0.0" fill="rgb(0,0,0)" stroke-linecap="butt" stroke-miterlimit="10.0"></g><g stroke-linejoin="miter" stroke-opacity="1.0" fill-opacity="1.0" stroke="rgb(0,0,0)" stroke-width="0.0" fill="rgb(0,0,0)" stroke-linecap="butt" stroke-miterlimit="10.0"></g><g stroke-linejoin="miter" stroke-opacity="1.0" fill-opacity="1.0" stroke="rgb(0,0,0)" stroke-width="0.0" fill="rgb(0,0,0)" stroke-linecap="butt" stroke-miterlimit="10.0"><path d="M 436.6568,143.8091 l -11.4799,-3.7301 l 1.9610,3.7301 l -1.9610,3.7301 Z"/></g><g stroke-linejoin="miter" stroke-opacity="1.0" fill-opacity="1.0" stroke="rgb(0,0,0)" stroke-width="0.0" fill="rgb(0,0,0)" stroke-linecap="butt" stroke-miterlimit="10.0"><path d="M 427.1379,143.8091 h -0.5257 v -1.0000 l 0.5257,1.0000 h -0.5257 v 1.0000 Z"/></g><g stroke-linejoin="miter" stroke-opacity="1.0" fill-opacity="0.0" stroke="rgb(0,0,0)" stroke-width="2.0" fill="rgb(0,0,0)" stroke-linecap="butt" stroke-miterlimit="10.0"><path d="M 290.8866,13.0736 l 3.9221,0.0000 "/></g><g stroke-linejoin="miter" stroke-opacity="1.0" fill-opacity="0.0" stroke="rgb(0,0,0)" stroke-width="2.0" fill="rgb(0,0,0)" stroke-linecap="butt" stroke-miterlimit="10.0"><path d="M 290.8866,39.2207 l 3.9221,0.0000 "/></g><g stroke-linejoin="miter" stroke-opacity="1.0" fill-opacity="0.0" stroke="rgb(0,0,0)" stroke-width="2.0" fill="rgb(0,0,0)" stroke-linecap="butt" stroke-miterlimit="10.0"><path d="M 290.8866,65.3678 l 3.9221,0.0000 "/></g><g stroke-linejoin="miter" stroke-opacity="1.0" fill-opacity="0.0" stroke="rgb(0,0,0)" stroke-width="2.0" fill="rgb(0,0,0)" stroke-linecap="butt" stroke-miterlimit="10.0"><path d="M 290.8866,91.5149 l 3.9221,0.0000 "/></g><g stroke-linejoin="miter" stroke-opacity="1.0" fill-opacity="0.0" stroke="rgb(0,0,0)" stroke-width="2.0" fill="rgb(0,0,0)" stroke-linecap="butt" stroke-miterlimit="10.0"><path d="M 290.8866,117.6620 l 3.9221,0.0000 "/></g><g stroke-linejoin="miter" stroke-opacity="1.0" fill-opacity="0.0" stroke="rgb(0,0,0)" stroke-width="2.0" fill="rgb(0,0,0)" stroke-linecap="butt" stroke-miterlimit="10.0"><path d="M 423.5832,141.8481 v 3.9221 "/></g><g stroke-linejoin="miter" stroke-opacity="1.0" fill-opacity="0.0" stroke="rgb(0,0,0)" stroke-width="2.0" fill="rgb(0,0,0)" stroke-linecap="butt" stroke-miterlimit="10.0"><path d="M 397.4361,141.8481 v 3.9221 "/></g><g stroke-linejoin="miter" stroke-opacity="1.0" fill-opacity="0.0" stroke="rgb(0,0,0)" stroke-width="2.0" fill="rgb(0,0,0)" stroke-linecap="butt" stroke-miterlimit="10.0"><path d="M 371.2890,141.8481 v 3.9221 "/></g><g stroke-linejoin="miter" stroke-opacity="1.0" fill-opacity="0.0" stroke="rgb(0,0,0)" stroke-width="2.0" fill="rgb(0,0,0)" stroke-linecap="butt" stroke-miterlimit="10.0"><path d="M 345.1419,141.8481 v 3.9221 "/></g><g stroke-linejoin="miter" stroke-opacity="1.0" fill-opacity="0.0" stroke="rgb(0,0,0)" stroke-width="2.0" fill="rgb(0,0,0)" stroke-linecap="butt" stroke-miterlimit="10.0"><path d="M 318.9948,141.8481 v 3.9221 "/></g><g stroke-linejoin="miter" stroke-opacity="1.0" fill-opacity="0.0" stroke="rgb(255,0,0)" stroke-width="1.0" fill="rgb(0,0,0)" stroke-linecap="butt" stroke-miterlimit="10.0"><path d="M 292.8477,125.3203 c 0.8716,-0.0000 1.7431,-0.0000 2.6147 -0.0000c 0.8716,-0.0000 1.7431,-0.0000 2.6147 -0.0000c 0.8716,-0.0000 1.7431,-0.0000 2.6147 -0.0000c 0.8716,-0.0000 1.7431,-0.0000 2.6147 -0.0000c 0.8716,-0.0000 1.7431,-0.0000 2.6147 -0.0000c 0.8716,-0.0000 1.7431,-0.0000 2.6147 -0.0000c 0.8716,-0.0000 1.7431,-0.0000 2.6147 -0.0000c 0.8716,-0.0000 1.7431,-0.0000 2.6147 -0.0000c 0.8716,-0.0000 1.7431,-0.0000 2.6147 -0.0000c 0.8716,-0.0000 1.7431,-0.0000 2.6147 -0.0000c 0.8716,-0.0000 1.7431,-0.0000 2.6147 -0.0000c 0.8716,-0.0000 1.7431,-0.0000 2.6147 -0.0000c 0.8716,-0.0000 1.7431,-0.0000 2.6147 -0.0000c 0.8716,-0.0000 1.7431,-0.0000 2.6147 -0.0000c 0.8716,-0.0000 1.7431,-0.0000 2.6147 -0.0000c 0.8716,-0.0000 1.7431,-0.0000 2.6147 -0.0000c 0.8716,-0.0000 1.7431,-0.0000 2.6147 -0.0000c 0.8716,-0.0000 1.7431,-0.0000 2.6147 -0.0000c 0.8716,-0.0000 1.7431,-0.0000 2.6147 -0.0000c 0.8716,-0.0000 1.7431,-0.0000 2.6147 -0.0000c 0.8716,-0.0000 1.7431,-0.0000 2.6147 -0.0000c 0.8716,-0.0000 1.7431,-0.0000 2.6147 -0.0000c 0.8716,-0.0000 1.7431,-0.0000 2.6147 -0.0000c 0.8716,-0.0000 1.7431,-0.0000 2.6147 -0.0000c 0.8716,-0.0000 1.7431,-0.0000 2.6147 -0.0000c 0.8716,-0.0000 1.7431,-0.0000 2.6147 -0.0000c 0.8716,-0.0000 1.7431,-0.0000 2.6147 -0.0000c 0.8716,-0.0000 1.7431,-0.0000 2.6147 -0.0000c 0.8716,-0.0000 1.7431,-0.0000 2.6147 -0.0000c 0.8716,-0.0000 1.7431,-0.0000 2.6147 -0.0000c 0.8716,-0.0000 1.7431,-0.0000 2.6147 -0.0000c 0.8716,-0.0000 1.7431,-0.0000 2.6147 -0.0000c 0.8716,-0.0000 1.7431,-0.0000 2.6147 -0.0000c 0.8716,-0.0000 1.7431,-0.0000 2.6147 -0.0000c 0.8716,-0.0000 1.7431,-0.0000 2.6147 -0.0000c 0.8716,-0.0000 1.7431,-0.0000 2.6147 -0.0000c 0.8716,-0.0000 1.7431,-0.0000 2.6147 -0.0000c 0.8716,-0.0000 1.7431,-0.0000 2.6147 -0.0000c 0.8716,-0.0000 1.7431,-0.0000 2.6147 -0.0000c 0.8716,-0.0000 1.7431,-0.0000 2.6147 -0.0000c 0.8716,-0.0000 1.7431,-0.0000 2.6147 -0.0000c 0.8716,-0.0000 1.7431,-0.0000 2.6147 -0.0000c 0.8716,-0.0000 1.7431,-0.0000 2.6147 -0.0000c 0.8716,-0.0000 1.7431,-0.0000 2.6147 -0.0000c 0.8716,-0.0000 1.7431,-0.0000 2.6147 -0.0000c 0.8716,-0.0000 1.7431,-0.0000 2.6147 -0.0000c 0.8716,-0.0000 1.7432,-0.0000 2.6147 -0.0000c 0.8716,-0.0000 1.7431,-0.0000 2.6147 -0.0000c 0.8716,-0.0000 1.7433,-0.0000 2.6147 -0.0000c 0.8714,-0.0000 1.7426,-0.0000 2.6147 -0.0000c 0.8721,-0.0000 1.7452,-0.0000 2.6147 -0.0000c 0.8695,-0.0000 1.7354,-0.0000 2.6147 -0.0000c 0.8794,-0.0000 1.7722,-0.0000 2.6147 -0.0000c 0.8425,-0.0000 1.6348,-0.0000 2.6147 -0.0000c 0.9800,-0.0000 2.1476,-0.0000 2.6147 -0.0000c 0.4671,-0.0000 0.2335,-0.0000 0.0000 -0.0000"/></g><g stroke-linejoin="miter" stroke-opacity="1.0" fill-opacity="1.0" stroke="rgb(0,0,0)" stroke-width="0.0" fill="rgb(255,0,0)" stroke-linecap="butt" stroke-miterlimit="10.0"><path d="M 295.4624,125.3203 c 0.0000,-1.4441 -1.1706,-2.6147 -2.6147 -2.6147c -1.4441,-0.0000 -2.6147,1.1706 -2.6147 2.6147c -0.0000,1.4441 1.1706,2.6147 2.6147 2.6147c 1.4441,0.0000 2.6147,-1.1706 2.6147 -2.6147Z"/></g><g stroke-linejoin="miter" stroke-opacity="1.0" fill-opacity="0.0" stroke="rgb(0,0,0)" stroke-width="1.1479610108605725" fill="rgb(0,0,0)" stroke-linecap="butt" stroke-miterlimit="10.0"><path d="M 198.7181,78.4413 h 42.2496 "/></g><g stroke-linejoin="miter" stroke-opacity="1.0" fill-opacity="1.0" stroke="rgb(0,0,0)" stroke-width="0.0" fill="rgb(0,0,0)" stroke-linecap="butt" stroke-miterlimit="10.0"></g><g stroke-linejoin="miter" stroke-opacity="1.0" fill-opacity="1.0" stroke="rgb(0,0,0)" stroke-width="0.0" fill="rgb(0,0,0)" stroke-linecap="butt" stroke-miterlimit="10.0"></g><g stroke-linejoin="miter" stroke-opacity="1.0" fill-opacity="1.0" stroke="rgb(0,0,0)" stroke-width="0.0" fill="rgb(0,0,0)" stroke-linecap="butt" stroke-miterlimit="10.0"><path d="M 251.0123,78.4413 l -11.7500,-3.8178 l 2.0071,3.8178 l -2.0071,3.8178 Z"/></g><g stroke-linejoin="miter" stroke-opacity="1.0" fill-opacity="1.0" stroke="rgb(0,0,0)" stroke-width="0.0" fill="rgb(0,0,0)" stroke-linecap="butt" stroke-miterlimit="10.0"><path d="M 241.2694,78.4413 h -0.3018 v -0.5740 l 0.3018,0.5740 h -0.3018 v 0.5740 Z"/></g><g stroke-linejoin="miter" stroke-opacity="1.0" fill-opacity="0.0" stroke="rgb(0,0,0)" stroke-width="2.0" fill="rgb(0,0,0)" stroke-linecap="butt" stroke-miterlimit="10.0"><path d="M 15.6883,143.8091 l 0.0000,-133.7645 "/></g><g stroke-linejoin="miter" stroke-opacity="1.0" fill-opacity="1.0" stroke="rgb(0,0,0)" stroke-width="0.0" fill="rgb(0,0,0)" stroke-linecap="butt" stroke-miterlimit="10.0"></g><g stroke-linejoin="miter" stroke-opacity="1.0" fill-opacity="1.0" stroke="rgb(0,0,0)" stroke-width="0.0" fill="rgb(0,0,0)" stroke-linecap="butt" stroke-miterlimit="10.0"></g><g stroke-linejoin="miter" stroke-opacity="1.0" fill-opacity="1.0" stroke="rgb(0,0,0)" stroke-width="0.0" fill="rgb(0,0,0)" stroke-linecap="butt" stroke-miterlimit="10.0"><path d="M 15.6883,-0.0000 l -3.7301,11.4799 l 3.7301,-1.9610 l 3.7301,1.9610 Z"/></g><g stroke-linejoin="miter" stroke-opacity="1.0" fill-opacity="1.0" stroke="rgb(0,0,0)" stroke-width="0.0" fill="rgb(0,0,0)" stroke-linecap="butt" stroke-miterlimit="10.0"><path d="M 15.6883,9.5189 l -0.0000,0.5257 l -1.0000,-0.0000 l 1.0000,-0.5257 l -0.0000,0.5257 l 1.0000,0.0000 Z"/></g><g stroke-linejoin="miter" stroke-opacity="1.0" fill-opacity="0.0" stroke="rgb(0,0,0)" stroke-width="2.0" fill="rgb(0,0,0)" stroke-linecap="butt" stroke-miterlimit="10.0"><path d="M 15.6883,143.8091 h 133.7645 "/></g><g stroke-linejoin="miter" stroke-opacity="1.0" fill-opacity="1.0" stroke="rgb(0,0,0)" stroke-width="0.0" fill="rgb(0,0,0)" stroke-linecap="butt" stroke-miterlimit="10.0"></g><g stroke-linejoin="miter" stroke-opacity="1.0" fill-opacity="1.0" stroke="rgb(0,0,0)" stroke-width="0.0" fill="rgb(0,0,0)" stroke-linecap="butt" stroke-miterlimit="10.0"></g><g stroke-linejoin="miter" stroke-opacity="1.0" fill-opacity="1.0" stroke="rgb(0,0,0)" stroke-width="0.0" fill="rgb(0,0,0)" stroke-linecap="butt" stroke-miterlimit="10.0"><path d="M 159.4974,143.8091 l -11.4799,-3.7301 l 1.9610,3.7301 l -1.9610,3.7301 Z"/></g><g stroke-linejoin="miter" stroke-opacity="1.0" fill-opacity="1.0" stroke="rgb(0,0,0)" stroke-width="0.0" fill="rgb(0,0,0)" stroke-linecap="butt" stroke-miterlimit="10.0"><path d="M 149.9785,143.8091 h -0.5257 v -1.0000 l 0.5257,1.0000 h -0.5257 v 1.0000 Z"/></g><g stroke-linejoin="miter" stroke-opacity="1.0" fill-opacity="0.0" stroke="rgb(0,0,0)" stroke-width="2.0" fill="rgb(0,0,0)" stroke-linecap="butt" stroke-miterlimit="10.0"><path d="M 13.7272,13.0736 l 3.9221,0.0000 "/></g><g stroke-linejoin="miter" stroke-opacity="1.0" fill-opacity="0.0" stroke="rgb(0,0,0)" stroke-width="2.0" fill="rgb(0,0,0)" stroke-linecap="butt" stroke-miterlimit="10.0"><path d="M 13.7272,39.2207 l 3.9221,0.0000 "/></g><g stroke-linejoin="miter" stroke-opacity="1.0" fill-opacity="0.0" stroke="rgb(0,0,0)" stroke-width="2.0" fill="rgb(0,0,0)" stroke-linecap="butt" stroke-miterlimit="10.0"><path d="M 13.7272,65.3678 l 3.9221,0.0000 "/></g><g stroke-linejoin="miter" stroke-opacity="1.0" fill-opacity="0.0" stroke="rgb(0,0,0)" stroke-width="2.0" fill="rgb(0,0,0)" stroke-linecap="butt" stroke-miterlimit="10.0"><path d="M 13.7272,91.5149 l 3.9221,0.0000 "/></g><g stroke-linejoin="miter" stroke-opacity="1.0" fill-opacity="0.0" stroke="rgb(0,0,0)" stroke-width="2.0" fill="rgb(0,0,0)" stroke-linecap="butt" stroke-miterlimit="10.0"><path d="M 13.7272,117.6620 l 3.9221,0.0000 "/></g><g stroke-linejoin="miter" stroke-opacity="1.0" fill-opacity="0.0" stroke="rgb(0,0,0)" stroke-width="2.0" fill="rgb(0,0,0)" stroke-linecap="butt" stroke-miterlimit="10.0"><path d="M 146.4238,141.8481 v 3.9221 "/></g><g stroke-linejoin="miter" stroke-opacity="1.0" fill-opacity="0.0" stroke="rgb(0,0,0)" stroke-width="2.0" fill="rgb(0,0,0)" stroke-linecap="butt" stroke-miterlimit="10.0"><path d="M 120.2767,141.8481 v 3.9221 "/></g><g stroke-linejoin="miter" stroke-opacity="1.0" fill-opacity="0.0" stroke="rgb(0,0,0)" stroke-width="2.0" fill="rgb(0,0,0)" stroke-linecap="butt" stroke-miterlimit="10.0"><path d="M 94.1296,141.8481 v 3.9221 "/></g><g stroke-linejoin="miter" stroke-opacity="1.0" fill-opacity="0.0" stroke="rgb(0,0,0)" stroke-width="2.0" fill="rgb(0,0,0)" stroke-linecap="butt" stroke-miterlimit="10.0"><path d="M 67.9825,141.8481 v 3.9221 "/></g><g stroke-linejoin="miter" stroke-opacity="1.0" fill-opacity="0.0" stroke="rgb(0,0,0)" stroke-width="2.0" fill="rgb(0,0,0)" stroke-linecap="butt" stroke-miterlimit="10.0"><path d="M 41.8354,141.8481 v 3.9221 "/></g><g stroke-linejoin="miter" stroke-opacity="1.0" fill-opacity="0.0" stroke="rgb(255,0,0)" stroke-width="1.0" fill="rgb(0,0,0)" stroke-linecap="butt" stroke-miterlimit="10.0"><path d="M 45.1038,125.3203 c 0.8716,4.5945 1.7431,9.1890 2.6147 14.3985c 0.8716,5.2094 1.7431,11.0338 2.6147 15.9609c 0.8716,4.9270 1.7431,8.9568 2.6147 11.4267c 0.8716,2.4699 1.7431,3.3801 2.6147 2.5280c 0.8716,-0.8522 1.7431,-3.4666 2.6147 -7.3364c 0.8716,-3.8698 1.7431,-8.9949 2.6147 -14.3985c 0.8716,-5.4036 1.7431,-11.0858 2.6147 -15.9609c 0.8716,-4.8750 1.7431,-8.9428 2.6147 -11.4267c 0.8716,-2.4839 1.7431,-3.3838 2.6147 -2.5280c 0.8716,0.8559 1.7431,3.4676 2.6147 7.3364c 0.8716,3.8688 1.7431,8.9946 2.6147 14.3985c 0.8716,5.4039 1.7431,11.0859 2.6147 15.9609c 0.8716,4.8749 1.7431,8.9428 2.6147 11.4267c 0.8716,2.4839 1.7431,3.3838 2.6147 2.5280c 0.8716,-0.8559 1.7431,-3.4676 2.6147 -7.3364c 0.8716,-3.8688 1.7431,-8.9946 2.6147 -14.3985c 0.8716,-5.4039 1.7431,-11.0859 2.6147 -15.9609c 0.8716,-4.8749 1.7431,-8.9428 2.6147 -11.4267c 0.8716,-2.4839 1.7431,-3.3838 2.6147 -2.5280c 0.8716,0.8559 1.7431,3.4676 2.6147 7.3364c 0.8716,3.8688 1.7431,8.9946 2.6147 14.3985c 0.8716,5.4039 1.7431,11.0859 2.6147 15.9609c 0.8716,4.8749 1.7431,8.9428 2.6147 11.4267c 0.8716,2.4839 1.7431,3.3838 2.6147 2.5280c 0.8716,-0.8559 1.7431,-3.4676 2.6147 -7.3364c 0.8716,-3.8688 1.7431,-8.9946 2.6147 -14.3985c 0.8716,-5.4039 1.7431,-11.0859 2.6147 -15.9609c 0.8716,-4.8749 1.7431,-8.9428 2.6147 -11.4267c 0.8716,-2.4839 1.7431,-3.3838 2.6147 -2.5280c 0.8716,0.8559 1.7431,3.4676 2.6147 7.3364c 0.8716,3.8688 1.7431,8.9946 2.6147 14.3985c 0.8716,5.4039 1.7431,11.0859 2.6147 15.9609c 0.8716,4.8749 1.7431,8.9428 2.6147 11.4267c 0.8716,2.4839 1.7431,3.3838 2.6147 2.5280c 0.8716,-0.8559 1.7431,-3.4676 2.6147 -7.3364c 0.8716,-3.8688 1.7431,-8.9946 2.6147 -14.3985c 0.8716,-5.4039 1.7432,-11.0858 2.6147 -15.9609c 0.8715,-4.8750 1.7430,-8.9431 2.6147 -11.4267c 0.8717,-2.4836 1.7437,-3.3827 2.6147 -2.5280c 0.8710,0.8548 1.7412,3.4634 2.6147 7.3364c 0.8735,3.8730 1.7504,9.0105 2.6147 14.3985c 0.8643,5.3880 1.7160,11.0265 2.6147 15.9609c 0.8987,4.9344 1.8443,9.1646 2.6147 11.4267c 0.7704,2.2621 1.3657,2.5560 1.9610 2.8499"/></g><g stroke-linejoin="miter" stroke-opacity="1.0" fill-opacity="1.0" stroke="rgb(0,0,0)" stroke-width="0.0" fill="rgb(255,0,0)" stroke-linecap="butt" stroke-miterlimit="10.0"><path d="M 47.7185,125.3203 c 0.0000,-1.4441 -1.1706,-2.6147 -2.6147 -2.6147c -1.4441,-0.0000 -2.6147,1.1706 -2.6147 2.6147c -0.0000,1.4441 1.1706,2.6147 2.6147 2.6147c 1.4441,0.0000 2.6147,-1.1706 2.6147 -2.6147Z"/></g><g stroke-linejoin="miter" stroke-opacity="1.0" fill-opacity="0.0" stroke="rgb(255,0,0)" stroke-width="1.0" fill="rgb(0,0,0)" stroke-linecap="butt" stroke-miterlimit="10.0"><path d="M 15.6883,117.6620 c 0.8716,1.0264 1.7431,2.0527 2.6147 4.9937c 0.8716,2.9409 1.7431,7.7964 2.6147 13.0736c 0.8716,5.2772 1.7431,10.9761 2.6147 16.1598c 0.8716,5.1837 1.7431,9.8522 2.6147 13.0736c 0.8716,3.2214 1.7433,4.9956 2.6147 4.9937c 0.8715,-0.0020 1.7427,-1.7802 2.6147 -4.9937c 0.8720,-3.2134 1.7447,-7.8621 2.6147 -13.0736c 0.8700,-5.2115 1.7373,-10.9857 2.6147 -16.1598c 0.8774,-5.1741 1.7649,-9.7481 2.6147 -13.0736c 0.8498,-3.3254 1.6619,-5.4024 2.6147 -4.9937c 0.9529,0.4087 2.0465,3.3030 2.6147 4.9937c 0.5682,1.6907 0.6109,2.1777 0.6537 2.6647"/></g><g stroke-linejoin="miter" stroke-opacity="1.0" fill-opacity="1.0" stroke="rgb(0,0,0)" stroke-width="0.0" fill="rgb(255,0,0)" stroke-linecap="butt" stroke-miterlimit="10.0"><path d="M 47.7185,125.3203 c 0.0000,-1.4441 -1.1706,-2.6147 -2.6147 -2.6147c -1.4441,-0.0000 -2.6147,1.1706 -2.6147 2.6147c -0.0000,1.4441 1.1706,2.6147 2.6147 2.6147c 1.4441,0.0000 2.6147,-1.1706 2.6147 -2.6147Z"/></g><g stroke-linejoin="miter" stroke-opacity="1.0" fill-opacity="1.0" stroke="rgb(0,0,0)" stroke-width="0.0" fill="rgb(255,0,0)" stroke-linecap="butt" stroke-miterlimit="10.0"><path d="M 18.3030,117.6620 c 0.0000,-1.4441 -1.1706,-2.6147 -2.6147 -2.6147c -1.4441,-0.0000 -2.6147,1.1706 -2.6147 2.6147c -0.0000,1.4441 1.1706,2.6147 2.6147 2.6147c 1.4441,0.0000 2.6147,-1.1706 2.6147 -2.6147Z"/></g></svg>