<svg xmlns="http://www.w3.org/2000/svg" height="154.8611" stroke-opacity="1" viewBox="0 0 450 155" font-size="1" width="450.0000" xmlns:xlink="http://www.w3.org/1999/xlink" stroke="rgb(0,0,0)" version="1.1"><defs></defs><g stroke-linejoin="miter" stroke-opacity="1.0" fill-opacity="0.0" stroke="rgb(0,0,0)" stroke-width="2.0" fill="rgb(0,0,0)" stroke-linecap="butt" stroke-miterlimit="10.0"><path d="M 297.2222,152.7778 l 0.0000,-143.5383 "/></g><g stroke-linejoin="miter" stroke-opacity="1.0" fill-opacity="1.0" stroke="rgb(0,0,0)" stroke-width="0.0" fill="rgb(0,0,0)" stroke-linecap="butt" stroke-miterlimit="10.0"></g><g stroke-linejoin="miter" stroke-opacity="1.0" fill-opacity="1.0" stroke="rgb(0,0,0)" stroke-width="0.0" fill="rgb(0,0,0)" stroke-linecap="butt" stroke-miterlimit="10.0"></g><g stroke-linejoin="miter" stroke-opacity="1.0" fill-opacity="1.0" stroke="rgb(0,0,0)" stroke-width="0.0" fill="rgb(0,0,0)" stroke-linecap="butt" stroke-miterlimit="10.0"><path d="M 297.2222,0.0000 l -3.4145,10.5088 l 3.4145,-1.7951 l 3.4145,1.7951 Z"/></g><g stroke-linejoin="miter" stroke-opacity="1.0" fill-opacity="1.0" stroke="rgb(0,0,0)" stroke-width="0.0" fill="rgb(0,0,0)" stroke-linecap="butt" stroke-miterlimit="10.0"><path d="M 297.2222,8.7137 l -0.0000,0.5257 l -1.0000,-0.0000 l 1.0000,-0.5257 l -0.0000,0.5257 l 1.0000,0.0000 Z"/></g><g stroke-linejoin="miter" stroke-opacity="1.0" fill-opacity="0.0" stroke="rgb(0,0,0)" stroke-width="2.0" fill="rgb(0,0,0)" stroke-linecap="butt" stroke-miterlimit="10.0"><path d="M 297.2222,152.7778 h 143.5383 "/></g><g stroke-linejoin="miter" stroke-opacity="1.0" fill-opacity="1.0" stroke="rgb(0,0,0)" stroke-width="0.0" fill="rgb(0,0,0)" stroke-linecap="butt" stroke-miterlimit="10.0"></g><g stroke-linejoin="miter" stroke-opacity="1.0" fill-opacity="1.0" stroke="rgb(0,0,0)" stroke-width="0.0" fill="rgb(0,0,0)" stroke-linecap="butt" stroke-miterlimit="10.0"></g><g stroke-linejoin="miter" stroke-opacity="1.0" fill-opacity="1.0" stroke="rgb(0,0,0)" stroke-width="0.0" fill="rgb(0,0,0)" stroke-linecap="butt" stroke-miterlimit="10.0"><path d="M 450.0000,152.7778 l -10.5088,-3.4145 l 1.7951,3.4145 l -1.7951,3.4145 Z"/></g><g stroke-linejoin="miter" stroke-opacity="1.0" fill-opacity="1.0" stroke="rgb(0,0,0)" stroke-width="0.0" fill="rgb(0,0,0)" stroke-linecap="butt" stroke-miterlimit="10.0"><path d="M 441.2863,152.7778 h -0.5257 v -1.0000 l 0.5257,1.0000 h -0.5257 v 1.0000 Z"/></g><g stroke-linejoin="miter" stroke-opacity="1.0" fill-opacity="0.0" stroke="rgb(0,0,0)" stroke-width="2.0" fill="rgb(0,0,0)" stroke-linecap="butt" stroke-miterlimit="10.0"><path d="M 295.1389,13.8889 l 4.1667,0.0000 "/></g><g stroke-linejoin="miter" stroke-opacity="1.0" fill-opacity="0.0" stroke="rgb(0,0,0)" stroke-width="2.0" fill="rgb(0,0,0)" stroke-linecap="butt" stroke-miterlimit="10.0"><path d="M 295.1389,41.6667 l 4.1667,0.0000 "/></g><g stroke-linejoin="miter" stroke-opacity="1.0" fill-opacity="0.0" stroke="rgb(0,0,0)" stroke-width="2.0" fill="rgb(0,0,0)" stroke-linecap="butt" stroke-miterlimit="10.0"><path d="M 295.1389,69.4444 l 4.1667,0.0000 "/></g><g stroke-linejoin="miter" stroke-opacity="1.0" fill-opacity="0.0" stroke="rgb(0,0,0)" stroke-width="2.0" fill="rgb(0,0,0)" stroke-linecap="butt" stroke-miterlimit="10.0"><path d="M 295.1389,97.2222 l 4.1667,0.0000 "/></g><g stroke-linejoin="miter" stroke-opacity="1.0" fill-opacity="0.0" stroke="rgb(0,0,0)" stroke-width="2.0" fill="rgb(0,0,0)" stroke-linecap="butt" stroke-miterlimit="10.0"><path d="M 295.1389,125.0000 l 4.1667,0.0000 "/></g><g stroke-linejoin="miter" stroke-opacity="1.0" fill-opacity="0.0" stroke="rgb(0,0,0)" stroke-width="2.0" fill="rgb(0,0,0)" stroke-linecap="butt" stroke-miterlimit="10.0"><path d="M 436.1111,150.6944 v 4.1667 "/></g><g stroke-linejoin="miter" stroke-opacity="1.0" fill-opacity="0.0" stroke="rgb(0,0,0)" stroke-width="2.0" fill="rgb(0,0,0)" stroke-linecap="butt" stroke-miterlimit="10.0"><path d="M 408.3333,150.6944 v 4.1667 "/></g><g stroke-linejoin="miter" stroke-opacity="1.0" fill-opacity="0.0" stroke="rgb(0,0,0)" stroke-width="2.0" fill="rgb(0,0,0)" stroke-linecap="butt" stroke-miterlimit="10.0"><path d="M 380.5556,150.6944 v 4.1667 "/></g><g stroke-linejoin="miter" stroke-opacity="1.0" fill-opacity="0.0" stroke="rgb(0,0,0)" stroke-width="2.0" fill="rgb(0,0,0)" stroke-linecap="butt" stroke-miterlimit="10.0"><path d="M 352.7778,150.6944 v 4.1667 "/></g><g stroke-linejoin="miter" stroke-opacity="1.0" fill-opacity="0.0" stroke="rgb(0,0,0)" stroke-width="2.0" fill="rgb(0,0,0)" stroke-linecap="butt" stroke-miterlimit="10.0"><path d="M 325.0000,150.6944 v 4.1667 "/></g><g stroke-linejoin="miter" stroke-opacity="1.0" fill-opacity="0.0" stroke="rgb(255,0,0)" stroke-width="1.0" fill="rgb(0,0,0)" stroke-linecap="butt" stroke-miterlimit="10.0"><path d="M 297.2222,97.2222 c 0.9259,7.6305 1.8519,15.2610 2.7778 21.2256c 0.9259,5.9646 1.8519,10.2631 2.7778 12.2375c 0.9259,1.9744 1.8519,1.6245 2.7778 -0.8806c 0.9259,-2.5051 1.8519,-7.1656 2.7778 -12.9897c 0.9259,-5.8241 1.8519,-12.8118 2.7778 -19.5928c 0.9259,-6.7811 1.8519,-13.3555 2.7778 -18.5044c 0.9259,-5.1489 1.8519,-8.8721 2.7778 -10.5557c 0.9259,-1.6836 1.8519,-1.3275 2.7778 0.8806c 0.9259,2.2081 1.8519,6.2681 2.7778 11.3078c 0.9259,5.0397 1.8519,11.0591 2.7778 16.8716c 0.9259,5.8125 1.8519,11.4180 2.7778 15.7831c 0.9259,4.3651 1.8519,7.4897 2.7778 8.8739c 0.9259,1.3842 1.8519,1.0281 2.7778 -0.8806c 0.9259,-1.9087 1.8519,-5.3700 2.7778 -9.6260c 0.9259,-4.2560 1.8519,-9.3066 2.7778 -14.1504c 0.9259,-4.8437 1.8519,-9.4806 2.7778 -13.0619c 0.9259,-3.5813 1.8519,-6.1072 2.7778 -7.1921c 0.9259,-1.0849 1.8519,-0.7288 2.7778 0.8806c 0.9259,1.6094 1.8519,4.4720 2.7778 7.9442c 0.9259,3.4723 1.8519,7.5542 2.7778 11.4292c 0.9259,3.8750 1.8519,7.5431 2.7778 10.3407c 0.9259,2.7976 1.8519,4.7248 2.7778 5.5103c 0.9259,0.7855 1.8519,0.4294 2.7778 -0.8806c 0.9259,-1.3100 1.8519,-3.5739 2.7778 -6.2624c 0.9259,-2.6885 1.8519,-5.8017 2.7778 -8.7079c 0.9259,-2.9062 1.8519,-5.6056 2.7778 -7.6194c 0.9259,-2.0139 1.8519,-3.3423 2.7778 -3.8285c 0.9259,-0.4862 1.8519,-0.1300 2.7778 0.8806c 0.9259,1.0106 1.8519,2.6758 2.7778 4.5806c 0.9259,1.9048 1.8519,4.0492 2.7778 5.9867c 0.9259,1.9375 1.8518,3.6681 2.7778 4.8982c 0.9259,1.2301 1.8519,1.9599 2.7778 2.1467c 0.9259,0.1868 1.8518,-0.1693 2.7778 -0.8806c 0.9260,-0.7113 1.8520,-1.7777 2.7778 -2.8988c 0.9258,-1.1210 1.8513,-2.2966 2.7778 -3.2655c 0.9265,-0.9688 1.8541,-1.7309 2.7778 -2.1770c 0.9237,-0.4461 1.8436,-0.5762 2.7778 -0.4648c 0.9342,0.1113 1.8827,0.4641 2.7778 0.8806c 0.8951,0.4165 1.7367,0.8968 2.7778 1.2170c 1.0411,0.3202 2.2816,0.4802 2.7778 0.5442c 0.4962,0.0640 0.2481,0.0320 0.0000 -0.0000"/></g><g stroke-linejoin="miter" stroke-opacity="1.0" fill-opacity="1.0" stroke="rgb(0,0,0)" stroke-width="0.0" fill="rgb(255,0,0)" stroke-linecap="butt" stroke-miterlimit="10.0"><path d="M 300.0000,97.2222 c 0.0000,-1.5341 -1.2437,-2.7778 -2.7778 -2.7778c -1.5341,-0.0000 -2.7778,1.2437 -2.7778 2.7778c -0.0000,1.5341 1.2437,2.7778 2.7778 2.7778c 1.5341,0.0000 2.7778,-1.2437 2.7778 -2.7778Z"/></g><g stroke-linejoin="miter" stroke-opacity="1.0" fill-opacity="1.0" stroke="rgb(0,0,0)" stroke-width="0.0" fill="rgb(255,0,0)" stroke-linecap="butt" stroke-miterlimit="10.0"><path d="M 411.1111,97.2222 c 0.0000,-1.5341 -1.2437,-2.7778 -2.7778 -2.7778c -1.5341,-0.0000 -2.7778,1.2437 -2.7778 2.7778c -0.0000,1.5341 1.2437,2.7778 2.7778 2.7778c 1.5341,0.0000 2.7778,-1.2437 2.7778 -2.7778Z"/></g><g stroke-linejoin="miter" stroke-opacity="1.0" fill-opacity="0.0" stroke="rgb(0,0,0)" stroke-width="1.055935604097144" fill="rgb(0,0,0)" stroke-linecap="butt" stroke-miterlimit="10.0"><path d="M 197.2222,83.3333 h 46.3161 "/></g><g stroke-linejoin="miter" stroke-opacity="1.0" fill-opacity="1.0" stroke="rgb(0,0,0)" stroke-width="0.0" fill="rgb(0,0,0)" stroke-linecap="butt" stroke-miterlimit="10.0"></g><g stroke-linejoin="miter" stroke-opacity="1.0" fill-opacity="1.0" stroke="rgb(0,0,0)" stroke-width="0.0" fill="rgb(0,0,0)" stroke-linecap="butt" stroke-miterlimit="10.0"></g><g stroke-linejoin="miter" stroke-opacity="1.0" fill-opacity="1.0" stroke="rgb(0,0,0)" stroke-width="0.0" fill="rgb(0,0,0)" stroke-linecap="butt" stroke-miterlimit="10.0"><path d="M 252.7778,83.3333 l -10.8081,-3.5118 l 1.8462,3.5118 l -1.8462,3.5118 Z"/></g><g stroke-linejoin="miter" stroke-opacity="1.0" fill-opacity="1.0" stroke="rgb(0,0,0)" stroke-width="0.0" fill="rgb(0,0,0)" stroke-linecap="butt" stroke-miterlimit="10.0"><path d="M 243.8159,83.3333 h -0.2776 v -0.5280 l 0.2776,0.5280 h -0.2776 v 0.5280 Z"/></g><g stroke-linejoin="miter" stroke-opacity="1.0" fill-opacity="0.0" stroke="rgb(0,0,0)" stroke-width="2.0" fill="rgb(0,0,0)" stroke-linecap="butt" stroke-miterlimit="10.0"><path d="M 16.6667,152.7778 l 0.0000,-143.5383 "/></g><g stroke-linejoin="miter" stroke-opacity="1.0" fill-opacity="1.0" stroke="rgb(0,0,0)" stroke-width="0.0" fill="rgb(0,0,0)" stroke-linecap="butt" stroke-miterlimit="10.0"></g><g stroke-linejoin="miter" stroke-opacity="1.0" fill-opacity="1.0" stroke="rgb(0,0,0)" stroke-width="0.0" fill="rgb(0,0,0)" stroke-linecap="butt" stroke-miterlimit="10.0"></g><g stroke-linejoin="miter" stroke-opacity="1.0" fill-opacity="1.0" stroke="rgb(0,0,0)" stroke-width="0.0" fill="rgb(0,0,0)" stroke-linecap="butt" stroke-miterlimit="10.0"><path d="M 16.6667,0.0000 l -3.4145,10.5088 l 3.4145,-1.7951 l 3.4145,1.7951 Z"/></g><g stroke-linejoin="miter" stroke-opacity="1.0" fill-opacity="1.0" stroke="rgb(0,0,0)" stroke-width="0.0" fill="rgb(0,0,0)" stroke-linecap="butt" stroke-miterlimit="10.0"><path d="M 16.6667,8.7137 l -0.0000,0.5257 l -1.0000,-0.0000 l 1.0000,-0.5257 l -0.0000,0.5257 l 1.0000,0.0000 Z"/></g><g stroke-linejoin="miter" stroke-opacity="1.0" fill-opacity="0.0" stroke="rgb(0,0,0)" stroke-width="2.0" fill="rgb(0,0,0)" stroke-linecap="butt" stroke-miterlimit="10.0"><path d="M 16.6667,152.7778 h 143.5383 "/></g><g stroke-linejoin="miter" stroke-opacity="1.0" fill-opacity="1.0" stroke="rgb(0,0,0)" stroke-width="0.0" fill="rgb(0,0,0)" stroke-linecap="butt" stroke-miterlimit="10.0"></g><g stroke-linejoin="miter" stroke-opacity="1.0" fill-opacity="1.0" stroke="rgb(0,0,0)" stroke-width="0.0" fill="rgb(0,0,0)" stroke-linecap="butt" stroke-miterlimit="10.0"></g><g stroke-linejoin="miter" stroke-opacity="1.0" fill-opacity="1.0" stroke="rgb(0,0,0)" stroke-width="0.0" fill="rgb(0,0,0)" stroke-linecap="butt" stroke-miterlimit="10.0"><path d="M 169.4444,152.7778 l -10.5088,-3.4145 l 1.7951,3.4145 l -1.7951,3.4145 Z"/></g><g stroke-linejoin="miter" stroke-opacity="1.0" fill-opacity="1.0" stroke="rgb(0,0,0)" stroke-width="0.0" fill="rgb(0,0,0)" stroke-linecap="butt" stroke-miterlimit="10.0"><path d="M 160.7307,152.7778 h -0.5257 v -1.0000 l 0.5257,1.0000 h -0.5257 v 1.0000 Z"/></g><g stroke-linejoin="miter" stroke-opacity="1.0" fill-opacity="0.0" stroke="rgb(0,0,0)" stroke-width="2.0" fill="rgb(0,0,0)" stroke-linecap="butt" stroke-miterlimit="10.0"><path d="M 14.5833,13.8889 l 4.1667,0.0000 "/></g><g stroke-linejoin="miter" stroke-opacity="1.0" fill-opacity="0.0" stroke="rgb(0,0,0)" stroke-width="2.0" fill="rgb(0,0,0)" stroke-linecap="butt" stroke-miterlimit="10.0"><path d="M 14.5833,41.6667 l 4.1667,0.0000 "/></g><g stroke-linejoin="miter" stroke-opacity="1.0" fill-opacity="0.0" stroke="rgb(0,0,0)" stroke-width="2.0" fill="rgb(0,0,0)" stroke-linecap="butt" stroke-miterlimit="10.0"><path d="M 14.5833,69.4444 l 4.1667,0.0000 "/></g><g stroke-linejoin="miter" stroke-opacity="1.0" fill-opacity="0.0" stroke="rgb(0,0,0)" stroke-width="2.0" fill="rgb(0,0,0)" stroke-linecap="butt" stroke-miterlimit="10.0"><path d="M 14.5833,97.2222 l 4.1667,0.0000 "/></g><g stroke-linejoin="miter" stroke-opacity="1.0" fill-opacity="0.0" stroke="rgb(0,0,0)" stroke-width="2.0" fill="rgb(0,0,0)" stroke-linecap="butt" stroke-miterlimit="10.0"><path d="M 14.5833,125.0000 l 4.1667,0.0000 "/></g><g stroke-linejoin="miter" stroke-opacity="1.0" fill-opacity="0.0" stroke="rgb(0,0,0)" stroke-width="2.0" fill="rgb(0,0,0)" stroke-linecap="butt" stroke-miterlimit="10.0"><path d="M 155.5556,150.6944 v 4.1667 "/></g><g stroke-linejoin="miter" stroke-opacity="1.0" fill-opacity="0.0" stroke="rgb(0,0,0)" stroke-width="2.0" fill="rgb(0,0,0)" stroke-linecap="butt" stroke-miterlimit="10.0"><path d="M 127.7778,150.6944 v 4.1667 "/></g><g stroke-linejoin="miter" stroke-opacity="1.0" fill-opacity="0.0" stroke="rgb(0,0,0)" stroke-width="2.0" fill="rgb(0,0,0)" stroke-linecap="butt" stroke-miterlimit="10.0"><path d="M 100.0000,150.6944 v 4.1667 "/></g><g stroke-linejoin="miter" stroke-opacity="1.0" fill-opacity="0.0" stroke="rgb(0,0,0)" stroke-width="2.0" fill="rgb(0,0,0)" stroke-linecap="butt" stroke-miterlimit="10.0"><path d="M 72.2222,150.6944 v 4.1667 "/></g><g stroke-linejoin="miter" stroke-opacity="1.0" fill-opacity="0.0" stroke="rgb(0,0,0)" stroke-width="2.0" fill="rgb(0,0,0)" stroke-linecap="butt" stroke-miterlimit="10.0"><path d="M 44.4444,150.6944 v 4.1667 "/></g><g stroke-linejoin="miter" stroke-opacity="1.0" fill-opacity="0.0" stroke="rgb(255,0,0)" stroke-width="1.0" fill="rgb(0,0,0)" stroke-linecap="butt" stroke-miterlimit="10.0"><path d="M 16.6667,97.2222 c 0.9259,-0.1195 1.8519,-0.2389 2.7778 -0.5442c 0.9259,-0.3053 1.8519,-0.7965 2.7778 -1.2170c 0.9259,-0.4205 1.8519,-0.7703 2.7778 -0.8806c 0.9259,-0.1103 1.8519,0.0190 2.7778 0.4648c 0.9259,0.4458 1.8519,1.2081 2.7778 2.1770c 0.9259,0.9689 1.8519,2.1445 2.7778 3.2655c 0.9259,1.1210 1.8519,2.1875 2.7778 2.8988c 0.9259,0.7113 1.8519,1.0674 2.7778 0.8806c 0.9259,-0.1868 1.8519,-0.9165 2.7778 -2.1467c 0.9259,-1.2301 1.8519,-2.9607 2.7778 -4.8982c 0.9259,-1.9375 1.8519,-4.0819 2.7778 -5.9867c 0.9259,-1.9048 1.8519,-3.5700 2.7778 -4.5806c 0.9259,-1.0106 1.8519,-1.3668 2.7778 -0.8806c 0.9259,0.4862 1.8519,1.8146 2.7778 3.8285c 0.9259,2.0139 1.8519,4.7132 2.7778 7.6194c 0.9259,2.9062 1.8519,6.0194 2.7778 8.7079c 0.9259,2.6885 1.8519,4.9524 2.7778 6.2624c 0.9259,1.3100 1.8519,1.6661 2.7778 0.8806c 0.9259,-0.7855 1.8519,-2.7127 2.7778 -5.5103c 0.9259,-2.7976 1.8519,-6.4657 2.7778 -10.3407c 0.9259,-3.8750 1.8519,-7.9569 2.7778 -11.4292c 0.9259,-3.4723 1.8519,-6.3349 2.7778 -7.9442c 0.9259,-1.6094 1.8519,-1.9655 2.7778 -0.8806c 0.9259,1.0849 1.8519,3.6107 2.7778 7.1921c 0.9259,3.5813 1.8519,8.2182 2.7778 13.0619c 0.9259,4.8437 1.8519,9.8944 2.7778 14.1504c 0.9259,4.2560 1.8519,7.7173 2.7778 9.6260c 0.9259,1.9087 1.8519,2.2648 2.7778 0.8806c 0.9259,-1.3842 1.8519,-4.5088 2.7778 -8.8739c 0.9259,-4.3651 1.8519,-9.9706 2.7778 -15.7831c 0.9259,-5.8125 1.8518,-11.8319 2.7778 -16.8716c 0.9259,-5.0397 1.8519,-9.0999 2.7778 -11.3078c 0.9259,-2.2080 1.8518,-2.5638 2.7778 -0.8806c 0.9260,1.6832 1.8520,5.4055 2.7778 10.5557c 0.9258,5.1502 1.8513,11.7282 2.7778 18.5044c 0.9265,6.7762 1.8541,13.7505 2.7778 19.5928c 0.9237,5.8423 1.8436,10.5526 2.7778 12.9897c 0.9342,2.4370 1.8827,2.6007 2.7778 0.8806c 0.8951,-1.7201 1.7367,-5.3241 2.7778 -12.2375c 1.0411,-6.9135 2.2816,-17.1364 2.7778 -21.2256c 0.4962,-4.0892 0.2481,-2.0446 0.0000 -0.0000"/></g><g stroke-linejoin="miter" stroke-opacity="1.0" fill-opacity="1.0" stroke="rgb(0,0,0)" stroke-width="0.0" fill="rgb(255,0,0)" stroke-linecap="butt" stroke-miterlimit="10.0"><path d="M 19.4444,97.2222 c 0.0000,-1.5341 -1.2437,-2.7778 -2.7778 -2.7778c -1.5341,-0.0000 -2.7778,1.2437 -2.7778 2.7778c -0.0000,1.5341 1.2437,2.7778 2.7778 2.7778c 1.5341,0.0000 2.7778,-1.2437 2.7778 -2.7778Z"/></g><g stroke-linejoin="miter" stroke-opacity="1.0" fill-opacity="1.0" stroke="rgb(0,0,0)" stroke-width="0.0" fill="rgb(255,0,0)" stroke-linecap="butt" stroke-miterlimit="10.0"><path d="M 130.5556,97.2222 c 0.0000,-1.5341 -1.2437,-2.7778 -2.7778 -2.7778c -1.5341,-0.0000 -2.7778,1.2437 -2.7778 2.7778c -0.0000,1.5341 1.2437,2.7778 2.7778 2.7778c 1.5341,0.0000 2.7778,-1.2437 2.7778 -2.7778Z"/></g></svg>