<svg xmlns="http://www.w3.org/2000/svg" height="184.5601" stroke-opacity="1" viewBox="0 0 200 185" font-size="1" width="200.0000" xmlns:xlink="http://www.w3.org/1999/xlink" stroke="rgb(0,0,0)" version="1.1"><defs></defs><g stroke-linejoin="miter" stroke-opacity="1.0" fill-opacity="0.0" stroke="rgb(0,0,0)" stroke-width="2.0" fill="rgb(0,0,0)" stroke-linecap="butt" stroke-miterlimit="10.0"><path d="M 18.1535,166.4066 l 0.0000,-159.6823 "/></g><g stroke-linejoin="miter" stroke-opacity="1.0" fill-opacity="1.0" stroke="rgb(0,0,0)" stroke-width="0.0" fill="rgb(0,0,0)" stroke-linecap="butt" stroke-miterlimit="10.0"></g><g stroke-linejoin="miter" stroke-opacity="1.0" fill-opacity="1.0" stroke="rgb(0,0,0)" stroke-width="0.0" fill="rgb(0,0,0)" stroke-linecap="butt" stroke-miterlimit="10.0"></g><g stroke-linejoin="miter" stroke-opacity="1.0" fill-opacity="1.0" stroke="rgb(0,0,0)" stroke-width="0.0" fill="rgb(0,0,0)" stroke-linecap="butt" stroke-miterlimit="10.0"><path d="M 18.1535,-0.0000 l -2.4290,7.4756 l 2.4290,-1.2770 l 2.4290,1.2770 Z"/></g><g stroke-linejoin="miter" stroke-opacity="1.0" fill-opacity="1.0" stroke="rgb(0,0,0)" stroke-width="0.0" fill="rgb(0,0,0)" stroke-linecap="butt" stroke-miterlimit="10.0"><path d="M 18.1535,6.1986 l -0.0000,0.5257 l -1.0000,-0.0000 l 1.0000,-0.5257 l -0.0000,0.5257 l 1.0000,0.0000 Z"/></g><g stroke-linejoin="miter" stroke-opacity="1.0" fill-opacity="0.0" stroke="rgb(0,0,0)" stroke-width="2.0" fill="rgb(0,0,0)" stroke-linecap="butt" stroke-miterlimit="10.0"><path d="M 18.1535,166.4066 h 159.6823 "/></g><g stroke-linejoin="miter" stroke-opacity="1.0" fill-opacity="1.0" stroke="rgb(0,0,0)" stroke-width="0.0" fill="rgb(0,0,0)" stroke-linecap="butt" stroke-miterlimit="10.0"></g><g stroke-linejoin="miter" stroke-opacity="1.0" fill-opacity="1.0" stroke="rgb(0,0,0)" stroke-width="0.0" fill="rgb(0,0,0)" stroke-linecap="butt" stroke-miterlimit="10.0"></g><g stroke-linejoin="miter" stroke-opacity="1.0" fill-opacity="1.0" stroke="rgb(0,0,0)" stroke-width="0.0" fill="rgb(0,0,0)" stroke-linecap="butt" stroke-miterlimit="10.0"><path d="M 184.5601,166.4066 l -7.4756,-2.4290 l 1.2770,2.4290 l -1.2770,2.4290 Z"/></g><g stroke-linejoin="miter" stroke-opacity="1.0" fill-opacity="1.0" stroke="rgb(0,0,0)" stroke-width="0.0" fill="rgb(0,0,0)" stroke-linecap="butt" stroke-miterlimit="10.0"><path d="M 178.3614,166.4066 h -0.5257 v -1.0000 l 0.5257,1.0000 h -0.5257 v 1.0000 Z"/></g><g stroke-linejoin="miter" stroke-opacity="1.0" fill-opacity="0.0" stroke="rgb(0,0,0)" stroke-width="2.0" fill="rgb(0,0,0)" stroke-linecap="butt" stroke-miterlimit="10.0"><path d="M 15.8843,15.1279 l 4.5384,0.0000 "/></g><g stroke-linejoin="miter" stroke-opacity="1.0" fill-opacity="0.0" stroke="rgb(0,0,0)" stroke-width="2.0" fill="rgb(0,0,0)" stroke-linecap="butt" stroke-miterlimit="10.0"><path d="M 15.8843,45.3836 l 4.5384,0.0000 "/></g><g stroke-linejoin="miter" stroke-opacity="1.0" fill-opacity="0.0" stroke="rgb(0,0,0)" stroke-width="2.0" fill="rgb(0,0,0)" stroke-linecap="butt" stroke-miterlimit="10.0"><path d="M 15.8843,75.6394 l 4.5384,0.0000 "/></g><g stroke-linejoin="miter" stroke-opacity="1.0" fill-opacity="0.0" stroke="rgb(0,0,0)" stroke-width="2.0" fill="rgb(0,0,0)" stroke-linecap="butt" stroke-miterlimit="10.0"><path d="M 15.8843,105.8951 l 4.5384,0.0000 "/></g><g stroke-linejoin="miter" stroke-opacity="1.0" fill-opacity="0.0" stroke="rgb(0,0,0)" stroke-width="2.0" fill="rgb(0,0,0)" stroke-linecap="butt" stroke-miterlimit="10.0"><path d="M 15.8843,136.1509 l 4.5384,0.0000 "/></g><g stroke-linejoin="miter" stroke-opacity="1.0" fill-opacity="0.0" stroke="rgb(0,0,0)" stroke-width="2.0" fill="rgb(0,0,0)" stroke-linecap="butt" stroke-miterlimit="10.0"><path d="M 169.4322,164.1375 v 4.5384 "/></g><g stroke-linejoin="miter" stroke-opacity="1.0" fill-opacity="0.0" stroke="rgb(0,0,0)" stroke-width="2.0" fill="rgb(0,0,0)" stroke-linecap="butt" stroke-miterlimit="10.0"><path d="M 139.1765,164.1375 v 4.5384 "/></g><g stroke-linejoin="miter" stroke-opacity="1.0" fill-opacity="0.0" stroke="rgb(0,0,0)" stroke-width="2.0" fill="rgb(0,0,0)" stroke-linecap="butt" stroke-miterlimit="10.0"><path d="M 108.9207,164.1375 v 4.5384 "/></g><g stroke-linejoin="miter" stroke-opacity="1.0" fill-opacity="0.0" stroke="rgb(0,0,0)" stroke-width="2.0" fill="rgb(0,0,0)" stroke-linecap="butt" stroke-miterlimit="10.0"><path d="M 78.6650,164.1375 v 4.5384 "/></g><g stroke-linejoin="miter" stroke-opacity="1.0" fill-opacity="0.0" stroke="rgb(0,0,0)" stroke-width="2.0" fill="rgb(0,0,0)" stroke-linecap="butt" stroke-miterlimit="10.0"><path d="M 48.4092,164.1375 v 4.5384 "/></g><g stroke-linejoin="miter" stroke-opacity="1.0" fill-opacity="0.0" stroke="rgb(255,0,0)" stroke-width="1.0" fill="rgb(0,0,0)" stroke-linecap="butt" stroke-miterlimit="10.0"><path d="M 18.1535,166.4066 c 1.0085,-3.6704 2.0171,-7.3407 3.0256 -9.5677c 1.0085,-2.2270 2.0171,-3.0105 3.0256 -3.9631c 1.0085,-0.9526 2.0171,-2.0741 3.0256 -3.0410c 1.0085,-0.9668 2.0171,-1.7789 3.0256 -2.5637c 1.0085,-0.7848 2.0171,-1.5422 3.0256 -2.2586c 1.0085,-0.7164 2.0171,-1.3919 3.0256 -2.0420c 1.0085,-0.6501 2.0171,-1.2748 3.0256 -1.8778c 1.0085,-0.6029 2.0171,-1.1841 3.0256 -1.7478c 1.0085,-0.5637 2.0171,-1.1100 3.0256 -1.6416c 1.0085,-0.5316 2.0171,-1.0484 3.0256 -1.5526c 1.0085,-0.5043 2.0171,-0.9960 3.0256 -1.4767c 1.0085,-0.4808 2.0171,-0.9507 3.0256 -1.4110c 1.0085,-0.4603 2.0171,-0.9111 3.0256 -1.3533c 1.0085,-0.4423 2.0171,-0.8760 3.0256 -1.3022c 1.0085,-0.4262 2.0171,-0.8448 3.0256 -1.2565c 1.0085,-0.4117 2.0171,-0.8166 3.0256 -1.2153c 1.0085,-0.3987 2.0171,-0.7911 3.0256 -1.1778c 1.0085,-0.3868 2.0171,-0.7678 3.0256 -1.1437c 1.0085,-0.3759 2.0171,-0.7465 3.0256 -1.1123c 1.0085,-0.3658 2.0171,-0.7269 3.0256 -1.0834c 1.0085,-0.3566 2.0171,-0.7087 3.0256 -1.0567c 1.0085,-0.3480 2.0171,-0.6918 3.0256 -1.0318c 1.0085,-0.3400 2.0171,-0.6761 3.0256 -1.0086c 1.0085,-0.3325 2.0171,-0.6614 3.0256 -0.9869c 1.0085,-0.3255 2.0171,-0.6476 3.0256 -0.9665c 1.0085,-0.3189 2.0171,-0.6347 3.0256 -0.9474c 1.0085,-0.3127 2.0171,-0.6225 3.0256 -0.9293c 1.0085,-0.3069 2.0171,-0.6109 3.0256 -0.9123c 1.0085,-0.3014 2.0171,-0.6000 3.0256 -0.8961c 1.0085,-0.2961 2.0171,-0.5897 3.0256 -0.8808c 1.0085,-0.2911 2.0171,-0.5798 3.0256 -0.8662c 1.0085,-0.2864 2.0171,-0.5705 3.0256 -0.8524c 1.0085,-0.2819 2.0171,-0.5616 3.0256 -0.8392c 1.0085,-0.2776 2.0171,-0.5531 3.0256 -0.8265c 1.0085,-0.2735 2.0171,-0.5449 3.0256 -0.8145c 1.0085,-0.2695 2.0171,-0.5372 3.0256 -0.8029c 1.0085,-0.2658 2.0171,-0.5297 3.0256 -0.7918c 1.0085,-0.2622 2.0171,-0.5225 3.0256 -0.7812c 1.0085,-0.2587 2.0171,-0.5157 3.0256 -0.7710c 1.0085,-0.2553 2.0171,-0.5091 3.0256 -0.7612c 1.0085,-0.2521 2.0171,-0.5027 3.0256 -0.7517c 1.0085,-0.2490 2.0171,-0.4966 3.0256 -0.7426c 1.0085,-0.2461 2.0171,-0.4906 3.0256 -0.7338c 1.0085,-0.2432 2.0170,-0.4849 3.0256 -0.7253c 1.0085,-0.2404 2.0171,-0.4794 3.0256 -0.7171c 1.0085,-0.2377 2.0170,-0.4741 3.0256 -0.7092c 1.0085,-0.2351 2.0171,-0.4690 3.0256 -0.7015c 1.0085,-0.2326 2.0170,-0.4640 3.0256 -0.6941c 1.0086,-0.2302 2.0172,-0.4592 3.0256 -0.6869c 1.0084,-0.2278 2.0164,-0.4543 3.0256 -0.6800c 1.0092,-0.2257 2.0195,-0.4504 3.0256 -0.6732c 1.0061,-0.2228 2.0080,-0.4436 3.0256 -0.6666c 1.0175,-0.2230 2.0507,-0.4483 3.0256 -0.6602c 0.9749,-0.2119 1.8916,-0.4104 3.0256 -0.6540c 1.1339,-0.2437 2.4851,-0.5325 3.0256 -0.6480c 0.5405,-0.1155 0.2702,-0.0578 0.0000 0.0000"/></g><g stroke-linejoin="miter" stroke-opacity="1.0" fill-opacity="1.0" stroke="rgb(0,0,0)" stroke-width="0.0" fill="rgb(255,0,0)" stroke-linecap="butt" stroke-miterlimit="10.0"><path d="M 21.1790,166.4066 c 0.0000,-1.6710 -1.3546,-3.0256 -3.0256 -3.0256c -1.6710,-0.0000 -3.0256,1.3546 -3.0256 3.0256c -0.0000,1.6710 1.3546,3.0256 3.0256 3.0256c 1.6710,0.0000 3.0256,-1.3546 3.0256 -3.0256Z"/></g></svg>