<svg xmlns="http://www.w3.org/2000/svg" height="184.8485" stroke-opacity="1" viewBox="0 0 200 185" font-size="1" width="200.0000" xmlns:xlink="http://www.w3.org/1999/xlink" stroke="rgb(0,0,0)" version="1.1"><defs></defs><g stroke-linejoin="miter" stroke-opacity="1.0" fill-opacity="0.0" stroke="rgb(0,0,0)" stroke-width="2.0" fill="rgb(0,0,0)" stroke-linecap="butt" stroke-miterlimit="10.0"><path d="M 18.1818,166.6667 l 0.0000,-159.9370 "/></g><g stroke-linejoin="miter" stroke-opacity="1.0" fill-opacity="1.0" stroke="rgb(0,0,0)" stroke-width="0.0" fill="rgb(0,0,0)" stroke-linecap="butt" stroke-miterlimit="10.0"></g><g stroke-linejoin="miter" stroke-opacity="1.0" fill-opacity="1.0" stroke="rgb(0,0,0)" stroke-width="0.0" fill="rgb(0,0,0)" stroke-linecap="butt" stroke-miterlimit="10.0"></g><g stroke-linejoin="miter" stroke-opacity="1.0" fill-opacity="1.0" stroke="rgb(0,0,0)" stroke-width="0.0" fill="rgb(0,0,0)" stroke-linecap="butt" stroke-miterlimit="10.0"><path d="M 18.1818,-0.0000 l -2.4310,7.4820 l 2.4310,-1.2781 l 2.4310,1.2781 Z"/></g><g stroke-linejoin="miter" stroke-opacity="1.0" fill-opacity="1.0" stroke="rgb(0,0,0)" stroke-width="0.0" fill="rgb(0,0,0)" stroke-linecap="butt" stroke-miterlimit="10.0"><path d="M 18.1818,6.2039 l -0.0000,0.5257 l -1.0000,-0.0000 l 1.0000,-0.5257 l -0.0000,0.5257 l 1.0000,0.0000 Z"/></g><g stroke-linejoin="miter" stroke-opacity="1.0" fill-opacity="0.0" stroke="rgb(0,0,0)" stroke-width="2.0" fill="rgb(0,0,0)" stroke-linecap="butt" stroke-miterlimit="10.0"><path d="M 18.1818,166.6667 h 159.9370 "/></g><g stroke-linejoin="miter" stroke-opacity="1.0" fill-opacity="1.0" stroke="rgb(0,0,0)" stroke-width="0.0" fill="rgb(0,0,0)" stroke-linecap="butt" stroke-miterlimit="10.0"></g><g stroke-linejoin="miter" stroke-opacity="1.0" fill-opacity="1.0" stroke="rgb(0,0,0)" stroke-width="0.0" fill="rgb(0,0,0)" stroke-linecap="butt" stroke-miterlimit="10.0"></g><g stroke-linejoin="miter" stroke-opacity="1.0" fill-opacity="1.0" stroke="rgb(0,0,0)" stroke-width="0.0" fill="rgb(0,0,0)" stroke-linecap="butt" stroke-miterlimit="10.0"><path d="M 184.8485,166.6667 l -7.4820,-2.4310 l 1.2781,2.4310 l -1.2781,2.4310 Z"/></g><g stroke-linejoin="miter" stroke-opacity="1.0" fill-opacity="1.0" stroke="rgb(0,0,0)" stroke-width="0.0" fill="rgb(0,0,0)" stroke-linecap="butt" stroke-miterlimit="10.0"><path d="M 178.6446,166.6667 h -0.5257 v -1.0000 l 0.5257,1.0000 h -0.5257 v 1.0000 Z"/></g><g stroke-linejoin="miter" stroke-opacity="1.0" fill-opacity="0.0" stroke="rgb(0,0,0)" stroke-width="2.0" fill="rgb(0,0,0)" stroke-linecap="butt" stroke-miterlimit="10.0"><path d="M 15.9091,15.1515 l 4.5455,0.0000 "/></g><g stroke-linejoin="miter" stroke-opacity="1.0" fill-opacity="0.0" stroke="rgb(0,0,0)" stroke-width="2.0" fill="rgb(0,0,0)" stroke-linecap="butt" stroke-miterlimit="10.0"><path d="M 15.9091,45.4545 l 4.5455,0.0000 "/></g><g stroke-linejoin="miter" stroke-opacity="1.0" fill-opacity="0.0" stroke="rgb(0,0,0)" stroke-width="2.0" fill="rgb(0,0,0)" stroke-linecap="butt" stroke-miterlimit="10.0"><path d="M 15.9091,75.7576 l 4.5455,0.0000 "/></g><g stroke-linejoin="miter" stroke-opacity="1.0" fill-opacity="0.0" stroke="rgb(0,0,0)" stroke-width="2.0" fill="rgb(0,0,0)" stroke-linecap="butt" stroke-miterlimit="10.0"><path d="M 15.9091,106.0606 l 4.5455,0.0000 "/></g><g stroke-linejoin="miter" stroke-opacity="1.0" fill-opacity="0.0" stroke="rgb(0,0,0)" stroke-width="2.0" fill="rgb(0,0,0)" stroke-linecap="butt" stroke-miterlimit="10.0"><path d="M 15.9091,136.3636 l 4.5455,0.0000 "/></g><g stroke-linejoin="miter" stroke-opacity="1.0" fill-opacity="0.0" stroke="rgb(0,0,0)" stroke-width="2.0" fill="rgb(0,0,0)" stroke-linecap="butt" stroke-miterlimit="10.0"><path d="M 169.6970,164.3939 v 4.5455 "/></g><g stroke-linejoin="miter" stroke-opacity="1.0" fill-opacity="0.0" stroke="rgb(0,0,0)" stroke-width="2.0" fill="rgb(0,0,0)" stroke-linecap="butt" stroke-miterlimit="10.0"><path d="M 139.3939,164.3939 v 4.5455 "/></g><g stroke-linejoin="miter" stroke-opacity="1.0" fill-opacity="0.0" stroke="rgb(0,0,0)" stroke-width="2.0" fill="rgb(0,0,0)" stroke-linecap="butt" stroke-miterlimit="10.0"><path d="M 109.0909,164.3939 v 4.5455 "/></g><g stroke-linejoin="miter" stroke-opacity="1.0" fill-opacity="0.0" stroke="rgb(0,0,0)" stroke-width="2.0" fill="rgb(0,0,0)" stroke-linecap="butt" stroke-miterlimit="10.0"><path d="M 78.7879,164.3939 v 4.5455 "/></g><g stroke-linejoin="miter" stroke-opacity="1.0" fill-opacity="0.0" stroke="rgb(0,0,0)" stroke-width="2.0" fill="rgb(0,0,0)" stroke-linecap="butt" stroke-miterlimit="10.0"><path d="M 48.4848,164.3939 v 4.5455 "/></g><g stroke-linejoin="miter" stroke-opacity="1.0" fill-opacity="0.0" stroke="rgb(255,0,0)" stroke-width="1.0" fill="rgb(0,0,0)" stroke-linecap="butt" stroke-miterlimit="10.0"><path d="M 78.7879,75.7576 c 2.5253,-0.0000 5.0505,-0.0000 7.5758 -0.0000c 2.5253,-0.0000 5.0505,-0.0000 7.5758 -0.0000c 2.5253,-0.0000 5.0505,-0.0000 7.5758 -0.0000c 2.5253,-0.0000 5.0505,-0.0000 7.5758 -0.0000c 2.5253,-0.0000 5.0505,-0.0000 7.5758 -0.0000c 2.5253,-0.0000 5.0505,-0.0000 7.5758 -0.0000c 2.5253,-0.0000 5.0505,-0.0000 7.5758 -0.0000c 2.5253,-0.0000 5.0505,-0.0000 7.5758 -0.0000c 2.5253,-0.0000 5.0505,-0.0000 7.5758 -0.0000c 2.5253,-0.0000 5.0505,-0.0000 7.5758 -0.0000c 2.5253,-0.0000 5.0505,-0.0000 7.5758 -0.0000c 2.5253,-0.0000 5.0505,-0.0000 7.5758 -0.0000c 2.5253,-0.0000 5.0505,-0.0000 7.5758 -0.0000c 2.5253,-0.0000 5.0505,-0.0000 7.5758 -0.0000"/></g><g stroke-linejoin="miter" stroke-opacity="1.0" fill-opacity="1.0" stroke="rgb(255,0,0)" stroke-width="1.0" fill="rgb(255,255,255)" stroke-linecap="butt" stroke-miterlimit="10.0"><path d="M 81.8182,75.7576 c 0.0000,-1.6736 -1.3567,-3.0303 -3.0303 -3.0303c -1.6736,-0.0000 -3.0303,1.3567 -3.0303 3.0303c -0.0000,1.6736 1.3567,3.0303 3.0303 3.0303c 1.6736,0.0000 3.0303,-1.3567 3.0303 -3.0303Z"/></g><g stroke-linejoin="miter" stroke-opacity="1.0" fill-opacity="0.0" stroke="rgb(255,0,0)" stroke-width="1.0" fill="rgb(0,0,0)" stroke-linecap="butt" stroke-miterlimit="10.0"><path d="M 18.1818,166.6667 c 2.5252,-2.5252 5.0504,-5.0504 7.5758 -7.5758c 2.5254,-2.5254 5.0509,-5.0509 7.5758 -7.5758c 2.5248,-2.5248 5.0489,-5.0489 7.5758 -7.5758c 2.5269,-2.5269 5.0565,-5.0565 7.5758 -7.5758c 2.5192,-2.5192 5.0280,-5.0280 7.5758 -7.5758c 2.5478,-2.5478 5.1346,-5.1346 7.5758 -7.5758c 2.4411,-2.4411 4.7365,-4.7365 7.5758 -7.5758c 2.8393,-2.8393 6.2225,-6.2225 7.5758 -7.5758c 1.3533,-1.3533 0.6766,-0.6766 0.0000 -0.0000"/></g><g stroke-linejoin="miter" stroke-opacity="1.0" fill-opacity="1.0" stroke="rgb(0,0,0)" stroke-width="0.0" fill="rgb(255,0,0)" stroke-linecap="butt" stroke-miterlimit="10.0"><path d="M 81.8182,106.0606 c 0.0000,-1.6736 -1.3567,-3.0303 -3.0303 -3.0303c -1.6736,-0.0000 -3.0303,1.3567 -3.0303 3.0303c -0.0000,1.6736 1.3567,3.0303 3.0303 3.0303c 1.6736,0.0000 3.0303,-1.3567 3.0303 -3.0303Z"/></g><g stroke-linejoin="miter" stroke-opacity="1.0" fill-opacity="1.0" stroke="rgb(0,0,0)" stroke-width="0.0" fill="rgb(255,0,0)" stroke-linecap="butt" stroke-miterlimit="10.0"><path d="M 21.2121,166.6667 c 0.0000,-1.6736 -1.3567,-3.0303 -3.0303 -3.0303c -1.6736,-0.0000 -3.0303,1.3567 -3.0303 3.0303c -0.0000,1.6736 1.3567,3.0303 3.0303 3.0303c 1.6736,0.0000 3.0303,-1.3567 3.0303 -3.0303Z"/></g></svg>