<svg xmlns="http://www.w3.org/2000/svg" height="169.4444" stroke-opacity="1" viewBox="0 0 450 169" font-size="1" width="450.0000" xmlns:xlink="http://www.w3.org/1999/xlink" stroke="rgb(0,0,0)" version="1.1"><defs></defs><g stroke-linejoin="miter" stroke-opacity="1.0" fill-opacity="0.0" stroke="rgb(0,0,0)" stroke-width="2.0" fill="rgb(0,0,0)" stroke-linecap="butt" stroke-miterlimit="10.0"><path d="M 297.2222,152.7778 l 0.0000,-143.1131 "/></g><g stroke-linejoin="miter" stroke-opacity="1.0" fill-opacity="1.0" stroke="rgb(0,0,0)" stroke-width="0.0" fill="rgb(0,0,0)" stroke-linecap="butt" stroke-miterlimit="10.0"></g><g stroke-linejoin="miter" stroke-opacity="1.0" fill-opacity="1.0" stroke="rgb(0,0,0)" stroke-width="0.0" fill="rgb(0,0,0)" stroke-linecap="butt" stroke-miterlimit="10.0"></g><g stroke-linejoin="miter" stroke-opacity="1.0" fill-opacity="1.0" stroke="rgb(0,0,0)" stroke-width="0.0" fill="rgb(0,0,0)" stroke-linecap="butt" stroke-miterlimit="10.0"><path d="M 297.2222,0.0000 l -3.5812,11.0217 l 3.5812,-1.8827 l 3.5812,1.8827 Z"/></g><g stroke-linejoin="miter" stroke-opacity="1.0" fill-opacity="1.0" stroke="rgb(0,0,0)" stroke-width="0.0" fill="rgb(0,0,0)" stroke-linecap="butt" stroke-miterlimit="10.0"><path d="M 297.2222,9.1390 l -0.0000,0.5257 l -1.0000,-0.0000 l 1.0000,-0.5257 l -0.0000,0.5257 l 1.0000,0.0000 Z"/></g><g stroke-linejoin="miter" stroke-opacity="1.0" fill-opacity="0.0" stroke="rgb(0,0,0)" stroke-width="2.0" fill="rgb(0,0,0)" stroke-linecap="butt" stroke-miterlimit="10.0"><path d="M 297.2222,152.7778 h 143.1131 "/></g><g stroke-linejoin="miter" stroke-opacity="1.0" fill-opacity="1.0" stroke="rgb(0,0,0)" stroke-width="0.0" fill="rgb(0,0,0)" stroke-linecap="butt" stroke-miterlimit="10.0"></g><g stroke-linejoin="miter" stroke-opacity="1.0" fill-opacity="1.0" stroke="rgb(0,0,0)" stroke-width="0.0" fill="rgb(0,0,0)" stroke-linecap="butt" stroke-miterlimit="10.0"></g><g stroke-linejoin="miter" stroke-opacity="1.0" fill-opacity="1.0" stroke="rgb(0,0,0)" stroke-width="0.0" fill="rgb(0,0,0)" stroke-linecap="butt" stroke-miterlimit="10.0"><path d="M 450.0000,152.7778 l -11.0217,-3.5812 l 1.8827,3.5812 l -1.8827,3.5812 Z"/></g><g stroke-linejoin="miter" stroke-opacity="1.0" fill-opacity="1.0" stroke="rgb(0,0,0)" stroke-width="0.0" fill="rgb(0,0,0)" stroke-linecap="butt" stroke-miterlimit="10.0"><path d="M 440.8610,152.7778 h -0.5257 v -1.0000 l 0.5257,1.0000 h -0.5257 v 1.0000 Z"/></g><g stroke-linejoin="miter" stroke-opacity="1.0" fill-opacity="0.0" stroke="rgb(0,0,0)" stroke-width="2.0" fill="rgb(0,0,0)" stroke-linecap="butt" stroke-miterlimit="10.0"><path d="M 295.1389,13.8889 l 4.1667,0.0000 "/></g><g stroke-linejoin="miter" stroke-opacity="1.0" fill-opacity="0.0" stroke="rgb(0,0,0)" stroke-width="2.0" fill="rgb(0,0,0)" stroke-linecap="butt" stroke-miterlimit="10.0"><path d="M 295.1389,41.6667 l 4.1667,0.0000 "/></g><g stroke-linejoin="miter" stroke-opacity="1.0" fill-opacity="0.0" stroke="rgb(0,0,0)" stroke-width="2.0" fill="rgb(0,0,0)" stroke-linecap="butt" stroke-miterlimit="10.0"><path d="M 295.1389,69.4444 l 4.1667,0.0000 "/></g><g stroke-linejoin="miter" stroke-opacity="1.0" fill-opacity="0.0" stroke="rgb(0,0,0)" stroke-width="2.0" fill="rgb(0,0,0)" stroke-linecap="butt" stroke-miterlimit="10.0"><path d="M 295.1389,97.2222 l 4.1667,0.0000 "/></g><g stroke-linejoin="miter" stroke-opacity="1.0" fill-opacity="0.0" stroke="rgb(0,0,0)" stroke-width="2.0" fill="rgb(0,0,0)" stroke-linecap="butt" stroke-miterlimit="10.0"><path d="M 295.1389,125.0000 l 4.1667,0.0000 "/></g><g stroke-linejoin="miter" stroke-opacity="1.0" fill-opacity="0.0" stroke="rgb(0,0,0)" stroke-width="2.0" fill="rgb(0,0,0)" stroke-linecap="butt" stroke-miterlimit="10.0"><path d="M 436.1111,150.6944 v 4.1667 "/></g><g stroke-linejoin="miter" stroke-opacity="1.0" fill-opacity="0.0" stroke="rgb(0,0,0)" stroke-width="2.0" fill="rgb(0,0,0)" stroke-linecap="butt" stroke-miterlimit="10.0"><path d="M 408.3333,150.6944 v 4.1667 "/></g><g stroke-linejoin="miter" stroke-opacity="1.0" fill-opacity="0.0" stroke="rgb(0,0,0)" stroke-width="2.0" fill="rgb(0,0,0)" stroke-linecap="butt" stroke-miterlimit="10.0"><path d="M 380.5556,150.6944 v 4.1667 "/></g><g stroke-linejoin="miter" stroke-opacity="1.0" fill-opacity="0.0" stroke="rgb(0,0,0)" stroke-width="2.0" fill="rgb(0,0,0)" stroke-linecap="butt" stroke-miterlimit="10.0"><path d="M 352.7778,150.6944 v 4.1667 "/></g><g stroke-linejoin="miter" stroke-opacity="1.0" fill-opacity="0.0" stroke="rgb(0,0,0)" stroke-width="2.0" fill="rgb(0,0,0)" stroke-linecap="butt" stroke-miterlimit="10.0"><path d="M 325.0000,150.6944 v 4.1667 "/></g><g stroke-linejoin="miter" stroke-opacity="1.0" fill-opacity="0.0" stroke="rgb(255,0,0)" stroke-width="1.0" fill="rgb(0,0,0)" stroke-linecap="butt" stroke-miterlimit="10.0"><path d="M 380.5556,145.6938 c 0.9259,-0.4810 1.8519,-0.9619 2.7778 -1.4722c 0.9259,-0.5103 1.8519,-1.0500 2.7778 -1.6111c 0.9259,-0.5611 1.8519,-1.1438 2.7778 -1.7500c 0.9259,-0.6062 1.8519,-1.2360 2.7778 -1.8889c 0.9259,-0.6529 1.8519,-1.3289 2.7778 -2.0278c 0.9259,-0.6989 1.8519,-1.4205 2.7778 -2.1667c 0.9259,-0.7461 1.8519,-1.5167 2.7778 -2.3056c 0.9259,-0.7888 1.8519,-1.5959 2.7778 -2.4444c 0.9259,-0.8485 1.8519,-1.7386 2.7778 -2.5833c 0.9259,-0.8448 1.8519,-1.6443 2.7778 -2.4437"/></g><g stroke-linejoin="miter" stroke-opacity="1.0" fill-opacity="1.0" stroke="rgb(255,0,0)" stroke-width="1.0" fill="rgb(255,255,255)" stroke-linecap="butt" stroke-miterlimit="10.0"><path d="M 383.3333,145.6938 c 0.0000,-1.5341 -1.2437,-2.7778 -2.7778 -2.7778c -1.5341,-0.0000 -2.7778,1.2437 -2.7778 2.7778c -0.0000,1.5341 1.2437,2.7778 2.7778 2.7778c 1.5341,0.0000 2.7778,-1.2437 2.7778 -2.7778Z"/></g><g stroke-linejoin="miter" stroke-opacity="1.0" fill-opacity="0.0" stroke="rgb(255,0,0)" stroke-width="1.0" fill="rgb(0,0,0)" stroke-linecap="butt" stroke-miterlimit="10.0"><path d="M 352.7778,96.9438 c 0.9259,-0.9439 1.8519,-1.8878 2.7778 -2.8611c 0.9259,-0.9733 1.8519,-1.9759 2.7778 -3.0000c 0.9259,-1.0241 1.8519,-2.0697 2.7778 -3.1389c 0.9259,-1.0692 1.8519,-2.1619 2.7778 -3.2778c 0.9259,-1.1159 1.8519,-2.2550 2.7778 -3.4167c 0.9259,-1.1617 1.8519,-2.3460 2.7778 -3.5556c 0.9259,-1.2095 1.8519,-2.4442 2.7778 -3.6944c 0.9259,-1.2502 1.8519,-2.5161 2.7778 -3.8333c 0.9259,-1.3173 1.8519,-2.6860 2.7778 -3.9722c 0.9259,-1.2862 1.8519,-2.4900 2.7778 -3.6937"/></g><g stroke-linejoin="miter" stroke-opacity="1.0" fill-opacity="1.0" stroke="rgb(0,0,0)" stroke-width="0.0" fill="rgb(255,0,0)" stroke-linecap="butt" stroke-miterlimit="10.0"><path d="M 383.3333,62.5000 c 0.0000,-1.5341 -1.2437,-2.7778 -2.7778 -2.7778c -1.5341,-0.0000 -2.7778,1.2437 -2.7778 2.7778c -0.0000,1.5341 1.2437,2.7778 2.7778 2.7778c 1.5341,0.0000 2.7778,-1.2437 2.7778 -2.7778Z"/></g><g stroke-linejoin="miter" stroke-opacity="1.0" fill-opacity="1.0" stroke="rgb(255,0,0)" stroke-width="1.0" fill="rgb(255,255,255)" stroke-linecap="butt" stroke-miterlimit="10.0"><path d="M 355.5556,96.9438 c 0.0000,-1.5341 -1.2437,-2.7778 -2.7778 -2.7778c -1.5341,-0.0000 -2.7778,1.2437 -2.7778 2.7778c -0.0000,1.5341 1.2437,2.7778 2.7778 2.7778c 1.5341,0.0000 2.7778,-1.2437 2.7778 -2.7778Z"/></g><g stroke-linejoin="miter" stroke-opacity="1.0" fill-opacity="0.0" stroke="rgb(255,0,0)" stroke-width="1.0" fill="rgb(0,0,0)" stroke-linecap="butt" stroke-miterlimit="10.0"><path d="M 297.2222,93.7500 c 0.9259,0.1229 1.8519,0.2459 2.7778 0.5937c 0.9259,0.3478 1.8519,0.9205 2.7778 1.5278c 0.9259,0.6072 1.8519,1.2490 2.7778 1.7987c 0.9259,0.5497 1.8519,1.0075 2.7778 1.2500c 0.9259,0.2425 1.8519,0.2698 2.7778 0.0381c 0.9259,-0.2317 1.8519,-0.7222 2.7778 -1.4270c 0.9259,-0.7048 1.8519,-1.6238 2.7778 -2.6389c 0.9259,-1.0151 1.8519,-2.1263 2.7778 -3.1876c 0.9259,-1.0614 1.8519,-2.0729 2.7778 -2.9167c 0.9259,-0.8437 1.8519,-1.5196 2.7778 -1.9826c 0.9259,-0.4630 1.8518,-0.7130 2.7778 -0.7952c 0.9259,-0.0822 1.8519,0.0034 2.7778 0.1389c 0.9259,0.1355 1.8518,0.3207 2.7778 0.4098c 0.9260,0.0891 1.8520,0.0821 2.7778 -0.1389c 0.9258,-0.2210 1.8513,-0.6558 2.7778 -1.3508c 0.9265,-0.6949 1.8541,-1.6500 2.7778 -2.8159c 0.9237,-1.1659 1.8436,-2.5427 2.7778 -4.0278c 0.9342,-1.4850 1.8827,-3.0783 2.7778 -4.5765c 0.8951,-1.4982 1.7367,-2.9014 2.7778 -4.3056c 1.0411,-1.4042 2.2816,-2.8094 2.7778 -3.3715c 0.4962,-0.5621 0.2481,-0.2810 -0.0000 -0.0000"/></g><g stroke-linejoin="miter" stroke-opacity="1.0" fill-opacity="1.0" stroke="rgb(0,0,0)" stroke-width="0.0" fill="rgb(255,0,0)" stroke-linecap="butt" stroke-miterlimit="10.0"><path d="M 355.5556,65.9722 c 0.0000,-1.5341 -1.2437,-2.7778 -2.7778 -2.7778c -1.5341,-0.0000 -2.7778,1.2437 -2.7778 2.7778c -0.0000,1.5341 1.2437,2.7778 2.7778 2.7778c 1.5341,0.0000 2.7778,-1.2437 2.7778 -2.7778Z"/></g><g stroke-linejoin="miter" stroke-opacity="1.0" fill-opacity="1.0" stroke="rgb(0,0,0)" stroke-width="0.0" fill="rgb(255,0,0)" stroke-linecap="butt" stroke-miterlimit="10.0"><path d="M 300.0000,93.7500 c 0.0000,-1.5341 -1.2437,-2.7778 -2.7778 -2.7778c -1.5341,-0.0000 -2.7778,1.2437 -2.7778 2.7778c -0.0000,1.5341 1.2437,2.7778 2.7778 2.7778c 1.5341,0.0000 2.7778,-1.2437 2.7778 -2.7778Z"/></g><g stroke-linejoin="miter" stroke-opacity="1.0" fill-opacity="1.0" stroke="rgb(0,0,0)" stroke-width="0.0" fill="rgb(255,0,0)" stroke-linecap="butt" stroke-miterlimit="10.0"><path d="M 411.1111,125.0000 c 0.0000,-1.5341 -1.2437,-2.7778 -2.7778 -2.7778c -1.5341,-0.0000 -2.7778,1.2437 -2.7778 2.7778c -0.0000,1.5341 1.2437,2.7778 2.7778 2.7778c 1.5341,0.0000 2.7778,-1.2437 2.7778 -2.7778Z"/></g><g stroke-linejoin="miter" stroke-opacity="1.0" fill-opacity="0.0" stroke="rgb(0,0,0)" stroke-width="1.104536101718726" fill="rgb(0,0,0)" stroke-linecap="butt" stroke-miterlimit="10.0"><path d="M 197.2222,83.3333 h 45.8909 "/></g><g stroke-linejoin="miter" stroke-opacity="1.0" fill-opacity="1.0" stroke="rgb(0,0,0)" stroke-width="0.0" fill="rgb(0,0,0)" stroke-linecap="butt" stroke-miterlimit="10.0"></g><g stroke-linejoin="miter" stroke-opacity="1.0" fill-opacity="1.0" stroke="rgb(0,0,0)" stroke-width="0.0" fill="rgb(0,0,0)" stroke-linecap="butt" stroke-miterlimit="10.0"></g><g stroke-linejoin="miter" stroke-opacity="1.0" fill-opacity="1.0" stroke="rgb(0,0,0)" stroke-width="0.0" fill="rgb(0,0,0)" stroke-linecap="butt" stroke-miterlimit="10.0"><path d="M 252.7778,83.3333 l -11.3056,-3.6734 l 1.9312,3.6734 l -1.9312,3.6734 Z"/></g><g stroke-linejoin="miter" stroke-opacity="1.0" fill-opacity="1.0" stroke="rgb(0,0,0)" stroke-width="0.0" fill="rgb(0,0,0)" stroke-linecap="butt" stroke-miterlimit="10.0"><path d="M 243.4034,83.3333 h -0.2903 v -0.5523 l 0.2903,0.5523 h -0.2903 v 0.5523 Z"/></g><g stroke-linejoin="miter" stroke-opacity="1.0" fill-opacity="0.0" stroke="rgb(0,0,0)" stroke-width="2.0" fill="rgb(0,0,0)" stroke-linecap="butt" stroke-miterlimit="10.0"><path d="M 16.6667,152.7778 l 0.0000,-143.1131 "/></g><g stroke-linejoin="miter" stroke-opacity="1.0" fill-opacity="1.0" stroke="rgb(0,0,0)" stroke-width="0.0" fill="rgb(0,0,0)" stroke-linecap="butt" stroke-miterlimit="10.0"></g><g stroke-linejoin="miter" stroke-opacity="1.0" fill-opacity="1.0" stroke="rgb(0,0,0)" stroke-width="0.0" fill="rgb(0,0,0)" stroke-linecap="butt" stroke-miterlimit="10.0"></g><g stroke-linejoin="miter" stroke-opacity="1.0" fill-opacity="1.0" stroke="rgb(0,0,0)" stroke-width="0.0" fill="rgb(0,0,0)" stroke-linecap="butt" stroke-miterlimit="10.0"><path d="M 16.6667,0.0000 l -3.5812,11.0217 l 3.5812,-1.8827 l 3.5812,1.8827 Z"/></g><g stroke-linejoin="miter" stroke-opacity="1.0" fill-opacity="1.0" stroke="rgb(0,0,0)" stroke-width="0.0" fill="rgb(0,0,0)" stroke-linecap="butt" stroke-miterlimit="10.0"><path d="M 16.6667,9.1390 l -0.0000,0.5257 l -1.0000,-0.0000 l 1.0000,-0.5257 l -0.0000,0.5257 l 1.0000,0.0000 Z"/></g><g stroke-linejoin="miter" stroke-opacity="1.0" fill-opacity="0.0" stroke="rgb(0,0,0)" stroke-width="2.0" fill="rgb(0,0,0)" stroke-linecap="butt" stroke-miterlimit="10.0"><path d="M 16.6667,152.7778 h 143.1131 "/></g><g stroke-linejoin="miter" stroke-opacity="1.0" fill-opacity="1.0" stroke="rgb(0,0,0)" stroke-width="0.0" fill="rgb(0,0,0)" stroke-linecap="butt" stroke-miterlimit="10.0"></g><g stroke-linejoin="miter" stroke-opacity="1.0" fill-opacity="1.0" stroke="rgb(0,0,0)" stroke-width="0.0" fill="rgb(0,0,0)" stroke-linecap="butt" stroke-miterlimit="10.0"></g><g stroke-linejoin="miter" stroke-opacity="1.0" fill-opacity="1.0" stroke="rgb(0,0,0)" stroke-width="0.0" fill="rgb(0,0,0)" stroke-linecap="butt" stroke-miterlimit="10.0"><path d="M 169.4444,152.7778 l -11.0217,-3.5812 l 1.8827,3.5812 l -1.8827,3.5812 Z"/></g><g stroke-linejoin="miter" stroke-opacity="1.0" fill-opacity="1.0" stroke="rgb(0,0,0)" stroke-width="0.0" fill="rgb(0,0,0)" stroke-linecap="butt" stroke-miterlimit="10.0"><path d="M 160.3055,152.7778 h -0.5257 v -1.0000 l 0.5257,1.0000 h -0.5257 v 1.0000 Z"/></g><g stroke-linejoin="miter" stroke-opacity="1.0" fill-opacity="0.0" stroke="rgb(0,0,0)" stroke-width="2.0" fill="rgb(0,0,0)" stroke-linecap="butt" stroke-miterlimit="10.0"><path d="M 14.5833,13.8889 l 4.1667,0.0000 "/></g><g stroke-linejoin="miter" stroke-opacity="1.0" fill-opacity="0.0" stroke="rgb(0,0,0)" stroke-width="2.0" fill="rgb(0,0,0)" stroke-linecap="butt" stroke-miterlimit="10.0"><path d="M 14.5833,41.6667 l 4.1667,0.0000 "/></g><g stroke-linejoin="miter" stroke-opacity="1.0" fill-opacity="0.0" stroke="rgb(0,0,0)" stroke-width="2.0" fill="rgb(0,0,0)" stroke-linecap="butt" stroke-miterlimit="10.0"><path d="M 14.5833,69.4444 l 4.1667,0.0000 "/></g><g stroke-linejoin="miter" stroke-opacity="1.0" fill-opacity="0.0" stroke="rgb(0,0,0)" stroke-width="2.0" fill="rgb(0,0,0)" stroke-linecap="butt" stroke-miterlimit="10.0"><path d="M 14.5833,97.2222 l 4.1667,0.0000 "/></g><g stroke-linejoin="miter" stroke-opacity="1.0" fill-opacity="0.0" stroke="rgb(0,0,0)" stroke-width="2.0" fill="rgb(0,0,0)" stroke-linecap="butt" stroke-miterlimit="10.0"><path d="M 14.5833,125.0000 l 4.1667,0.0000 "/></g><g stroke-linejoin="miter" stroke-opacity="1.0" fill-opacity="0.0" stroke="rgb(0,0,0)" stroke-width="2.0" fill="rgb(0,0,0)" stroke-linecap="butt" stroke-miterlimit="10.0"><path d="M 155.5556,150.6944 v 4.1667 "/></g><g stroke-linejoin="miter" stroke-opacity="1.0" fill-opacity="0.0" stroke="rgb(0,0,0)" stroke-width="2.0" fill="rgb(0,0,0)" stroke-linecap="butt" stroke-miterlimit="10.0"><path d="M 127.7778,150.6944 v 4.1667 "/></g><g stroke-linejoin="miter" stroke-opacity="1.0" fill-opacity="0.0" stroke="rgb(0,0,0)" stroke-width="2.0" fill="rgb(0,0,0)" stroke-linecap="butt" stroke-miterlimit="10.0"><path d="M 100.0000,150.6944 v 4.1667 "/></g><g stroke-linejoin="miter" stroke-opacity="1.0" fill-opacity="0.0" stroke="rgb(0,0,0)" stroke-width="2.0" fill="rgb(0,0,0)" stroke-linecap="butt" stroke-miterlimit="10.0"><path d="M 72.2222,150.6944 v 4.1667 "/></g><g stroke-linejoin="miter" stroke-opacity="1.0" fill-opacity="0.0" stroke="rgb(0,0,0)" stroke-width="2.0" fill="rgb(0,0,0)" stroke-linecap="butt" stroke-miterlimit="10.0"><path d="M 44.4444,150.6944 v 4.1667 "/></g><g stroke-linejoin="miter" stroke-opacity="1.0" fill-opacity="0.0" stroke="rgb(255,0,0)" stroke-width="1.0" fill="rgb(0,0,0)" stroke-linecap="butt" stroke-miterlimit="10.0"><path d="M 16.6667,125.0000 c 0.9259,0.9126 1.8519,1.8251 2.7778 2.7083c 0.9259,0.8832 1.8519,1.7371 2.7778 2.5694c 0.9259,0.8324 1.8519,1.6433 2.7778 2.4306c 0.9259,0.7873 1.8519,1.5510 2.7778 2.2917c 0.9259,0.7407 1.8519,1.4583 2.7778 2.1528c 0.9259,0.6945 1.8519,1.3657 2.7778 2.0139c 0.9259,0.6481 1.8519,1.2731 2.7778 1.8750c 0.9259,0.6019 1.8519,1.1806 2.7778 1.7361c 0.9259,0.5556 1.8519,1.0880 2.7778 1.5972c 0.9259,0.5093 1.8519,0.9954 2.7778 1.4583c 0.9259,0.4630 1.8519,0.9028 2.7778 1.3194c 0.9259,0.4167 1.8519,0.8102 2.7778 1.1806c 0.9259,0.3704 1.8519,0.7176 2.7778 1.0417c 0.9259,0.3241 1.8519,0.6250 2.7778 0.9028c 0.9259,0.2778 1.8519,0.5324 2.7778 0.7639c 0.9259,0.2315 1.8519,0.4398 2.7778 0.6250c 0.9259,0.1852 1.8519,0.3472 2.7778 0.4861c 0.9259,0.1389 1.8519,0.2546 2.7778 0.3472c 0.9259,0.0926 1.8519,0.1620 2.7778 0.2083c 0.9259,0.0463 1.8519,0.0694 2.7778 0.0694c 0.9259,0.0000 1.8519,-0.0231 2.7778 -0.0694c 0.9259,-0.0463 1.8519,-0.1157 2.7778 -0.2083c 0.9259,-0.0926 1.8519,-0.2083 2.7778 -0.3472c 0.9259,-0.1389 1.8519,-0.3009 2.7778 -0.4861c 0.9259,-0.1852 1.8519,-0.3935 2.7778 -0.6250c 0.9259,-0.2315 1.8519,-0.4861 2.7778 -0.7639c 0.9259,-0.2778 1.8519,-0.5787 2.7778 -0.9028c 0.9259,-0.3241 1.8519,-0.6713 2.7778 -1.0417c 0.9259,-0.3704 1.8519,-0.7639 2.7778 -1.1806c 0.9259,-0.4167 1.8519,-0.8565 2.7778 -1.3194c 0.9259,-0.4630 1.8518,-0.9491 2.7778 -1.4583c 0.9259,-0.5093 1.8519,-1.0417 2.7778 -1.5972c 0.9259,-0.5555 1.8518,-1.1342 2.7778 -1.7361c 0.9260,-0.6019 1.8520,-1.2270 2.7778 -1.8750c 0.9258,-0.6480 1.8513,-1.3188 2.7778 -2.0139c 0.9265,-0.6950 1.8541,-1.4143 2.7778 -2.1528c 0.9237,-0.7385 1.8436,-1.4962 2.7778 -2.2917c 0.9342,-0.7954 1.8827,-1.6286 2.7778 -2.4306c 0.8951,-0.8020 1.7367,-1.5728 2.7778 -2.5694c 1.0411,-0.9967 2.2816,-2.2193 2.7778 -2.7083c 0.4962,-0.4890 0.2481,-0.2445 0.0000 -0.0000"/></g><g stroke-linejoin="miter" stroke-opacity="1.0" fill-opacity="1.0" stroke="rgb(0,0,0)" stroke-width="0.0" fill="rgb(255,0,0)" stroke-linecap="butt" stroke-miterlimit="10.0"><path d="M 19.4444,125.0000 c 0.0000,-1.5341 -1.2437,-2.7778 -2.7778 -2.7778c -1.5341,-0.0000 -2.7778,1.2437 -2.7778 2.7778c -0.0000,1.5341 1.2437,2.7778 2.7778 2.7778c 1.5341,0.0000 2.7778,-1.2437 2.7778 -2.7778Z"/></g><g stroke-linejoin="miter" stroke-opacity="1.0" fill-opacity="1.0" stroke="rgb(0,0,0)" stroke-width="0.0" fill="rgb(255,0,0)" stroke-linecap="butt" stroke-miterlimit="10.0"><path d="M 130.5556,125.0000 c 0.0000,-1.5341 -1.2437,-2.7778 -2.7778 -2.7778c -1.5341,-0.0000 -2.7778,1.2437 -2.7778 2.7778c -0.0000,1.5341 1.2437,2.7778 2.7778 2.7778c 1.5341,0.0000 2.7778,-1.2437 2.7778 -2.7778Z"/></g><g stroke-linejoin="miter" stroke-opacity="1.0" fill-opacity="0.0" stroke="rgb(255,0,0)" stroke-width="1.0" fill="rgb(0,0,0)" stroke-linecap="butt" stroke-miterlimit="10.0"><path d="M 16.6667,121.5278 c 0.9259,0.1363 1.8519,0.2726 2.7778 0.6631c 0.9259,0.3905 1.8519,1.0353 2.7778 1.7361c 0.9259,0.7008 1.8519,1.4576 2.7778 2.1460c 0.9259,0.6884 1.8519,1.3083 2.7778 1.7361c 0.9259,0.4278 1.8519,0.6633 2.7778 0.6631c 0.9259,-0.0002 1.8519,-0.2361 2.7778 -0.6631c 0.9259,-0.4270 1.8519,-1.0451 2.7778 -1.7361c 0.9259,-0.6910 1.8519,-1.4550 2.7778 -2.1460c 0.9259,-0.6910 1.8519,-1.3090 2.7778 -1.7361c 0.9259,-0.4271 1.8519,-0.6631 2.7778 -0.6631c 0.9259,0.0000 1.8518,0.2361 2.7778 0.6631c 0.9259,0.4271 1.8519,1.0451 2.7778 1.7361c 0.9259,0.6910 1.8518,1.4549 2.7778 2.1460c 0.9260,0.6910 1.8520,1.3091 2.7778 1.7361c 0.9258,0.4270 1.8513,0.6630 2.7778 0.6631c 0.9265,0.0001 1.8541,-0.2357 2.7778 -0.6631c 0.9237,-0.4274 1.8436,-1.0465 2.7778 -1.7361c 0.9342,-0.6896 1.8827,-1.4497 2.7778 -2.1460c 0.8951,-0.6962 1.7367,-1.3286 2.7778 -1.7361c 1.0411,-0.4075 2.2816,-0.5901 2.7778 -0.6631c 0.4962,-0.0730 0.2481,-0.0365 -0.0000 -0.0000"/></g><g stroke-linejoin="miter" stroke-opacity="1.0" fill-opacity="1.0" stroke="rgb(0,0,0)" stroke-width="0.0" fill="rgb(255,0,0)" stroke-linecap="butt" stroke-miterlimit="10.0"><path d="M 19.4444,121.5278 c 0.0000,-1.5341 -1.2437,-2.7778 -2.7778 -2.7778c -1.5341,-0.0000 -2.7778,1.2437 -2.7778 2.7778c -0.0000,1.5341 1.2437,2.7778 2.7778 2.7778c 1.5341,0.0000 2.7778,-1.2437 2.7778 -2.7778Z"/></g><g stroke-linejoin="miter" stroke-opacity="1.0" fill-opacity="1.0" stroke="rgb(0,0,0)" stroke-width="0.0" fill="rgb(255,0,0)" stroke-linecap="butt" stroke-miterlimit="10.0"><path d="M 75.0000,121.5278 c 0.0000,-1.5341 -1.2437,-2.7778 -2.7778 -2.7778c -1.5341,-0.0000 -2.7778,1.2437 -2.7778 2.7778c -0.0000,1.5341 1.2437,2.7778 2.7778 2.7778c 1.5341,0.0000 2.7778,-1.2437 2.7778 -2.7778Z"/></g><g stroke-linejoin="miter" stroke-opacity="1.0" fill-opacity="0.0" stroke="rgb(255,0,0)" stroke-width="1.0" fill="rgb(0,0,0)" stroke-linecap="butt" stroke-miterlimit="10.0"><path d="M 16.6667,152.7778 c 0.9259,-0.9259 1.8519,-1.8519 2.7778 -2.7778c 0.9259,-0.9259 1.8519,-1.8519 2.7778 -2.7778c 0.9259,-0.9259 1.8519,-1.8519 2.7778 -2.7778c 0.9259,-0.9259 1.8519,-1.8519 2.7778 -2.7778c 0.9259,-0.9259 1.8519,-1.8519 2.7778 -2.7778c 0.9259,-0.9259 1.8519,-1.8519 2.7778 -2.7778c 0.9259,-0.9259 1.8519,-1.8519 2.7778 -2.7778c 0.9259,-0.9259 1.8519,-1.8519 2.7778 -2.7778c 0.9259,-0.9259 1.8519,-1.8519 2.7778 -2.7778c 0.9259,-0.9259 1.8519,-1.8519 2.7778 -2.7778c 0.9259,-0.9259 1.8519,-1.8519 2.7778 -2.7778c 0.9259,-0.9259 1.8519,-1.8519 2.7778 -2.7778c 0.9259,-0.9259 1.8519,-1.8519 2.7778 -2.7778c 0.9259,-0.9259 1.8519,-1.8519 2.7778 -2.7778c 0.9259,-0.9259 1.8519,-1.8519 2.7778 -2.7778c 0.9259,-0.9259 1.8519,-1.8519 2.7778 -2.7778c 0.9259,-0.9259 1.8519,-1.8519 2.7778 -2.7778c 0.9259,-0.9259 1.8519,-1.8519 2.7778 -2.7778c 0.9259,-0.9259 1.8519,-1.8519 2.7778 -2.7778c 0.9259,-0.9259 1.8519,-1.8519 2.7778 -2.7778c 0.9259,-0.9259 1.8518,-1.8518 2.7778 -2.7778c 0.9259,-0.9259 1.8519,-1.8519 2.7778 -2.7778c 0.9259,-0.9259 1.8518,-1.8518 2.7778 -2.7778c 0.9260,-0.9260 1.8520,-1.8520 2.7778 -2.7778c 0.9258,-0.9258 1.8513,-1.8513 2.7778 -2.7778c 0.9265,-0.9265 1.8541,-1.8541 2.7778 -2.7778c 0.9237,-0.9237 1.8436,-1.8436 2.7778 -2.7778c 0.9342,-0.9342 1.8827,-1.8827 2.7778 -2.7778c 0.8951,-0.8951 1.7367,-1.7367 2.7778 -2.7778c 1.0411,-1.0411 2.2816,-2.2816 2.7778 -2.7778c 0.4962,-0.4962 0.2481,-0.2481 0.0000 -0.0000"/></g><g stroke-linejoin="miter" stroke-opacity="1.0" fill-opacity="1.0" stroke="rgb(0,0,0)" stroke-width="0.0" fill="rgb(255,0,0)" stroke-linecap="butt" stroke-miterlimit="10.0"><path d="M 19.4444,152.7778 c 0.0000,-1.5341 -1.2437,-2.7778 -2.7778 -2.7778c -1.5341,-0.0000 -2.7778,1.2437 -2.7778 2.7778c -0.0000,1.5341 1.2437,2.7778 2.7778 2.7778c 1.5341,0.0000 2.7778,-1.2437 2.7778 -2.7778Z"/></g><g stroke-linejoin="miter" stroke-opacity="1.0" fill-opacity="1.0" stroke="rgb(0,0,0)" stroke-width="0.0" fill="rgb(255,0,0)" stroke-linecap="butt" stroke-miterlimit="10.0"><path d="M 102.7778,69.4444 c 0.0000,-1.5341 -1.2437,-2.7778 -2.7778 -2.7778c -1.5341,-0.0000 -2.7778,1.2437 -2.7778 2.7778c -0.0000,1.5341 1.2437,2.7778 2.7778 2.7778c 1.5341,0.0000 2.7778,-1.2437 2.7778 -2.7778Z"/></g></svg>