<svg xmlns="http://www.w3.org/2000/svg" height="161.1321" stroke-opacity="1" viewBox="0 0 700 161" font-size="1" width="700.0000" xmlns:xlink="http://www.w3.org/1999/xlink" stroke="rgb(0,0,0)" version="1.1"><defs></defs><g stroke-linejoin="miter" stroke-opacity="1.0" fill-opacity="0.0" stroke="rgb(0,0,0)" stroke-width="2.0" fill="rgb(0,0,0)" stroke-linecap="butt" stroke-miterlimit="10.0"><path d="M 552.0755,145.2830 l 0.0000,-133.5284 "/></g><g stroke-linejoin="miter" stroke-opacity="1.0" fill-opacity="1.0" stroke="rgb(0,0,0)" stroke-width="0.0" fill="rgb(0,0,0)" stroke-linecap="butt" stroke-miterlimit="10.0"></g><g stroke-linejoin="miter" stroke-opacity="1.0" fill-opacity="1.0" stroke="rgb(0,0,0)" stroke-width="0.0" fill="rgb(0,0,0)" stroke-linecap="butt" stroke-miterlimit="10.0"></g><g stroke-linejoin="miter" stroke-opacity="1.0" fill-opacity="1.0" stroke="rgb(0,0,0)" stroke-width="0.0" fill="rgb(0,0,0)" stroke-linecap="butt" stroke-miterlimit="10.0"><path d="M 552.0755,0.0000 l -4.4001,13.5421 l 4.4001,-2.3133 l 4.4001,2.3133 Z"/></g><g stroke-linejoin="miter" stroke-opacity="1.0" fill-opacity="1.0" stroke="rgb(0,0,0)" stroke-width="0.0" fill="rgb(0,0,0)" stroke-linecap="butt" stroke-miterlimit="10.0"><path d="M 552.0755,11.2289 l -0.0000,0.5257 l -1.0000,-0.0000 l 1.0000,-0.5257 l -0.0000,0.5257 l 1.0000,0.0000 Z"/></g><g stroke-linejoin="miter" stroke-opacity="1.0" fill-opacity="0.0" stroke="rgb(0,0,0)" stroke-width="2.0" fill="rgb(0,0,0)" stroke-linecap="butt" stroke-miterlimit="10.0"><path d="M 552.0755,145.2830 h 133.5284 "/></g><g stroke-linejoin="miter" stroke-opacity="1.0" fill-opacity="1.0" stroke="rgb(0,0,0)" stroke-width="0.0" fill="rgb(0,0,0)" stroke-linecap="butt" stroke-miterlimit="10.0"></g><g stroke-linejoin="miter" stroke-opacity="1.0" fill-opacity="1.0" stroke="rgb(0,0,0)" stroke-width="0.0" fill="rgb(0,0,0)" stroke-linecap="butt" stroke-miterlimit="10.0"></g><g stroke-linejoin="miter" stroke-opacity="1.0" fill-opacity="1.0" stroke="rgb(0,0,0)" stroke-width="0.0" fill="rgb(0,0,0)" stroke-linecap="butt" stroke-miterlimit="10.0"><path d="M 697.3585,145.2830 l -13.5421,-4.4001 l 2.3133,4.4001 l -2.3133,4.4001 Z"/></g><g stroke-linejoin="miter" stroke-opacity="1.0" fill-opacity="1.0" stroke="rgb(0,0,0)" stroke-width="0.0" fill="rgb(0,0,0)" stroke-linecap="butt" stroke-miterlimit="10.0"><path d="M 686.1296,145.2830 h -0.5257 v -1.0000 l 0.5257,1.0000 h -0.5257 v 1.0000 Z"/></g><g stroke-linejoin="miter" stroke-opacity="1.0" fill-opacity="0.0" stroke="rgb(0,0,0)" stroke-width="2.0" fill="rgb(0,0,0)" stroke-linecap="butt" stroke-miterlimit="10.0"><path d="M 550.0943,13.2075 l 3.9623,0.0000 "/></g><g stroke-linejoin="miter" stroke-opacity="1.0" fill-opacity="0.0" stroke="rgb(0,0,0)" stroke-width="2.0" fill="rgb(0,0,0)" stroke-linecap="butt" stroke-miterlimit="10.0"><path d="M 550.0943,39.6226 l 3.9623,0.0000 "/></g><g stroke-linejoin="miter" stroke-opacity="1.0" fill-opacity="0.0" stroke="rgb(0,0,0)" stroke-width="2.0" fill="rgb(0,0,0)" stroke-linecap="butt" stroke-miterlimit="10.0"><path d="M 550.0943,66.0377 l 3.9623,0.0000 "/></g><g stroke-linejoin="miter" stroke-opacity="1.0" fill-opacity="0.0" stroke="rgb(0,0,0)" stroke-width="2.0" fill="rgb(0,0,0)" stroke-linecap="butt" stroke-miterlimit="10.0"><path d="M 550.0943,92.4528 l 3.9623,0.0000 "/></g><g stroke-linejoin="miter" stroke-opacity="1.0" fill-opacity="0.0" stroke="rgb(0,0,0)" stroke-width="2.0" fill="rgb(0,0,0)" stroke-linecap="butt" stroke-miterlimit="10.0"><path d="M 550.0943,118.8679 l 3.9623,0.0000 "/></g><g stroke-linejoin="miter" stroke-opacity="1.0" fill-opacity="0.0" stroke="rgb(0,0,0)" stroke-width="2.0" fill="rgb(0,0,0)" stroke-linecap="butt" stroke-miterlimit="10.0"><path d="M 684.1509,143.3019 v 3.9623 "/></g><g stroke-linejoin="miter" stroke-opacity="1.0" fill-opacity="0.0" stroke="rgb(0,0,0)" stroke-width="2.0" fill="rgb(0,0,0)" stroke-linecap="butt" stroke-miterlimit="10.0"><path d="M 657.7358,143.3019 v 3.9623 "/></g><g stroke-linejoin="miter" stroke-opacity="1.0" fill-opacity="0.0" stroke="rgb(0,0,0)" stroke-width="2.0" fill="rgb(0,0,0)" stroke-linecap="butt" stroke-miterlimit="10.0"><path d="M 631.3208,143.3019 v 3.9623 "/></g><g stroke-linejoin="miter" stroke-opacity="1.0" fill-opacity="0.0" stroke="rgb(0,0,0)" stroke-width="2.0" fill="rgb(0,0,0)" stroke-linecap="butt" stroke-miterlimit="10.0"><path d="M 604.9057,143.3019 v 3.9623 "/></g><g stroke-linejoin="miter" stroke-opacity="1.0" fill-opacity="0.0" stroke="rgb(0,0,0)" stroke-width="2.0" fill="rgb(0,0,0)" stroke-linecap="butt" stroke-miterlimit="10.0"><path d="M 578.4906,143.3019 v 3.9623 "/></g><g stroke-linejoin="miter" stroke-opacity="1.0" fill-opacity="0.0" stroke="rgb(255,0,0)" stroke-width="1.0" fill="rgb(0,0,0)" stroke-linecap="butt" stroke-miterlimit="10.0"><path d="M 631.3208,118.8679 c 4.3815,-0.0000 8.7629,-0.0000 13.2075 -0.0000c 4.4446,-0.0000 8.9525,-0.0000 13.2075 -0.0000c 4.2551,-0.0000 8.2574,-0.0000 13.2075 -0.0000c 4.9502,-0.0000 10.8483,-0.0000 13.2075 -0.0000c 2.3592,-0.0000 1.1796,-0.0000 0.0000 -0.0000"/></g><g stroke-linejoin="miter" stroke-opacity="1.0" fill-opacity="1.0" stroke="rgb(0,0,0)" stroke-width="0.0" fill="rgb(255,0,0)" stroke-linecap="butt" stroke-miterlimit="10.0"><path d="M 633.9623,118.8679 c 0.0000,-1.4589 -1.1826,-2.6415 -2.6415 -2.6415c -1.4589,-0.0000 -2.6415,1.1826 -2.6415 2.6415c -0.0000,1.4589 1.1826,2.6415 2.6415 2.6415c 1.4589,0.0000 2.6415,-1.1826 2.6415 -2.6415Z"/></g><g stroke-linejoin="miter" stroke-opacity="1.0" fill-opacity="0.0" stroke="rgb(255,0,0)" stroke-width="1.0" fill="rgb(0,0,0)" stroke-linecap="butt" stroke-miterlimit="10.0"><path d="M 604.9057,132.0755 c 4.4025,-0.0000 8.8050,-0.0000 13.2075 -0.0000c 4.4025,-0.0000 8.8050,-0.0000 13.2075 -0.0000"/></g><g stroke-linejoin="miter" stroke-opacity="1.0" fill-opacity="1.0" stroke="rgb(255,0,0)" stroke-width="1.0" fill="rgb(255,255,255)" stroke-linecap="butt" stroke-miterlimit="10.0"><path d="M 633.9623,132.0755 c 0.0000,-1.4589 -1.1826,-2.6415 -2.6415 -2.6415c -1.4589,-0.0000 -2.6415,1.1826 -2.6415 2.6415c -0.0000,1.4589 1.1826,2.6415 2.6415 2.6415c 1.4589,0.0000 2.6415,-1.1826 2.6415 -2.6415Z"/></g><g stroke-linejoin="miter" stroke-opacity="1.0" fill-opacity="1.0" stroke="rgb(255,0,0)" stroke-width="1.0" fill="rgb(255,255,255)" stroke-linecap="butt" stroke-miterlimit="10.0"><path d="M 607.5472,132.0755 c 0.0000,-1.4589 -1.1826,-2.6415 -2.6415 -2.6415c -1.4589,-0.0000 -2.6415,1.1826 -2.6415 2.6415c -0.0000,1.4589 1.1826,2.6415 2.6415 2.6415c 1.4589,0.0000 2.6415,-1.1826 2.6415 -2.6415Z"/></g><g stroke-linejoin="miter" stroke-opacity="1.0" fill-opacity="0.0" stroke="rgb(255,0,0)" stroke-width="1.0" fill="rgb(0,0,0)" stroke-linecap="butt" stroke-miterlimit="10.0"><path d="M 552.0755,145.2830 c 4.3815,-4.3815 8.7629,-8.7629 13.2075 -13.2075c 4.4446,-4.4446 8.9525,-8.9525 13.2075 -13.2075c 4.2551,-4.2551 8.2574,-8.2574 13.2075 -13.2075c 4.9502,-4.9502 10.8483,-10.8483 13.2075 -13.2075c 2.3592,-2.3592 1.1796,-1.1796 0.0000 -0.0000"/></g><g stroke-linejoin="miter" stroke-opacity="1.0" fill-opacity="1.0" stroke="rgb(0,0,0)" stroke-width="0.0" fill="rgb(255,0,0)" stroke-linecap="butt" stroke-miterlimit="10.0"><path d="M 607.5472,92.4528 c 0.0000,-1.4589 -1.1826,-2.6415 -2.6415 -2.6415c -1.4589,-0.0000 -2.6415,1.1826 -2.6415 2.6415c -0.0000,1.4589 1.1826,2.6415 2.6415 2.6415c 1.4589,0.0000 2.6415,-1.1826 2.6415 -2.6415Z"/></g><g stroke-linejoin="miter" stroke-opacity="1.0" fill-opacity="1.0" stroke="rgb(0,0,0)" stroke-width="0.0" fill="rgb(255,0,0)" stroke-linecap="butt" stroke-miterlimit="10.0"><path d="M 554.7170,145.2830 c 0.0000,-1.4589 -1.1826,-2.6415 -2.6415 -2.6415c -1.4589,-0.0000 -2.6415,1.1826 -2.6415 2.6415c -0.0000,1.4589 1.1826,2.6415 2.6415 2.6415c 1.4589,0.0000 2.6415,-1.1826 2.6415 -2.6415Z"/></g><g stroke-linejoin="miter" stroke-opacity="1.0" fill-opacity="1.0" stroke="rgb(0,0,0)" stroke-width="0.0" fill="rgb(255,0,0)" stroke-linecap="butt" stroke-miterlimit="10.0"><path d="M 686.7925,118.8679 c 0.0000,-1.4589 -1.1826,-2.6415 -2.6415 -2.6415c -1.4589,-0.0000 -2.6415,1.1826 -2.6415 2.6415c -0.0000,1.4589 1.1826,2.6415 2.6415 2.6415c 1.4589,0.0000 2.6415,-1.1826 2.6415 -2.6415Z"/></g><g stroke-linejoin="miter" stroke-opacity="1.0" fill-opacity="0.0" stroke="rgb(0,0,0)" stroke-width="1.343383506405754" fill="rgb(0,0,0)" stroke-linecap="butt" stroke-miterlimit="10.0"><path d="M 456.9811,79.2453 h 41.0756 "/></g><g stroke-linejoin="miter" stroke-opacity="1.0" fill-opacity="1.0" stroke="rgb(0,0,0)" stroke-width="0.0" fill="rgb(0,0,0)" stroke-linecap="butt" stroke-miterlimit="10.0"></g><g stroke-linejoin="miter" stroke-opacity="1.0" fill-opacity="1.0" stroke="rgb(0,0,0)" stroke-width="0.0" fill="rgb(0,0,0)" stroke-linecap="butt" stroke-miterlimit="10.0"></g><g stroke-linejoin="miter" stroke-opacity="1.0" fill-opacity="1.0" stroke="rgb(0,0,0)" stroke-width="0.0" fill="rgb(0,0,0)" stroke-linecap="butt" stroke-miterlimit="10.0"><path d="M 509.8113,79.2453 l -13.7503,-4.4677 l 2.3488,4.4677 l -2.3488,4.4677 Z"/></g><g stroke-linejoin="miter" stroke-opacity="1.0" fill-opacity="1.0" stroke="rgb(0,0,0)" stroke-width="0.0" fill="rgb(0,0,0)" stroke-linecap="butt" stroke-miterlimit="10.0"><path d="M 498.4098,79.2453 h -0.3531 v -0.6717 l 0.3531,0.6717 h -0.3531 v 0.6717 Z"/></g><g stroke-linejoin="miter" stroke-opacity="1.0" fill-opacity="0.0" stroke="rgb(0,0,0)" stroke-width="2.0" fill="rgb(0,0,0)" stroke-linecap="butt" stroke-miterlimit="10.0"><path d="M 282.6415,145.2830 l 0.0000,-133.5284 "/></g><g stroke-linejoin="miter" stroke-opacity="1.0" fill-opacity="1.0" stroke="rgb(0,0,0)" stroke-width="0.0" fill="rgb(0,0,0)" stroke-linecap="butt" stroke-miterlimit="10.0"></g><g stroke-linejoin="miter" stroke-opacity="1.0" fill-opacity="1.0" stroke="rgb(0,0,0)" stroke-width="0.0" fill="rgb(0,0,0)" stroke-linecap="butt" stroke-miterlimit="10.0"></g><g stroke-linejoin="miter" stroke-opacity="1.0" fill-opacity="1.0" stroke="rgb(0,0,0)" stroke-width="0.0" fill="rgb(0,0,0)" stroke-linecap="butt" stroke-miterlimit="10.0"><path d="M 282.6415,0.0000 l -4.4001,13.5421 l 4.4001,-2.3133 l 4.4001,2.3133 Z"/></g><g stroke-linejoin="miter" stroke-opacity="1.0" fill-opacity="1.0" stroke="rgb(0,0,0)" stroke-width="0.0" fill="rgb(0,0,0)" stroke-linecap="butt" stroke-miterlimit="10.0"><path d="M 282.6415,11.2289 l -0.0000,0.5257 l -1.0000,-0.0000 l 1.0000,-0.5257 l -0.0000,0.5257 l 1.0000,0.0000 Z"/></g><g stroke-linejoin="miter" stroke-opacity="1.0" fill-opacity="0.0" stroke="rgb(0,0,0)" stroke-width="2.0" fill="rgb(0,0,0)" stroke-linecap="butt" stroke-miterlimit="10.0"><path d="M 282.6415,145.2830 h 133.5284 "/></g><g stroke-linejoin="miter" stroke-opacity="1.0" fill-opacity="1.0" stroke="rgb(0,0,0)" stroke-width="0.0" fill="rgb(0,0,0)" stroke-linecap="butt" stroke-miterlimit="10.0"></g><g stroke-linejoin="miter" stroke-opacity="1.0" fill-opacity="1.0" stroke="rgb(0,0,0)" stroke-width="0.0" fill="rgb(0,0,0)" stroke-linecap="butt" stroke-miterlimit="10.0"></g><g stroke-linejoin="miter" stroke-opacity="1.0" fill-opacity="1.0" stroke="rgb(0,0,0)" stroke-width="0.0" fill="rgb(0,0,0)" stroke-linecap="butt" stroke-miterlimit="10.0"><path d="M 427.9245,145.2830 l -13.5421,-4.4001 l 2.3133,4.4001 l -2.3133,4.4001 Z"/></g><g stroke-linejoin="miter" stroke-opacity="1.0" fill-opacity="1.0" stroke="rgb(0,0,0)" stroke-width="0.0" fill="rgb(0,0,0)" stroke-linecap="butt" stroke-miterlimit="10.0"><path d="M 416.6957,145.2830 h -0.5257 v -1.0000 l 0.5257,1.0000 h -0.5257 v 1.0000 Z"/></g><g stroke-linejoin="miter" stroke-opacity="1.0" fill-opacity="0.0" stroke="rgb(0,0,0)" stroke-width="2.0" fill="rgb(0,0,0)" stroke-linecap="butt" stroke-miterlimit="10.0"><path d="M 280.6604,13.2075 l 3.9623,0.0000 "/></g><g stroke-linejoin="miter" stroke-opacity="1.0" fill-opacity="0.0" stroke="rgb(0,0,0)" stroke-width="2.0" fill="rgb(0,0,0)" stroke-linecap="butt" stroke-miterlimit="10.0"><path d="M 280.6604,39.6226 l 3.9623,0.0000 "/></g><g stroke-linejoin="miter" stroke-opacity="1.0" fill-opacity="0.0" stroke="rgb(0,0,0)" stroke-width="2.0" fill="rgb(0,0,0)" stroke-linecap="butt" stroke-miterlimit="10.0"><path d="M 280.6604,66.0377 l 3.9623,0.0000 "/></g><g stroke-linejoin="miter" stroke-opacity="1.0" fill-opacity="0.0" stroke="rgb(0,0,0)" stroke-width="2.0" fill="rgb(0,0,0)" stroke-linecap="butt" stroke-miterlimit="10.0"><path d="M 280.6604,92.4528 l 3.9623,0.0000 "/></g><g stroke-linejoin="miter" stroke-opacity="1.0" fill-opacity="0.0" stroke="rgb(0,0,0)" stroke-width="2.0" fill="rgb(0,0,0)" stroke-linecap="butt" stroke-miterlimit="10.0"><path d="M 280.6604,118.8679 l 3.9623,0.0000 "/></g><g stroke-linejoin="miter" stroke-opacity="1.0" fill-opacity="0.0" stroke="rgb(0,0,0)" stroke-width="2.0" fill="rgb(0,0,0)" stroke-linecap="butt" stroke-miterlimit="10.0"><path d="M 414.7170,143.3019 v 3.9623 "/></g><g stroke-linejoin="miter" stroke-opacity="1.0" fill-opacity="0.0" stroke="rgb(0,0,0)" stroke-width="2.0" fill="rgb(0,0,0)" stroke-linecap="butt" stroke-miterlimit="10.0"><path d="M 388.3019,143.3019 v 3.9623 "/></g><g stroke-linejoin="miter" stroke-opacity="1.0" fill-opacity="0.0" stroke="rgb(0,0,0)" stroke-width="2.0" fill="rgb(0,0,0)" stroke-linecap="butt" stroke-miterlimit="10.0"><path d="M 361.8868,143.3019 v 3.9623 "/></g><g stroke-linejoin="miter" stroke-opacity="1.0" fill-opacity="0.0" stroke="rgb(0,0,0)" stroke-width="2.0" fill="rgb(0,0,0)" stroke-linecap="butt" stroke-miterlimit="10.0"><path d="M 335.4717,143.3019 v 3.9623 "/></g><g stroke-linejoin="miter" stroke-opacity="1.0" fill-opacity="0.0" stroke="rgb(0,0,0)" stroke-width="2.0" fill="rgb(0,0,0)" stroke-linecap="butt" stroke-miterlimit="10.0"><path d="M 309.0566,143.3019 v 3.9623 "/></g><g stroke-linejoin="miter" stroke-opacity="1.0" fill-opacity="0.0" stroke="rgb(255,0,0)" stroke-width="1.0" fill="rgb(0,0,0)" stroke-linecap="butt" stroke-miterlimit="10.0"><path d="M 282.6415,145.2830 c 4.3815,-4.3815 8.7629,-8.7629 13.2075 -13.2075c 4.4446,-4.4446 8.9525,-8.9525 13.2075 -13.2075c 4.2551,-4.2551 8.2574,-8.2574 13.2075 -13.2075c 4.9502,-4.9502 10.8483,-10.8483 13.2075 -13.2075c 2.3592,-2.3592 1.1796,-1.1796 0.0000 -0.0000"/></g><g stroke-linejoin="miter" stroke-opacity="1.0" fill-opacity="1.0" stroke="rgb(0,0,0)" stroke-width="0.0" fill="rgb(255,0,0)" stroke-linecap="butt" stroke-miterlimit="10.0"><path d="M 285.2830,145.2830 c 0.0000,-1.4589 -1.1826,-2.6415 -2.6415 -2.6415c -1.4589,-0.0000 -2.6415,1.1826 -2.6415 2.6415c -0.0000,1.4589 1.1826,2.6415 2.6415 2.6415c 1.4589,0.0000 2.6415,-1.1826 2.6415 -2.6415Z"/></g><g stroke-linejoin="miter" stroke-opacity="1.0" fill-opacity="1.0" stroke="rgb(0,0,0)" stroke-width="0.0" fill="rgb(255,0,0)" stroke-linecap="butt" stroke-miterlimit="10.0"><path d="M 338.1132,92.4528 c 0.0000,-1.4589 -1.1826,-2.6415 -2.6415 -2.6415c -1.4589,-0.0000 -2.6415,1.1826 -2.6415 2.6415c -0.0000,1.4589 1.1826,2.6415 2.6415 2.6415c 1.4589,0.0000 2.6415,-1.1826 2.6415 -2.6415Z"/></g><g stroke-linejoin="miter" stroke-opacity="1.0" fill-opacity="0.0" stroke="rgb(255,0,0)" stroke-width="1.0" fill="rgb(0,0,0)" stroke-linecap="butt" stroke-miterlimit="10.0"><path d="M 361.8868,118.8679 c 4.3815,-0.0000 8.7629,-0.0000 13.2075 -0.0000c 4.4446,-0.0000 8.9525,-0.0000 13.2075 -0.0000c 4.2551,-0.0000 8.2574,-0.0000 13.2075 -0.0000c 4.9502,-0.0000 10.8483,-0.0000 13.2075 -0.0000c 2.3592,-0.0000 1.1796,-0.0000 0.0000 -0.0000"/></g><g stroke-linejoin="miter" stroke-opacity="1.0" fill-opacity="1.0" stroke="rgb(0,0,0)" stroke-width="0.0" fill="rgb(255,0,0)" stroke-linecap="butt" stroke-miterlimit="10.0"><path d="M 364.5283,118.8679 c 0.0000,-1.4589 -1.1826,-2.6415 -2.6415 -2.6415c -1.4589,-0.0000 -2.6415,1.1826 -2.6415 2.6415c -0.0000,1.4589 1.1826,2.6415 2.6415 2.6415c 1.4589,0.0000 2.6415,-1.1826 2.6415 -2.6415Z"/></g><g stroke-linejoin="miter" stroke-opacity="1.0" fill-opacity="1.0" stroke="rgb(0,0,0)" stroke-width="0.0" fill="rgb(255,0,0)" stroke-linecap="butt" stroke-miterlimit="10.0"><path d="M 417.3585,118.8679 c 0.0000,-1.4589 -1.1826,-2.6415 -2.6415 -2.6415c -1.4589,-0.0000 -2.6415,1.1826 -2.6415 2.6415c -0.0000,1.4589 1.1826,2.6415 2.6415 2.6415c 1.4589,0.0000 2.6415,-1.1826 2.6415 -2.6415Z"/></g><g stroke-linejoin="miter" stroke-opacity="1.0" fill-opacity="0.0" stroke="rgb(0,0,0)" stroke-width="1.343383506405754" fill="rgb(0,0,0)" stroke-linecap="butt" stroke-miterlimit="10.0"><path d="M 187.5472,79.2453 h 41.0756 "/></g><g stroke-linejoin="miter" stroke-opacity="1.0" fill-opacity="1.0" stroke="rgb(0,0,0)" stroke-width="0.0" fill="rgb(0,0,0)" stroke-linecap="butt" stroke-miterlimit="10.0"></g><g stroke-linejoin="miter" stroke-opacity="1.0" fill-opacity="1.0" stroke="rgb(0,0,0)" stroke-width="0.0" fill="rgb(0,0,0)" stroke-linecap="butt" stroke-miterlimit="10.0"></g><g stroke-linejoin="miter" stroke-opacity="1.0" fill-opacity="1.0" stroke="rgb(0,0,0)" stroke-width="0.0" fill="rgb(0,0,0)" stroke-linecap="butt" stroke-miterlimit="10.0"><path d="M 240.3774,79.2453 l -13.7503,-4.4677 l 2.3488,4.4677 l -2.3488,4.4677 Z"/></g><g stroke-linejoin="miter" stroke-opacity="1.0" fill-opacity="1.0" stroke="rgb(0,0,0)" stroke-width="0.0" fill="rgb(0,0,0)" stroke-linecap="butt" stroke-miterlimit="10.0"><path d="M 228.9759,79.2453 h -0.3531 v -0.6717 l 0.3531,0.6717 h -0.3531 v 0.6717 Z"/></g><g stroke-linejoin="miter" stroke-opacity="1.0" fill-opacity="0.0" stroke="rgb(0,0,0)" stroke-width="2.0" fill="rgb(0,0,0)" stroke-linecap="butt" stroke-miterlimit="10.0"><path d="M 15.8491,145.2830 l 0.0000,-133.5284 "/></g><g stroke-linejoin="miter" stroke-opacity="1.0" fill-opacity="1.0" stroke="rgb(0,0,0)" stroke-width="0.0" fill="rgb(0,0,0)" stroke-linecap="butt" stroke-miterlimit="10.0"></g><g stroke-linejoin="miter" stroke-opacity="1.0" fill-opacity="1.0" stroke="rgb(0,0,0)" stroke-width="0.0" fill="rgb(0,0,0)" stroke-linecap="butt" stroke-miterlimit="10.0"></g><g stroke-linejoin="miter" stroke-opacity="1.0" fill-opacity="1.0" stroke="rgb(0,0,0)" stroke-width="0.0" fill="rgb(0,0,0)" stroke-linecap="butt" stroke-miterlimit="10.0"><path d="M 15.8491,0.0000 l -4.4001,13.5421 l 4.4001,-2.3133 l 4.4001,2.3133 Z"/></g><g stroke-linejoin="miter" stroke-opacity="1.0" fill-opacity="1.0" stroke="rgb(0,0,0)" stroke-width="0.0" fill="rgb(0,0,0)" stroke-linecap="butt" stroke-miterlimit="10.0"><path d="M 15.8491,11.2289 l -0.0000,0.5257 l -1.0000,-0.0000 l 1.0000,-0.5257 l -0.0000,0.5257 l 1.0000,0.0000 Z"/></g><g stroke-linejoin="miter" stroke-opacity="1.0" fill-opacity="0.0" stroke="rgb(0,0,0)" stroke-width="2.0" fill="rgb(0,0,0)" stroke-linecap="butt" stroke-miterlimit="10.0"><path d="M 15.8491,145.2830 h 133.5284 "/></g><g stroke-linejoin="miter" stroke-opacity="1.0" fill-opacity="1.0" stroke="rgb(0,0,0)" stroke-width="0.0" fill="rgb(0,0,0)" stroke-linecap="butt" stroke-miterlimit="10.0"></g><g stroke-linejoin="miter" stroke-opacity="1.0" fill-opacity="1.0" stroke="rgb(0,0,0)" stroke-width="0.0" fill="rgb(0,0,0)" stroke-linecap="butt" stroke-miterlimit="10.0"></g><g stroke-linejoin="miter" stroke-opacity="1.0" fill-opacity="1.0" stroke="rgb(0,0,0)" stroke-width="0.0" fill="rgb(0,0,0)" stroke-linecap="butt" stroke-miterlimit="10.0"><path d="M 161.1321,145.2830 l -13.5421,-4.4001 l 2.3133,4.4001 l -2.3133,4.4001 Z"/></g><g stroke-linejoin="miter" stroke-opacity="1.0" fill-opacity="1.0" stroke="rgb(0,0,0)" stroke-width="0.0" fill="rgb(0,0,0)" stroke-linecap="butt" stroke-miterlimit="10.0"><path d="M 149.9032,145.2830 h -0.5257 v -1.0000 l 0.5257,1.0000 h -0.5257 v 1.0000 Z"/></g><g stroke-linejoin="miter" stroke-opacity="1.0" fill-opacity="0.0" stroke="rgb(0,0,0)" stroke-width="2.0" fill="rgb(0,0,0)" stroke-linecap="butt" stroke-miterlimit="10.0"><path d="M 13.8679,13.2075 l 3.9623,0.0000 "/></g><g stroke-linejoin="miter" stroke-opacity="1.0" fill-opacity="0.0" stroke="rgb(0,0,0)" stroke-width="2.0" fill="rgb(0,0,0)" stroke-linecap="butt" stroke-miterlimit="10.0"><path d="M 13.8679,39.6226 l 3.9623,0.0000 "/></g><g stroke-linejoin="miter" stroke-opacity="1.0" fill-opacity="0.0" stroke="rgb(0,0,0)" stroke-width="2.0" fill="rgb(0,0,0)" stroke-linecap="butt" stroke-miterlimit="10.0"><path d="M 13.8679,66.0377 l 3.9623,0.0000 "/></g><g stroke-linejoin="miter" stroke-opacity="1.0" fill-opacity="0.0" stroke="rgb(0,0,0)" stroke-width="2.0" fill="rgb(0,0,0)" stroke-linecap="butt" stroke-miterlimit="10.0"><path d="M 13.8679,92.4528 l 3.9623,0.0000 "/></g><g stroke-linejoin="miter" stroke-opacity="1.0" fill-opacity="0.0" stroke="rgb(0,0,0)" stroke-width="2.0" fill="rgb(0,0,0)" stroke-linecap="butt" stroke-miterlimit="10.0"><path d="M 13.8679,118.8679 l 3.9623,0.0000 "/></g><g stroke-linejoin="miter" stroke-opacity="1.0" fill-opacity="0.0" stroke="rgb(0,0,0)" stroke-width="2.0" fill="rgb(0,0,0)" stroke-linecap="butt" stroke-miterlimit="10.0"><path d="M 147.9245,143.3019 v 3.9623 "/></g><g stroke-linejoin="miter" stroke-opacity="1.0" fill-opacity="0.0" stroke="rgb(0,0,0)" stroke-width="2.0" fill="rgb(0,0,0)" stroke-linecap="butt" stroke-miterlimit="10.0"><path d="M 121.5094,143.3019 v 3.9623 "/></g><g stroke-linejoin="miter" stroke-opacity="1.0" fill-opacity="0.0" stroke="rgb(0,0,0)" stroke-width="2.0" fill="rgb(0,0,0)" stroke-linecap="butt" stroke-miterlimit="10.0"><path d="M 95.0943,143.3019 v 3.9623 "/></g><g stroke-linejoin="miter" stroke-opacity="1.0" fill-opacity="0.0" stroke="rgb(0,0,0)" stroke-width="2.0" fill="rgb(0,0,0)" stroke-linecap="butt" stroke-miterlimit="10.0"><path d="M 68.6792,143.3019 v 3.9623 "/></g><g stroke-linejoin="miter" stroke-opacity="1.0" fill-opacity="0.0" stroke="rgb(0,0,0)" stroke-width="2.0" fill="rgb(0,0,0)" stroke-linecap="butt" stroke-miterlimit="10.0"><path d="M 42.2642,143.3019 v 3.9623 "/></g><g stroke-linejoin="miter" stroke-opacity="1.0" fill-opacity="0.0" stroke="rgb(255,0,0)" stroke-width="1.0" fill="rgb(0,0,0)" stroke-linecap="butt" stroke-miterlimit="10.0"><path d="M 15.8491,118.8679 c 4.3815,-0.0000 8.7629,-0.0000 13.2075 -0.0000c 4.4446,-0.0000 8.9525,-0.0000 13.2075 -0.0000c 4.2551,-0.0000 8.2574,-0.0000 13.2075 -0.0000c 4.9502,-0.0000 10.8483,-0.0000 13.2075 -0.0000c 2.3592,-0.0000 1.1796,-0.0000 0.0000 -0.0000"/></g><g stroke-linejoin="miter" stroke-opacity="1.0" fill-opacity="1.0" stroke="rgb(0,0,0)" stroke-width="0.0" fill="rgb(255,0,0)" stroke-linecap="butt" stroke-miterlimit="10.0"><path d="M 18.4906,118.8679 c 0.0000,-1.4589 -1.1826,-2.6415 -2.6415 -2.6415c -1.4589,-0.0000 -2.6415,1.1826 -2.6415 2.6415c -0.0000,1.4589 1.1826,2.6415 2.6415 2.6415c 1.4589,0.0000 2.6415,-1.1826 2.6415 -2.6415Z"/></g><g stroke-linejoin="miter" stroke-opacity="1.0" fill-opacity="1.0" stroke="rgb(0,0,0)" stroke-width="0.0" fill="rgb(255,0,0)" stroke-linecap="butt" stroke-miterlimit="10.0"><path d="M 71.3208,118.8679 c 0.0000,-1.4589 -1.1826,-2.6415 -2.6415 -2.6415c -1.4589,-0.0000 -2.6415,1.1826 -2.6415 2.6415c -0.0000,1.4589 1.1826,2.6415 2.6415 2.6415c 1.4589,0.0000 2.6415,-1.1826 2.6415 -2.6415Z"/></g><g stroke-linejoin="miter" stroke-opacity="1.0" fill-opacity="0.0" stroke="rgb(255,0,0)" stroke-width="1.0" fill="rgb(0,0,0)" stroke-linecap="butt" stroke-miterlimit="10.0"><path d="M 15.8491,145.2830 c 4.3815,-4.3815 8.7629,-8.7629 13.2075 -13.2075c 4.4446,-4.4446 8.9525,-8.9525 13.2075 -13.2075c 4.2551,-4.2551 8.2574,-8.2574 13.2075 -13.2075c 4.9502,-4.9502 10.8483,-10.8483 13.2075 -13.2075c 2.3592,-2.3592 1.1796,-1.1796 0.0000 -0.0000"/></g><g stroke-linejoin="miter" stroke-opacity="1.0" fill-opacity="1.0" stroke="rgb(0,0,0)" stroke-width="0.0" fill="rgb(255,0,0)" stroke-linecap="butt" stroke-miterlimit="10.0"><path d="M 18.4906,145.2830 c 0.0000,-1.4589 -1.1826,-2.6415 -2.6415 -2.6415c -1.4589,-0.0000 -2.6415,1.1826 -2.6415 2.6415c -0.0000,1.4589 1.1826,2.6415 2.6415 2.6415c 1.4589,0.0000 2.6415,-1.1826 2.6415 -2.6415Z"/></g><g stroke-linejoin="miter" stroke-opacity="1.0" fill-opacity="1.0" stroke="rgb(0,0,0)" stroke-width="0.0" fill="rgb(255,0,0)" stroke-linecap="butt" stroke-miterlimit="10.0"><path d="M 71.3208,92.4528 c 0.0000,-1.4589 -1.1826,-2.6415 -2.6415 -2.6415c -1.4589,-0.0000 -2.6415,1.1826 -2.6415 2.6415c -0.0000,1.4589 1.1826,2.6415 2.6415 2.6415c 1.4589,0.0000 2.6415,-1.1826 2.6415 -2.6415Z"/></g></svg>