<svg xmlns="http://www.w3.org/2000/svg" height="200.0000" stroke-opacity="1" viewBox="0 0 200 200" font-size="1" width="200.0000" xmlns:xlink="http://www.w3.org/1999/xlink" stroke="rgb(0,0,0)" version="1.1"><defs></defs><g stroke-linejoin="miter" stroke-opacity="1.0" fill-opacity="0.0" stroke="rgb(0,0,0)" stroke-width="2.0" fill="rgb(0,0,0)" stroke-linecap="butt" stroke-miterlimit="10.0"><path d="M 19.6721,180.3279 l 0.0000,-173.3279 "/></g><g stroke-linejoin="miter" stroke-opacity="1.0" fill-opacity="1.0" stroke="rgb(0,0,0)" stroke-width="0.0" fill="rgb(0,0,0)" stroke-linecap="butt" stroke-miterlimit="10.0"></g><g stroke-linejoin="miter" stroke-opacity="1.0" fill-opacity="1.0" stroke="rgb(0,0,0)" stroke-width="0.0" fill="rgb(0,0,0)" stroke-linecap="butt" stroke-miterlimit="10.0"></g><g stroke-linejoin="miter" stroke-opacity="1.0" fill-opacity="1.0" stroke="rgb(0,0,0)" stroke-width="0.0" fill="rgb(0,0,0)" stroke-linecap="butt" stroke-miterlimit="10.0"><path d="M 19.6721,0.0000 l -2.5370,7.8080 l 2.5370,-1.3338 l 2.5370,1.3338 Z"/></g><g stroke-linejoin="miter" stroke-opacity="1.0" fill-opacity="1.0" stroke="rgb(0,0,0)" stroke-width="0.0" fill="rgb(0,0,0)" stroke-linecap="butt" stroke-miterlimit="10.0"><path d="M 19.6721,6.4743 l -0.0000,0.5257 l -1.0000,-0.0000 l 1.0000,-0.5257 l -0.0000,0.5257 l 1.0000,0.0000 Z"/></g><g stroke-linejoin="miter" stroke-opacity="1.0" fill-opacity="0.0" stroke="rgb(0,0,0)" stroke-width="2.0" fill="rgb(0,0,0)" stroke-linecap="butt" stroke-miterlimit="10.0"><path d="M 19.6721,180.3279 h 173.3279 "/></g><g stroke-linejoin="miter" stroke-opacity="1.0" fill-opacity="1.0" stroke="rgb(0,0,0)" stroke-width="0.0" fill="rgb(0,0,0)" stroke-linecap="butt" stroke-miterlimit="10.0"></g><g stroke-linejoin="miter" stroke-opacity="1.0" fill-opacity="1.0" stroke="rgb(0,0,0)" stroke-width="0.0" fill="rgb(0,0,0)" stroke-linecap="butt" stroke-miterlimit="10.0"></g><g stroke-linejoin="miter" stroke-opacity="1.0" fill-opacity="1.0" stroke="rgb(0,0,0)" stroke-width="0.0" fill="rgb(0,0,0)" stroke-linecap="butt" stroke-miterlimit="10.0"><path d="M 200.0000,180.3279 l -7.8080,-2.5370 l 1.3338,2.5370 l -1.3338,2.5370 Z"/></g><g stroke-linejoin="miter" stroke-opacity="1.0" fill-opacity="1.0" stroke="rgb(0,0,0)" stroke-width="0.0" fill="rgb(0,0,0)" stroke-linecap="butt" stroke-miterlimit="10.0"><path d="M 193.5257,180.3279 h -0.5257 v -1.0000 l 0.5257,1.0000 h -0.5257 v 1.0000 Z"/></g><g stroke-linejoin="miter" stroke-opacity="1.0" fill-opacity="0.0" stroke="rgb(0,0,0)" stroke-width="2.0" fill="rgb(0,0,0)" stroke-linecap="butt" stroke-miterlimit="10.0"><path d="M 17.2131,16.3934 l 4.9180,0.0000 "/></g><g stroke-linejoin="miter" stroke-opacity="1.0" fill-opacity="0.0" stroke="rgb(0,0,0)" stroke-width="2.0" fill="rgb(0,0,0)" stroke-linecap="butt" stroke-miterlimit="10.0"><path d="M 17.2131,49.1803 l 4.9180,0.0000 "/></g><g stroke-linejoin="miter" stroke-opacity="1.0" fill-opacity="0.0" stroke="rgb(0,0,0)" stroke-width="2.0" fill="rgb(0,0,0)" stroke-linecap="butt" stroke-miterlimit="10.0"><path d="M 17.2131,81.9672 l 4.9180,0.0000 "/></g><g stroke-linejoin="miter" stroke-opacity="1.0" fill-opacity="0.0" stroke="rgb(0,0,0)" stroke-width="2.0" fill="rgb(0,0,0)" stroke-linecap="butt" stroke-miterlimit="10.0"><path d="M 17.2131,114.7541 l 4.9180,0.0000 "/></g><g stroke-linejoin="miter" stroke-opacity="1.0" fill-opacity="0.0" stroke="rgb(0,0,0)" stroke-width="2.0" fill="rgb(0,0,0)" stroke-linecap="butt" stroke-miterlimit="10.0"><path d="M 17.2131,147.5410 l 4.9180,0.0000 "/></g><g stroke-linejoin="miter" stroke-opacity="1.0" fill-opacity="0.0" stroke="rgb(0,0,0)" stroke-width="2.0" fill="rgb(0,0,0)" stroke-linecap="butt" stroke-miterlimit="10.0"><path d="M 183.6066,177.8689 v 4.9180 "/></g><g stroke-linejoin="miter" stroke-opacity="1.0" fill-opacity="0.0" stroke="rgb(0,0,0)" stroke-width="2.0" fill="rgb(0,0,0)" stroke-linecap="butt" stroke-miterlimit="10.0"><path d="M 150.8197,177.8689 v 4.9180 "/></g><g stroke-linejoin="miter" stroke-opacity="1.0" fill-opacity="0.0" stroke="rgb(0,0,0)" stroke-width="2.0" fill="rgb(0,0,0)" stroke-linecap="butt" stroke-miterlimit="10.0"><path d="M 118.0328,177.8689 v 4.9180 "/></g><g stroke-linejoin="miter" stroke-opacity="1.0" fill-opacity="0.0" stroke="rgb(0,0,0)" stroke-width="2.0" fill="rgb(0,0,0)" stroke-linecap="butt" stroke-miterlimit="10.0"><path d="M 85.2459,177.8689 v 4.9180 "/></g><g stroke-linejoin="miter" stroke-opacity="1.0" fill-opacity="0.0" stroke="rgb(0,0,0)" stroke-width="2.0" fill="rgb(0,0,0)" stroke-linecap="butt" stroke-miterlimit="10.0"><path d="M 52.4590,177.8689 v 4.9180 "/></g><g stroke-linejoin="miter" stroke-opacity="1.0" fill-opacity="0.0" stroke="rgb(255,0,0)" stroke-width="1.0" fill="rgb(0,0,0)" stroke-linecap="butt" stroke-miterlimit="10.0"><path d="M 19.6721,180.3279 c 1.0929,-0.0519 2.1858,-0.1039 3.2787 -0.2694c 1.0929,-0.1655 2.1858,-0.4446 3.2787 -0.8053c 1.0929,-0.3607 2.1858,-0.8029 3.2787 -1.3323c 1.0929,-0.5295 2.1858,-1.1463 3.2787 -1.8448c 1.0929,-0.6985 2.1858,-1.4788 3.2787 -2.3371c 1.0929,-0.8583 2.1858,-1.7946 3.2787 -2.8037c 1.0929,-1.0091 2.1858,-2.0909 3.2787 -3.2396c 1.0929,-1.1487 2.1858,-2.3643 3.2787 -3.6400c 1.0929,-1.2758 2.1858,-2.6117 3.2787 -4.0006c 1.0929,-1.3889 2.1858,-2.8306 3.2787 -4.3173c 1.0929,-1.4867 2.1858,-3.0184 3.2787 -4.5867c 1.0929,-1.5683 2.1858,-3.1732 3.2787 -4.8059c 1.0929,-1.6327 2.1858,-3.2932 3.2787 -4.9724c 1.0929,-1.6792 2.1858,-3.3771 3.2787 -5.0844c 1.0929,-1.7073 2.1858,-3.4240 3.2787 -5.1407c 1.0929,-1.7167 2.1858,-3.4334 3.2787 -5.1407c 1.0929,-1.7073 2.1858,-3.4052 3.2787 -5.0844c 1.0929,-1.6792 2.1858,-3.3397 3.2787 -4.9724c 1.0929,-1.6327 2.1858,-3.2376 3.2787 -4.8059c 1.0929,-1.5683 2.1858,-3.1000 3.2787 -4.5867c 1.0929,-1.4867 2.1858,-2.9285 3.2787 -4.3173c 1.0929,-1.3889 2.1858,-2.7248 3.2787 -4.0006c 1.0929,-1.2758 2.1857,-2.4913 3.2787 -3.6400c 1.0929,-1.1487 2.1860,-2.2305 3.2787 -3.2396c 1.0927,-1.0091 2.1851,-1.9454 3.2787 -2.8037c 1.0936,-0.8583 2.1884,-1.6387 3.2787 -2.3371c 1.0903,-0.6984 2.1760,-1.3148 3.2787 -1.8448c 1.1027,-0.5300 2.2222,-0.9734 3.2787 -1.3323c 1.0565,-0.3589 2.0499,-0.6333 3.2787 -0.8053c 1.2288,-0.1720 2.6930,-0.2416 3.2787 -0.2694c 0.5857,-0.0278 0.2928,-0.0139 0.0000 -0.0000"/></g><g stroke-linejoin="miter" stroke-opacity="1.0" fill-opacity="1.0" stroke="rgb(0,0,0)" stroke-width="0.0" fill="rgb(255,0,0)" stroke-linecap="butt" stroke-miterlimit="10.0"><path d="M 22.9508,180.3279 c 0.0000,-1.8108 -1.4679,-3.2787 -3.2787 -3.2787c -1.8108,-0.0000 -3.2787,1.4679 -3.2787 3.2787c -0.0000,1.8108 1.4679,3.2787 3.2787 3.2787c 1.8108,0.0000 3.2787,-1.4679 3.2787 -3.2787Z"/></g><g stroke-linejoin="miter" stroke-opacity="1.0" fill-opacity="1.0" stroke="rgb(0,0,0)" stroke-width="0.0" fill="rgb(255,0,0)" stroke-linecap="butt" stroke-miterlimit="10.0"><path d="M 121.3115,81.9672 c 0.0000,-1.8108 -1.4679,-3.2787 -3.2787 -3.2787c -1.8108,-0.0000 -3.2787,1.4679 -3.2787 3.2787c -0.0000,1.8108 1.4679,3.2787 3.2787 3.2787c 1.8108,0.0000 3.2787,-1.4679 3.2787 -3.2787Z"/></g></svg>