<svg xmlns="http://www.w3.org/2000/svg" height="174.8522" stroke-opacity="1" viewBox="0 0 450 175" font-size="1" width="450.0000" xmlns:xlink="http://www.w3.org/1999/xlink" stroke="rgb(0,0,0)" version="1.1"><defs></defs><g stroke-linejoin="miter" stroke-opacity="1.0" fill-opacity="0.0" stroke="rgb(0,0,0)" stroke-width="2.0" fill="rgb(0,0,0)" stroke-linecap="butt" stroke-miterlimit="10.0"><path d="M 298.1595,151.8405 l 0.0000,-142.0228 "/></g><g stroke-linejoin="miter" stroke-opacity="1.0" fill-opacity="1.0" stroke="rgb(0,0,0)" stroke-width="0.0" fill="rgb(0,0,0)" stroke-linecap="butt" stroke-miterlimit="10.0"></g><g stroke-linejoin="miter" stroke-opacity="1.0" fill-opacity="1.0" stroke="rgb(0,0,0)" stroke-width="0.0" fill="rgb(0,0,0)" stroke-linecap="butt" stroke-miterlimit="10.0"></g><g stroke-linejoin="miter" stroke-opacity="1.0" fill-opacity="1.0" stroke="rgb(0,0,0)" stroke-width="0.0" fill="rgb(0,0,0)" stroke-linecap="butt" stroke-miterlimit="10.0"><path d="M 298.1595,-0.0000 l -3.6411,11.2062 l 3.6411,-1.9143 l 3.6411,1.9143 Z"/></g><g stroke-linejoin="miter" stroke-opacity="1.0" fill-opacity="1.0" stroke="rgb(0,0,0)" stroke-width="0.0" fill="rgb(0,0,0)" stroke-linecap="butt" stroke-miterlimit="10.0"><path d="M 298.1595,9.2920 l -0.0000,0.5257 l -1.0000,-0.0000 l 1.0000,-0.5257 l -0.0000,0.5257 l 1.0000,0.0000 Z"/></g><g stroke-linejoin="miter" stroke-opacity="1.0" fill-opacity="0.0" stroke="rgb(0,0,0)" stroke-width="2.0" fill="rgb(0,0,0)" stroke-linecap="butt" stroke-miterlimit="10.0"><path d="M 298.1595,151.8405 h 142.0228 "/></g><g stroke-linejoin="miter" stroke-opacity="1.0" fill-opacity="1.0" stroke="rgb(0,0,0)" stroke-width="0.0" fill="rgb(0,0,0)" stroke-linecap="butt" stroke-miterlimit="10.0"></g><g stroke-linejoin="miter" stroke-opacity="1.0" fill-opacity="1.0" stroke="rgb(0,0,0)" stroke-width="0.0" fill="rgb(0,0,0)" stroke-linecap="butt" stroke-miterlimit="10.0"></g><g stroke-linejoin="miter" stroke-opacity="1.0" fill-opacity="1.0" stroke="rgb(0,0,0)" stroke-width="0.0" fill="rgb(0,0,0)" stroke-linecap="butt" stroke-miterlimit="10.0"><path d="M 450.0000,151.8405 l -11.2062,-3.6411 l 1.9143,3.6411 l -1.9143,3.6411 Z"/></g><g stroke-linejoin="miter" stroke-opacity="1.0" fill-opacity="1.0" stroke="rgb(0,0,0)" stroke-width="0.0" fill="rgb(0,0,0)" stroke-linecap="butt" stroke-miterlimit="10.0"><path d="M 440.7080,151.8405 h -0.5257 v -1.0000 l 0.5257,1.0000 h -0.5257 v 1.0000 Z"/></g><g stroke-linejoin="miter" stroke-opacity="1.0" fill-opacity="0.0" stroke="rgb(0,0,0)" stroke-width="2.0" fill="rgb(0,0,0)" stroke-linecap="butt" stroke-miterlimit="10.0"><path d="M 296.0890,13.8037 l 4.1411,0.0000 "/></g><g stroke-linejoin="miter" stroke-opacity="1.0" fill-opacity="0.0" stroke="rgb(0,0,0)" stroke-width="2.0" fill="rgb(0,0,0)" stroke-linecap="butt" stroke-miterlimit="10.0"><path d="M 296.0890,41.4110 l 4.1411,0.0000 "/></g><g stroke-linejoin="miter" stroke-opacity="1.0" fill-opacity="0.0" stroke="rgb(0,0,0)" stroke-width="2.0" fill="rgb(0,0,0)" stroke-linecap="butt" stroke-miterlimit="10.0"><path d="M 296.0890,69.0184 l 4.1411,0.0000 "/></g><g stroke-linejoin="miter" stroke-opacity="1.0" fill-opacity="0.0" stroke="rgb(0,0,0)" stroke-width="2.0" fill="rgb(0,0,0)" stroke-linecap="butt" stroke-miterlimit="10.0"><path d="M 296.0890,96.6258 l 4.1411,0.0000 "/></g><g stroke-linejoin="miter" stroke-opacity="1.0" fill-opacity="0.0" stroke="rgb(0,0,0)" stroke-width="2.0" fill="rgb(0,0,0)" stroke-linecap="butt" stroke-miterlimit="10.0"><path d="M 296.0890,124.2331 l 4.1411,0.0000 "/></g><g stroke-linejoin="miter" stroke-opacity="1.0" fill-opacity="0.0" stroke="rgb(0,0,0)" stroke-width="2.0" fill="rgb(0,0,0)" stroke-linecap="butt" stroke-miterlimit="10.0"><path d="M 436.1963,149.7699 v 4.1411 "/></g><g stroke-linejoin="miter" stroke-opacity="1.0" fill-opacity="0.0" stroke="rgb(0,0,0)" stroke-width="2.0" fill="rgb(0,0,0)" stroke-linecap="butt" stroke-miterlimit="10.0"><path d="M 408.5890,149.7699 v 4.1411 "/></g><g stroke-linejoin="miter" stroke-opacity="1.0" fill-opacity="0.0" stroke="rgb(0,0,0)" stroke-width="2.0" fill="rgb(0,0,0)" stroke-linecap="butt" stroke-miterlimit="10.0"><path d="M 380.9816,149.7699 v 4.1411 "/></g><g stroke-linejoin="miter" stroke-opacity="1.0" fill-opacity="0.0" stroke="rgb(0,0,0)" stroke-width="2.0" fill="rgb(0,0,0)" stroke-linecap="butt" stroke-miterlimit="10.0"><path d="M 353.3742,149.7699 v 4.1411 "/></g><g stroke-linejoin="miter" stroke-opacity="1.0" fill-opacity="0.0" stroke="rgb(0,0,0)" stroke-width="2.0" fill="rgb(0,0,0)" stroke-linecap="butt" stroke-miterlimit="10.0"><path d="M 325.7669,149.7699 v 4.1411 "/></g><g stroke-linejoin="miter" stroke-opacity="1.0" fill-opacity="0.0" stroke="rgb(255,0,0)" stroke-width="1.0" fill="rgb(0,0,0)" stroke-linecap="butt" stroke-miterlimit="10.0"><path d="M 298.1595,142.6380 c 0.9202,2.6565 1.8405,5.3130 2.7607 9.2025c 0.9202,3.8894 1.8405,9.0117 2.7607 9.2025c 0.9202,0.1907 1.8405,-4.5501 2.7607 -9.2025c 0.9202,-4.6523 1.8405,-9.2161 2.7607 -9.2025c 0.9202,0.0137 1.8405,4.6049 2.7607 9.2025c 0.9202,4.5976 1.8405,9.2015 2.7607 9.2025c 0.9202,0.0010 1.8405,-4.6010 2.7607 -9.2025c 0.9202,-4.6015 1.8405,-9.2025 2.7607 -9.2025c 0.9202,0.0001 1.8405,4.6012 2.7607 9.2025c 0.9202,4.6012 1.8405,9.2025 2.7607 9.2025c 0.9202,0.0000 1.8405,-4.6012 2.7607 -9.2025c 0.9202,-4.6012 1.8405,-9.2024 2.7607 -9.2025c 0.9202,-0.0000 1.8404,4.6011 2.7607 9.2025c 0.9203,4.6014 1.8406,9.2030 2.7607 9.2025c 0.9201,-0.0005 1.8399,-4.6032 2.7607 -9.2025c 0.9208,-4.5993 1.8427,-9.1951 2.7607 -9.2025c 0.9180,-0.0073 1.8323,4.5738 2.7607 9.2025c 0.9285,4.6286 1.8712,9.3047 2.7607 9.2025c 0.8896,-0.1022 1.7261,-4.9827 2.7607 -9.2025c 1.0347,-4.2198 2.2676,-7.7788 2.7607 -9.2025c 0.4932,-1.4236 0.2466,-0.7118 -0.0000 -0.0000"/></g><g stroke-linejoin="miter" stroke-opacity="1.0" fill-opacity="1.0" stroke="rgb(0,0,0)" stroke-width="0.0" fill="rgb(255,0,0)" stroke-linecap="butt" stroke-miterlimit="10.0"><path d="M 300.9202,142.6380 c 0.0000,-1.5247 -1.2360,-2.7607 -2.7607 -2.7607c -1.5247,-0.0000 -2.7607,1.2360 -2.7607 2.7607c -0.0000,1.5247 1.2360,2.7607 2.7607 2.7607c 1.5247,0.0000 2.7607,-1.2360 2.7607 -2.7607Z"/></g><g stroke-linejoin="miter" stroke-opacity="1.0" fill-opacity="1.0" stroke="rgb(0,0,0)" stroke-width="0.0" fill="rgb(255,0,0)" stroke-linecap="butt" stroke-miterlimit="10.0"><path d="M 356.1350,142.6380 c 0.0000,-1.5247 -1.2360,-2.7607 -2.7607 -2.7607c -1.5247,-0.0000 -2.7607,1.2360 -2.7607 2.7607c -0.0000,1.5247 1.2360,2.7607 2.7607 2.7607c 1.5247,0.0000 2.7607,-1.2360 2.7607 -2.7607Z"/></g><g stroke-linejoin="miter" stroke-opacity="1.0" fill-opacity="0.0" stroke="rgb(0,0,0)" stroke-width="1.1220230852668238" fill="rgb(0,0,0)" stroke-linecap="butt" stroke-miterlimit="10.0"><path d="M 198.7730,82.8221 h 45.3970 "/></g><g stroke-linejoin="miter" stroke-opacity="1.0" fill-opacity="1.0" stroke="rgb(0,0,0)" stroke-width="0.0" fill="rgb(0,0,0)" stroke-linecap="butt" stroke-miterlimit="10.0"></g><g stroke-linejoin="miter" stroke-opacity="1.0" fill-opacity="1.0" stroke="rgb(0,0,0)" stroke-width="0.0" fill="rgb(0,0,0)" stroke-linecap="butt" stroke-miterlimit="10.0"></g><g stroke-linejoin="miter" stroke-opacity="1.0" fill-opacity="1.0" stroke="rgb(0,0,0)" stroke-width="0.0" fill="rgb(0,0,0)" stroke-linecap="butt" stroke-miterlimit="10.0"><path d="M 253.9877,82.8221 l -11.4846,-3.7316 l 1.9618,3.7316 l -1.9618,3.7316 Z"/></g><g stroke-linejoin="miter" stroke-opacity="1.0" fill-opacity="1.0" stroke="rgb(0,0,0)" stroke-width="0.0" fill="rgb(0,0,0)" stroke-linecap="butt" stroke-miterlimit="10.0"><path d="M 244.4650,82.8221 h -0.2949 v -0.5610 l 0.2949,0.5610 h -0.2949 v 0.5610 Z"/></g><g stroke-linejoin="miter" stroke-opacity="1.0" fill-opacity="0.0" stroke="rgb(0,0,0)" stroke-width="2.0" fill="rgb(0,0,0)" stroke-linecap="butt" stroke-miterlimit="10.0"><path d="M 16.5644,151.8405 l 0.0000,-142.0228 "/></g><g stroke-linejoin="miter" stroke-opacity="1.0" fill-opacity="1.0" stroke="rgb(0,0,0)" stroke-width="0.0" fill="rgb(0,0,0)" stroke-linecap="butt" stroke-miterlimit="10.0"></g><g stroke-linejoin="miter" stroke-opacity="1.0" fill-opacity="1.0" stroke="rgb(0,0,0)" stroke-width="0.0" fill="rgb(0,0,0)" stroke-linecap="butt" stroke-miterlimit="10.0"></g><g stroke-linejoin="miter" stroke-opacity="1.0" fill-opacity="1.0" stroke="rgb(0,0,0)" stroke-width="0.0" fill="rgb(0,0,0)" stroke-linecap="butt" stroke-miterlimit="10.0"><path d="M 16.5644,-0.0000 l -3.6411,11.2062 l 3.6411,-1.9143 l 3.6411,1.9143 Z"/></g><g stroke-linejoin="miter" stroke-opacity="1.0" fill-opacity="1.0" stroke="rgb(0,0,0)" stroke-width="0.0" fill="rgb(0,0,0)" stroke-linecap="butt" stroke-miterlimit="10.0"><path d="M 16.5644,9.2920 l -0.0000,0.5257 l -1.0000,-0.0000 l 1.0000,-0.5257 l -0.0000,0.5257 l 1.0000,0.0000 Z"/></g><g stroke-linejoin="miter" stroke-opacity="1.0" fill-opacity="0.0" stroke="rgb(0,0,0)" stroke-width="2.0" fill="rgb(0,0,0)" stroke-linecap="butt" stroke-miterlimit="10.0"><path d="M 16.5644,151.8405 h 142.0228 "/></g><g stroke-linejoin="miter" stroke-opacity="1.0" fill-opacity="1.0" stroke="rgb(0,0,0)" stroke-width="0.0" fill="rgb(0,0,0)" stroke-linecap="butt" stroke-miterlimit="10.0"></g><g stroke-linejoin="miter" stroke-opacity="1.0" fill-opacity="1.0" stroke="rgb(0,0,0)" stroke-width="0.0" fill="rgb(0,0,0)" stroke-linecap="butt" stroke-miterlimit="10.0"></g><g stroke-linejoin="miter" stroke-opacity="1.0" fill-opacity="1.0" stroke="rgb(0,0,0)" stroke-width="0.0" fill="rgb(0,0,0)" stroke-linecap="butt" stroke-miterlimit="10.0"><path d="M 168.4049,151.8405 l -11.2062,-3.6411 l 1.9143,3.6411 l -1.9143,3.6411 Z"/></g><g stroke-linejoin="miter" stroke-opacity="1.0" fill-opacity="1.0" stroke="rgb(0,0,0)" stroke-width="0.0" fill="rgb(0,0,0)" stroke-linecap="butt" stroke-miterlimit="10.0"><path d="M 159.1129,151.8405 h -0.5257 v -1.0000 l 0.5257,1.0000 h -0.5257 v 1.0000 Z"/></g><g stroke-linejoin="miter" stroke-opacity="1.0" fill-opacity="0.0" stroke="rgb(0,0,0)" stroke-width="2.0" fill="rgb(0,0,0)" stroke-linecap="butt" stroke-miterlimit="10.0"><path d="M 14.4939,13.8037 l 4.1411,0.0000 "/></g><g stroke-linejoin="miter" stroke-opacity="1.0" fill-opacity="0.0" stroke="rgb(0,0,0)" stroke-width="2.0" fill="rgb(0,0,0)" stroke-linecap="butt" stroke-miterlimit="10.0"><path d="M 14.4939,41.4110 l 4.1411,0.0000 "/></g><g stroke-linejoin="miter" stroke-opacity="1.0" fill-opacity="0.0" stroke="rgb(0,0,0)" stroke-width="2.0" fill="rgb(0,0,0)" stroke-linecap="butt" stroke-miterlimit="10.0"><path d="M 14.4939,69.0184 l 4.1411,0.0000 "/></g><g stroke-linejoin="miter" stroke-opacity="1.0" fill-opacity="0.0" stroke="rgb(0,0,0)" stroke-width="2.0" fill="rgb(0,0,0)" stroke-linecap="butt" stroke-miterlimit="10.0"><path d="M 14.4939,96.6258 l 4.1411,0.0000 "/></g><g stroke-linejoin="miter" stroke-opacity="1.0" fill-opacity="0.0" stroke="rgb(0,0,0)" stroke-width="2.0" fill="rgb(0,0,0)" stroke-linecap="butt" stroke-miterlimit="10.0"><path d="M 14.4939,124.2331 l 4.1411,0.0000 "/></g><g stroke-linejoin="miter" stroke-opacity="1.0" fill-opacity="0.0" stroke="rgb(0,0,0)" stroke-width="2.0" fill="rgb(0,0,0)" stroke-linecap="butt" stroke-miterlimit="10.0"><path d="M 154.6012,149.7699 v 4.1411 "/></g><g stroke-linejoin="miter" stroke-opacity="1.0" fill-opacity="0.0" stroke="rgb(0,0,0)" stroke-width="2.0" fill="rgb(0,0,0)" stroke-linecap="butt" stroke-miterlimit="10.0"><path d="M 126.9939,149.7699 v 4.1411 "/></g><g stroke-linejoin="miter" stroke-opacity="1.0" fill-opacity="0.0" stroke="rgb(0,0,0)" stroke-width="2.0" fill="rgb(0,0,0)" stroke-linecap="butt" stroke-miterlimit="10.0"><path d="M 99.3865,149.7699 v 4.1411 "/></g><g stroke-linejoin="miter" stroke-opacity="1.0" fill-opacity="0.0" stroke="rgb(0,0,0)" stroke-width="2.0" fill="rgb(0,0,0)" stroke-linecap="butt" stroke-miterlimit="10.0"><path d="M 71.7791,149.7699 v 4.1411 "/></g><g stroke-linejoin="miter" stroke-opacity="1.0" fill-opacity="0.0" stroke="rgb(0,0,0)" stroke-width="2.0" fill="rgb(0,0,0)" stroke-linecap="butt" stroke-miterlimit="10.0"><path d="M 44.1718,149.7699 v 4.1411 "/></g><g stroke-linejoin="miter" stroke-opacity="1.0" fill-opacity="0.0" stroke="rgb(255,0,0)" stroke-width="1.0" fill="rgb(0,0,0)" stroke-linecap="butt" stroke-miterlimit="10.0"><path d="M 16.5644,142.6380 c 0.9202,0.3612 1.8405,0.7225 2.7607 1.7575c 0.9202,1.0351 1.8405,2.7439 2.7607 4.6012c 0.9202,1.8573 1.8405,3.8630 2.7607 5.6874c 0.9202,1.8244 1.8405,3.4675 2.7607 4.6012c 0.9202,1.1337 1.8405,1.7580 2.7607 1.7575c 0.9202,-0.0005 1.8405,-0.6258 2.7607 -1.7575c 0.9202,-1.1317 1.8405,-2.7698 2.7607 -4.6012c 0.9202,-1.8314 1.8405,-3.8561 2.7607 -5.6874c 0.9202,-1.8314 1.8405,-3.4694 2.7607 -4.6012c 0.9202,-1.1318 1.8405,-1.7575 2.7607 -1.7575c 0.9202,0.0000 1.8405,0.6257 2.7607 1.7575c 0.9202,1.1318 1.8405,2.7699 2.7607 4.6012c 0.9202,1.8314 1.8405,3.8561 2.7607 5.6874c 0.9202,1.8314 1.8405,3.4694 2.7607 4.6012c 0.9202,1.1318 1.8405,1.7575 2.7607 1.7575c 0.9202,-0.0000 1.8405,-0.6257 2.7607 -1.7575c 0.9202,-1.1318 1.8405,-2.7699 2.7607 -4.6012c 0.9202,-1.8314 1.8405,-3.8561 2.7607 -5.6874c 0.9202,-1.8314 1.8405,-3.4694 2.7607 -4.6012c 0.9202,-1.1318 1.8405,-1.7575 2.7607 -1.7575c 0.9202,0.0000 1.8405,0.6257 2.7607 1.7575c 0.9202,1.1318 1.8405,2.7699 2.7607 4.6012c 0.9202,1.8314 1.8405,3.8561 2.7607 5.6874c 0.9202,1.8314 1.8405,3.4694 2.7607 4.6012c 0.9202,1.1318 1.8405,1.7575 2.7607 1.7575c 0.9202,-0.0000 1.8405,-0.6257 2.7607 -1.7575c 0.9202,-1.1318 1.8405,-2.7699 2.7607 -4.6012c 0.9202,-1.8314 1.8405,-3.8561 2.7607 -5.6874c 0.9202,-1.8314 1.8405,-3.4694 2.7607 -4.6012c 0.9202,-1.1318 1.8405,-1.7575 2.7607 -1.7575c 0.9202,-0.0000 1.8405,0.6257 2.7607 1.7575c 0.9202,1.1318 1.8405,2.7699 2.7607 4.6012c 0.9202,1.8314 1.8405,3.8561 2.7607 5.6874c 0.9202,1.8314 1.8405,3.4694 2.7607 4.6012c 0.9202,1.1318 1.8405,1.7575 2.7607 1.7575c 0.9202,0.0000 1.8405,-0.6257 2.7607 -1.7575c 0.9202,-1.1318 1.8405,-2.7699 2.7607 -4.6012c 0.9202,-1.8314 1.8405,-3.8561 2.7607 -5.6874c 0.9202,-1.8314 1.8405,-3.4694 2.7607 -4.6012c 0.9202,-1.1318 1.8405,-1.7575 2.7607 -1.7575c 0.9202,-0.0000 1.8405,0.6257 2.7607 1.7575c 0.9202,1.1318 1.8405,2.7699 2.7607 4.6012c 0.9202,1.8314 1.8404,3.8560 2.7607 5.6874c 0.9203,1.8314 1.8406,3.4695 2.7607 4.6012c 0.9201,1.1318 1.8399,1.7572 2.7607 1.7575c 0.9208,0.0003 1.8427,-0.6247 2.7607 -1.7575c 0.9180,-1.1328 1.8323,-2.7736 2.7607 -4.6012c 0.9285,-1.8276 1.8712,-3.8422 2.7607 -5.6874c 0.8896,-1.8453 1.7261,-3.5213 2.7607 -4.6012c 1.0347,-1.0800 2.2676,-1.5639 2.7607 -1.7575c 0.4932,-0.1936 0.2466,-0.0968 0.0000 -0.0000"/></g><g stroke-linejoin="miter" stroke-opacity="1.0" fill-opacity="1.0" stroke="rgb(0,0,0)" stroke-width="0.0" fill="rgb(255,0,0)" stroke-linecap="butt" stroke-miterlimit="10.0"><path d="M 19.3252,142.6380 c 0.0000,-1.5247 -1.2360,-2.7607 -2.7607 -2.7607c -1.5247,-0.0000 -2.7607,1.2360 -2.7607 2.7607c -0.0000,1.5247 1.2360,2.7607 2.7607 2.7607c 1.5247,0.0000 2.7607,-1.2360 2.7607 -2.7607Z"/></g><g stroke-linejoin="miter" stroke-opacity="1.0" fill-opacity="1.0" stroke="rgb(0,0,0)" stroke-width="0.0" fill="rgb(255,0,0)" stroke-linecap="butt" stroke-miterlimit="10.0"><path d="M 157.3620,142.6380 c 0.0000,-1.5247 -1.2360,-2.7607 -2.7607 -2.7607c -1.5247,-0.0000 -2.7607,1.2360 -2.7607 2.7607c -0.0000,1.5247 1.2360,2.7607 2.7607 2.7607c 1.5247,0.0000 2.7607,-1.2360 2.7607 -2.7607Z"/></g><g stroke-linejoin="miter" stroke-opacity="1.0" fill-opacity="0.0" stroke="rgb(255,0,0)" stroke-width="1.0" fill="rgb(0,0,0)" stroke-linecap="butt" stroke-miterlimit="10.0"><path d="M 16.5644,124.2331 c 0.9202,-0.9202 1.8405,-1.8405 2.7607 -2.7607c 0.9202,-0.9202 1.8405,-1.8405 2.7607 -2.7607c 0.9202,-0.9202 1.8405,-1.8405 2.7607 -2.7607c 0.9202,-0.9202 1.8405,-1.8405 2.7607 -2.7607c 0.9202,-0.9202 1.8405,-1.8405 2.7607 -2.7607c 0.9202,-0.9202 1.8405,-1.8405 2.7607 -2.7607c 0.9202,-0.9202 1.8405,-1.8405 2.7607 -2.7607c 0.9202,-0.9202 1.8405,-1.8405 2.7607 -2.7607c 0.9202,-0.9202 1.8405,-1.8405 2.7607 -2.7607c 0.9202,-0.9202 1.8405,-1.8405 2.7607 -2.7607c 0.9202,-0.9202 1.8405,-1.8405 2.7607 -2.7607c 0.9202,-0.9202 1.8405,-1.8405 2.7607 -2.7607c 0.9202,-0.9202 1.8404,-1.8404 2.7607 -2.7607c 0.9203,-0.9203 1.8406,-1.8406 2.7607 -2.7607c 0.9201,-0.9201 1.8399,-1.8399 2.7607 -2.7607c 0.9208,-0.9208 1.8427,-1.8427 2.7607 -2.7607c 0.9180,-0.9180 1.8323,-1.8323 2.7607 -2.7607c 0.9285,-0.9285 1.8712,-1.8712 2.7607 -2.7607c 0.8896,-0.8896 1.7261,-1.7261 2.7607 -2.7607c 1.0347,-1.0347 2.2676,-2.2676 2.7607 -2.7607c 0.4932,-0.4932 0.2466,-0.2466 -0.0000 -0.0000"/></g><g stroke-linejoin="miter" stroke-opacity="1.0" fill-opacity="1.0" stroke="rgb(0,0,0)" stroke-width="0.0" fill="rgb(255,0,0)" stroke-linecap="butt" stroke-miterlimit="10.0"><path d="M 19.3252,124.2331 c 0.0000,-1.5247 -1.2360,-2.7607 -2.7607 -2.7607c -1.5247,-0.0000 -2.7607,1.2360 -2.7607 2.7607c -0.0000,1.5247 1.2360,2.7607 2.7607 2.7607c 1.5247,0.0000 2.7607,-1.2360 2.7607 -2.7607Z"/></g><g stroke-linejoin="miter" stroke-opacity="1.0" fill-opacity="1.0" stroke="rgb(0,0,0)" stroke-width="0.0" fill="rgb(255,0,0)" stroke-linecap="butt" stroke-miterlimit="10.0"><path d="M 74.5399,69.0184 c 0.0000,-1.5247 -1.2360,-2.7607 -2.7607 -2.7607c -1.5247,-0.0000 -2.7607,1.2360 -2.7607 2.7607c -0.0000,1.5247 1.2360,2.7607 2.7607 2.7607c 1.5247,0.0000 2.7607,-1.2360 2.7607 -2.7607Z"/></g></svg>