<svg xmlns="http://www.w3.org/2000/svg" height="212.1577" stroke-opacity="1" viewBox="0 0 200 212" font-size="1" width="200.0000" xmlns:xlink="http://www.w3.org/1999/xlink" stroke="rgb(0,0,0)" version="1.1"><defs></defs><g stroke-linejoin="miter" stroke-opacity="1.0" fill-opacity="0.0" stroke="rgb(0,0,0)" stroke-width="2.0" fill="rgb(0,0,0)" stroke-linecap="butt" stroke-miterlimit="10.0"><path d="M 18.1535,166.4066 l 0.0000,-159.1970 "/></g><g stroke-linejoin="miter" stroke-opacity="1.0" fill-opacity="1.0" stroke="rgb(0,0,0)" stroke-width="0.0" fill="rgb(0,0,0)" stroke-linecap="butt" stroke-miterlimit="10.0"></g><g stroke-linejoin="miter" stroke-opacity="1.0" fill-opacity="1.0" stroke="rgb(0,0,0)" stroke-width="0.0" fill="rgb(0,0,0)" stroke-linecap="butt" stroke-miterlimit="10.0"></g><g stroke-linejoin="miter" stroke-opacity="1.0" fill-opacity="1.0" stroke="rgb(0,0,0)" stroke-width="0.0" fill="rgb(0,0,0)" stroke-linecap="butt" stroke-miterlimit="10.0"><path d="M 18.1535,0.0000 l -2.6191,8.0608 l 2.6191,-1.3770 l 2.6191,1.3770 Z"/></g><g stroke-linejoin="miter" stroke-opacity="1.0" fill-opacity="1.0" stroke="rgb(0,0,0)" stroke-width="0.0" fill="rgb(0,0,0)" stroke-linecap="butt" stroke-miterlimit="10.0"><path d="M 18.1535,6.6839 l -0.0000,0.5257 l -1.0000,-0.0000 l 1.0000,-0.5257 l -0.0000,0.5257 l 1.0000,0.0000 Z"/></g><g stroke-linejoin="miter" stroke-opacity="1.0" fill-opacity="0.0" stroke="rgb(0,0,0)" stroke-width="2.0" fill="rgb(0,0,0)" stroke-linecap="butt" stroke-miterlimit="10.0"><path d="M 18.1535,166.4066 h 159.1970 "/></g><g stroke-linejoin="miter" stroke-opacity="1.0" fill-opacity="1.0" stroke="rgb(0,0,0)" stroke-width="0.0" fill="rgb(0,0,0)" stroke-linecap="butt" stroke-miterlimit="10.0"></g><g stroke-linejoin="miter" stroke-opacity="1.0" fill-opacity="1.0" stroke="rgb(0,0,0)" stroke-width="0.0" fill="rgb(0,0,0)" stroke-linecap="butt" stroke-miterlimit="10.0"></g><g stroke-linejoin="miter" stroke-opacity="1.0" fill-opacity="1.0" stroke="rgb(0,0,0)" stroke-width="0.0" fill="rgb(0,0,0)" stroke-linecap="butt" stroke-miterlimit="10.0"><path d="M 184.5601,166.4066 l -8.0608,-2.6191 l 1.3770,2.6191 l -1.3770,2.6191 Z"/></g><g stroke-linejoin="miter" stroke-opacity="1.0" fill-opacity="1.0" stroke="rgb(0,0,0)" stroke-width="0.0" fill="rgb(0,0,0)" stroke-linecap="butt" stroke-miterlimit="10.0"><path d="M 177.8762,166.4066 h -0.5257 v -1.0000 l 0.5257,1.0000 h -0.5257 v 1.0000 Z"/></g><g stroke-linejoin="miter" stroke-opacity="1.0" fill-opacity="0.0" stroke="rgb(0,0,0)" stroke-width="2.0" fill="rgb(0,0,0)" stroke-linecap="butt" stroke-miterlimit="10.0"><path d="M 15.8843,15.1279 l 4.5384,0.0000 "/></g><g stroke-linejoin="miter" stroke-opacity="1.0" fill-opacity="0.0" stroke="rgb(0,0,0)" stroke-width="2.0" fill="rgb(0,0,0)" stroke-linecap="butt" stroke-miterlimit="10.0"><path d="M 15.8843,45.3836 l 4.5384,0.0000 "/></g><g stroke-linejoin="miter" stroke-opacity="1.0" fill-opacity="0.0" stroke="rgb(0,0,0)" stroke-width="2.0" fill="rgb(0,0,0)" stroke-linecap="butt" stroke-miterlimit="10.0"><path d="M 15.8843,75.6394 l 4.5384,0.0000 "/></g><g stroke-linejoin="miter" stroke-opacity="1.0" fill-opacity="0.0" stroke="rgb(0,0,0)" stroke-width="2.0" fill="rgb(0,0,0)" stroke-linecap="butt" stroke-miterlimit="10.0"><path d="M 15.8843,105.8951 l 4.5384,0.0000 "/></g><g stroke-linejoin="miter" stroke-opacity="1.0" fill-opacity="0.0" stroke="rgb(0,0,0)" stroke-width="2.0" fill="rgb(0,0,0)" stroke-linecap="butt" stroke-miterlimit="10.0"><path d="M 15.8843,136.1509 l 4.5384,0.0000 "/></g><g stroke-linejoin="miter" stroke-opacity="1.0" fill-opacity="0.0" stroke="rgb(0,0,0)" stroke-width="2.0" fill="rgb(0,0,0)" stroke-linecap="butt" stroke-miterlimit="10.0"><path d="M 169.4322,164.1375 v 4.5384 "/></g><g stroke-linejoin="miter" stroke-opacity="1.0" fill-opacity="0.0" stroke="rgb(0,0,0)" stroke-width="2.0" fill="rgb(0,0,0)" stroke-linecap="butt" stroke-miterlimit="10.0"><path d="M 139.1765,164.1375 v 4.5384 "/></g><g stroke-linejoin="miter" stroke-opacity="1.0" fill-opacity="0.0" stroke="rgb(0,0,0)" stroke-width="2.0" fill="rgb(0,0,0)" stroke-linecap="butt" stroke-miterlimit="10.0"><path d="M 108.9207,164.1375 v 4.5384 "/></g><g stroke-linejoin="miter" stroke-opacity="1.0" fill-opacity="0.0" stroke="rgb(0,0,0)" stroke-width="2.0" fill="rgb(0,0,0)" stroke-linecap="butt" stroke-miterlimit="10.0"><path d="M 78.6650,164.1375 v 4.5384 "/></g><g stroke-linejoin="miter" stroke-opacity="1.0" fill-opacity="0.0" stroke="rgb(0,0,0)" stroke-width="2.0" fill="rgb(0,0,0)" stroke-linecap="butt" stroke-miterlimit="10.0"><path d="M 48.4092,164.1375 v 4.5384 "/></g><g stroke-linejoin="miter" stroke-opacity="1.0" fill-opacity="0.0" stroke="rgb(255,0,0)" stroke-width="1.0" fill="rgb(0,0,0)" stroke-linecap="butt" stroke-miterlimit="10.0"><path d="M 18.1535,136.1509 c 1.0085,1.1876 2.0171,2.3753 3.0256 5.7783c 1.0085,3.4030 2.0171,9.0215 3.0256 15.1279c 1.0085,6.1064 2.0171,12.7008 3.0256 18.6991c 1.0085,5.9983 2.0171,11.4005 3.0256 15.1279c 1.0085,3.7274 2.0171,5.7800 3.0256 5.7783c 1.0085,-0.0016 2.0171,-2.0575 3.0256 -5.7783c 1.0085,-3.7208 2.0171,-9.1066 3.0256 -15.1279c 1.0085,-6.0213 2.0171,-12.6780 3.0256 -18.6991c 1.0085,-6.0211 2.0171,-11.4066 3.0256 -15.1279c 1.0085,-3.7213 2.0171,-5.7783 3.0256 -5.7783c 1.0085,0.0000 2.0171,2.0571 3.0256 5.7783c 1.0085,3.7213 2.0171,9.1067 3.0256 15.1279c 1.0085,6.0211 2.0171,12.6779 3.0256 18.6991c 1.0085,6.0211 2.0171,11.4066 3.0256 15.1279c 1.0085,3.7213 2.0171,5.7783 3.0256 5.7783c 1.0085,-0.0000 2.0171,-2.0571 3.0256 -5.7783c 1.0085,-3.7213 2.0171,-9.1067 3.0256 -15.1279c 1.0085,-6.0211 2.0171,-12.6779 3.0256 -18.6991c 1.0085,-6.0211 2.0171,-11.4066 3.0256 -15.1279c 1.0085,-3.7213 2.0171,-5.7783 3.0256 -5.7783c 1.0085,0.0000 2.0171,2.0571 3.0256 5.7783c 1.0085,3.7213 2.0171,9.1067 3.0256 15.1279c 1.0085,6.0211 2.0171,12.6779 3.0256 18.6991c 1.0085,6.0211 2.0171,11.4066 3.0256 15.1279c 1.0085,3.7213 2.0171,5.7783 3.0256 5.7783c 1.0085,-0.0000 2.0171,-2.0571 3.0256 -5.7783c 1.0085,-3.7213 2.0171,-9.1067 3.0256 -15.1279c 1.0085,-6.0211 2.0171,-12.6779 3.0256 -18.6991c 1.0085,-6.0211 2.0171,-11.4066 3.0256 -15.1279c 1.0085,-3.7213 2.0171,-5.7783 3.0256 -5.7783c 1.0085,-0.0000 2.0171,2.0571 3.0256 5.7783c 1.0085,3.7213 2.0171,9.1067 3.0256 15.1279c 1.0085,6.0211 2.0171,12.6779 3.0256 18.6991c 1.0085,6.0211 2.0171,11.4066 3.0256 15.1279c 1.0085,3.7213 2.0171,5.7783 3.0256 5.7783c 1.0085,0.0000 2.0171,-2.0571 3.0256 -5.7783c 1.0085,-3.7213 2.0171,-9.1067 3.0256 -15.1279c 1.0085,-6.0211 2.0171,-12.6779 3.0256 -18.6991c 1.0085,-6.0211 2.0171,-11.4066 3.0256 -15.1279c 1.0085,-3.7213 2.0171,-5.7783 3.0256 -5.7783c 1.0085,-0.0000 2.0171,2.0571 3.0256 5.7783c 1.0085,3.7213 2.0171,9.1067 3.0256 15.1279c 1.0085,6.0211 2.0171,12.6779 3.0256 18.6991c 1.0085,6.0211 2.0170,11.4066 3.0256 15.1279c 1.0085,3.7213 2.0171,5.7783 3.0256 5.7783c 1.0085,0.0000 2.0170,-2.0571 3.0256 -5.7783c 1.0085,-3.7213 2.0171,-9.1068 3.0256 -15.1279c 1.0085,-6.0211 2.0170,-12.6779 3.0256 -18.6991c 1.0086,-6.0212 2.0172,-11.4068 3.0256 -15.1279c 1.0084,-3.7210 2.0164,-5.7775 3.0256 -5.7783c 1.0092,-0.0009 2.0195,2.0538 3.0256 5.7783c 1.0061,3.7245 2.0080,9.1190 3.0256 15.1279c 1.0175,6.0089 2.0507,12.6322 3.0256 18.6991c 0.9749,6.0668 1.8916,11.5771 3.0256 15.1279c 1.1339,3.5507 2.4851,5.1419 3.0256 5.7783c 0.5405,0.6365 0.2702,0.3182 0.0000 -0.0000"/></g><g stroke-linejoin="miter" stroke-opacity="1.0" fill-opacity="1.0" stroke="rgb(0,0,0)" stroke-width="0.0" fill="rgb(255,0,0)" stroke-linecap="butt" stroke-miterlimit="10.0"><path d="M 21.1790,136.1509 c 0.0000,-1.6710 -1.3546,-3.0256 -3.0256 -3.0256c -1.6710,-0.0000 -3.0256,1.3546 -3.0256 3.0256c -0.0000,1.6710 1.3546,3.0256 3.0256 3.0256c 1.6710,0.0000 3.0256,-1.3546 3.0256 -3.0256Z"/></g></svg>