<svg xmlns="http://www.w3.org/2000/svg" height="162.3574" stroke-opacity="1" viewBox="0 0 700 162" font-size="1" width="700.0000" xmlns:xlink="http://www.w3.org/1999/xlink" stroke="rgb(0,0,0)" version="1.1"><defs></defs><g stroke-linejoin="miter" stroke-opacity="1.0" fill-opacity="0.0" stroke="rgb(0,0,0)" stroke-width="2.52840328941337" fill="rgb(0,0,0)" stroke-linecap="butt" stroke-miterlimit="10.0"><path d="M 553.6122,146.3878 l 0.0000,-134.5886 "/></g><g stroke-linejoin="miter" stroke-opacity="1.0" fill-opacity="1.0" stroke="rgb(0,0,0)" stroke-width="0.0" fill="rgb(0,0,0)" stroke-linecap="butt" stroke-miterlimit="10.0"></g><g stroke-linejoin="miter" stroke-opacity="1.0" fill-opacity="1.0" stroke="rgb(0,0,0)" stroke-width="0.0" fill="rgb(0,0,0)" stroke-linecap="butt" stroke-miterlimit="10.0"></g><g stroke-linejoin="miter" stroke-opacity="1.0" fill-opacity="1.0" stroke="rgb(0,0,0)" stroke-width="0.0" fill="rgb(0,0,0)" stroke-linecap="butt" stroke-miterlimit="10.0"><path d="M 553.6122,0.0000 l -4.3632,13.4284 l 4.3632,-2.2939 l 4.3632,2.2939 Z"/></g><g stroke-linejoin="miter" stroke-opacity="1.0" fill-opacity="1.0" stroke="rgb(0,0,0)" stroke-width="0.0" fill="rgb(0,0,0)" stroke-linecap="butt" stroke-miterlimit="10.0"><path d="M 553.6122,11.1346 l -0.0000,0.6646 l -1.2642,-0.0000 l 1.2642,-0.6646 l -0.0000,0.6646 l 1.2642,0.0000 Z"/></g><g stroke-linejoin="miter" stroke-opacity="1.0" fill-opacity="0.0" stroke="rgb(0,0,0)" stroke-width="2.52840328941337" fill="rgb(0,0,0)" stroke-linecap="butt" stroke-miterlimit="10.0"><path d="M 553.6122,146.3878 h 134.5886 "/></g><g stroke-linejoin="miter" stroke-opacity="1.0" fill-opacity="1.0" stroke="rgb(0,0,0)" stroke-width="0.0" fill="rgb(0,0,0)" stroke-linecap="butt" stroke-miterlimit="10.0"></g><g stroke-linejoin="miter" stroke-opacity="1.0" fill-opacity="1.0" stroke="rgb(0,0,0)" stroke-width="0.0" fill="rgb(0,0,0)" stroke-linecap="butt" stroke-miterlimit="10.0"></g><g stroke-linejoin="miter" stroke-opacity="1.0" fill-opacity="1.0" stroke="rgb(0,0,0)" stroke-width="0.0" fill="rgb(0,0,0)" stroke-linecap="butt" stroke-miterlimit="10.0"><path d="M 700.0000,146.3878 l -13.4284,-4.3632 l 2.2939,4.3632 l -2.2939,4.3632 Z"/></g><g stroke-linejoin="miter" stroke-opacity="1.0" fill-opacity="1.0" stroke="rgb(0,0,0)" stroke-width="0.0" fill="rgb(0,0,0)" stroke-linecap="butt" stroke-miterlimit="10.0"><path d="M 688.8654,146.3878 h -0.6646 v -1.2642 l 0.6646,1.2642 h -0.6646 v 1.2642 Z"/></g><g stroke-linejoin="miter" stroke-opacity="1.0" fill-opacity="0.0" stroke="rgb(0,0,0)" stroke-width="2.52840328941337" fill="rgb(0,0,0)" stroke-linecap="butt" stroke-miterlimit="10.0"><path d="M 551.6160,13.3080 l 3.9924,0.0000 "/></g><g stroke-linejoin="miter" stroke-opacity="1.0" fill-opacity="0.0" stroke="rgb(0,0,0)" stroke-width="2.52840328941337" fill="rgb(0,0,0)" stroke-linecap="butt" stroke-miterlimit="10.0"><path d="M 551.6160,39.9240 l 3.9924,0.0000 "/></g><g stroke-linejoin="miter" stroke-opacity="1.0" fill-opacity="0.0" stroke="rgb(0,0,0)" stroke-width="2.52840328941337" fill="rgb(0,0,0)" stroke-linecap="butt" stroke-miterlimit="10.0"><path d="M 551.6160,66.5399 l 3.9924,0.0000 "/></g><g stroke-linejoin="miter" stroke-opacity="1.0" fill-opacity="0.0" stroke="rgb(0,0,0)" stroke-width="2.52840328941337" fill="rgb(0,0,0)" stroke-linecap="butt" stroke-miterlimit="10.0"><path d="M 551.6160,93.1559 l 3.9924,0.0000 "/></g><g stroke-linejoin="miter" stroke-opacity="1.0" fill-opacity="0.0" stroke="rgb(0,0,0)" stroke-width="2.52840328941337" fill="rgb(0,0,0)" stroke-linecap="butt" stroke-miterlimit="10.0"><path d="M 551.6160,119.7719 l 3.9924,0.0000 "/></g><g stroke-linejoin="miter" stroke-opacity="1.0" fill-opacity="0.0" stroke="rgb(0,0,0)" stroke-width="2.52840328941337" fill="rgb(0,0,0)" stroke-linecap="butt" stroke-miterlimit="10.0"><path d="M 686.6920,144.3916 v 3.9924 "/></g><g stroke-linejoin="miter" stroke-opacity="1.0" fill-opacity="0.0" stroke="rgb(0,0,0)" stroke-width="2.52840328941337" fill="rgb(0,0,0)" stroke-linecap="butt" stroke-miterlimit="10.0"><path d="M 660.0760,144.3916 v 3.9924 "/></g><g stroke-linejoin="miter" stroke-opacity="1.0" fill-opacity="0.0" stroke="rgb(0,0,0)" stroke-width="2.52840328941337" fill="rgb(0,0,0)" stroke-linecap="butt" stroke-miterlimit="10.0"><path d="M 633.4601,144.3916 v 3.9924 "/></g><g stroke-linejoin="miter" stroke-opacity="1.0" fill-opacity="0.0" stroke="rgb(0,0,0)" stroke-width="2.52840328941337" fill="rgb(0,0,0)" stroke-linecap="butt" stroke-miterlimit="10.0"><path d="M 606.8441,144.3916 v 3.9924 "/></g><g stroke-linejoin="miter" stroke-opacity="1.0" fill-opacity="0.0" stroke="rgb(0,0,0)" stroke-width="2.52840328941337" fill="rgb(0,0,0)" stroke-linecap="butt" stroke-miterlimit="10.0"><path d="M 580.2281,144.3916 v 3.9924 "/></g><g stroke-linejoin="miter" stroke-opacity="1.0" fill-opacity="0.0" stroke="rgb(255,0,0)" stroke-width="1.3484817543537975" fill="rgb(0,0,0)" stroke-linecap="butt" stroke-miterlimit="10.0"><path d="M 660.0760,131.2161 c 0.8872,-0.6823 1.7744,-1.3645 2.6616 -2.0760c 0.8872,-0.7115 1.7744,-1.4524 2.6616 -2.2091c 0.8872,-0.7567 1.7744,-1.5294 2.6616 -2.3422c 0.8872,-0.8128 1.7744,-1.6658 2.6616 -2.4753c 0.8872,-0.8095 1.7744,-1.5755 2.6616 -2.3415"/></g><g stroke-linejoin="miter" stroke-opacity="1.0" fill-opacity="1.0" stroke="rgb(255,0,0)" stroke-width="1.3484817543537975" fill="rgb(255,255,255)" stroke-linecap="butt" stroke-miterlimit="10.0"><path d="M 662.7376,131.2161 c 0.0000,-1.4700 -1.1916,-2.6616 -2.6616 -2.6616c -1.4700,-0.0000 -2.6616,1.1916 -2.6616 2.6616c -0.0000,1.4700 1.1916,2.6616 2.6616 2.6616c 1.4700,0.0000 2.6616,-1.1916 2.6616 -2.6616Z"/></g><g stroke-linejoin="miter" stroke-opacity="1.0" fill-opacity="0.0" stroke="rgb(255,0,0)" stroke-width="1.3484817543537975" fill="rgb(0,0,0)" stroke-linecap="butt" stroke-miterlimit="10.0"><path d="M 633.4601,114.7207 c 0.8872,-0.0650 1.7744,-0.1300 2.6616 0.0117c 0.8872,0.1417 1.7744,0.4900 2.6616 0.8578c 0.8872,0.3678 1.7744,0.7550 2.6616 1.0407c 0.8872,0.2857 1.7744,0.4700 2.6616 0.4398c 0.8872,-0.0301 1.7744,-0.2746 2.6616 -0.7662c 0.8872,-0.4916 1.7744,-1.2303 2.6616 -2.1676c 0.8872,-0.9373 1.7744,-2.0732 2.6616 -3.2798c 0.8872,-1.2067 1.7744,-2.4841 2.6616 -3.7289c 0.8872,-1.2449 1.7744,-2.4572 2.6616 -3.3942c 0.8872,-0.9370 1.7744,-1.5988 2.6616 -2.2606"/></g><g stroke-linejoin="miter" stroke-opacity="1.0" fill-opacity="1.0" stroke="rgb(0,0,0)" stroke-width="0.0" fill="rgb(255,0,0)" stroke-linecap="butt" stroke-miterlimit="10.0"><path d="M 662.7376,101.4734 c 0.0000,-1.4700 -1.1916,-2.6616 -2.6616 -2.6616c -1.4700,-0.0000 -2.6616,1.1916 -2.6616 2.6616c -0.0000,1.4700 1.1916,2.6616 2.6616 2.6616c 1.4700,0.0000 2.6616,-1.1916 2.6616 -2.6616Z"/></g><g stroke-linejoin="miter" stroke-opacity="1.0" fill-opacity="1.0" stroke="rgb(255,0,0)" stroke-width="1.3484817543537975" fill="rgb(255,255,255)" stroke-linecap="butt" stroke-miterlimit="10.0"><path d="M 636.1217,114.7207 c 0.0000,-1.4700 -1.1916,-2.6616 -2.6616 -2.6616c -1.4700,-0.0000 -2.6616,1.1916 -2.6616 2.6616c -0.0000,1.4700 1.1916,2.6616 2.6616 2.6616c 1.4700,0.0000 2.6616,-1.1916 2.6616 -2.6616Z"/></g><g stroke-linejoin="miter" stroke-opacity="1.0" fill-opacity="0.0" stroke="rgb(255,0,0)" stroke-width="1.3484817543537975" fill="rgb(0,0,0)" stroke-linecap="butt" stroke-miterlimit="10.0"><path d="M 606.8441,61.5494 c 0.8872,-0.5476 1.7744,-1.0952 2.6616 -1.4273c 0.8872,-0.3321 1.7744,-0.4488 2.6616 -0.5323c 0.8872,-0.0836 1.7744,-0.1340 2.6616 -0.2727c 0.8872,-0.1387 1.7746,-0.3656 2.6616 -0.7985c 0.8870,-0.4329 1.7738,-1.0717 2.6616 -1.9597c 0.8878,-0.8880 1.7765,-2.0251 2.6616 -3.3635c 0.8851,-1.3384 1.7665,-2.8780 2.6616 -4.5247c 0.8951,-1.6467 1.8040,-3.4005 2.6616 -5.0505c 0.8576,-1.6500 1.6641,-3.1960 2.6616 -4.7909c 0.9975,-1.5948 2.1861,-3.2384 2.6616 -3.8959c 0.4754,-0.6574 0.2377,-0.3287 0.0000 -0.0000"/></g><g stroke-linejoin="miter" stroke-opacity="1.0" fill-opacity="1.0" stroke="rgb(0,0,0)" stroke-width="0.0" fill="rgb(255,0,0)" stroke-linecap="butt" stroke-miterlimit="10.0"><path d="M 636.1217,34.9335 c 0.0000,-1.4700 -1.1916,-2.6616 -2.6616 -2.6616c -1.4700,-0.0000 -2.6616,1.1916 -2.6616 2.6616c -0.0000,1.4700 1.1916,2.6616 2.6616 2.6616c 1.4700,0.0000 2.6616,-1.1916 2.6616 -2.6616Z"/></g><g stroke-linejoin="miter" stroke-opacity="1.0" fill-opacity="1.0" stroke="rgb(0,0,0)" stroke-width="0.0" fill="rgb(255,0,0)" stroke-linecap="butt" stroke-miterlimit="10.0"><path d="M 609.5057,61.5494 c 0.0000,-1.4700 -1.1916,-2.6616 -2.6616 -2.6616c -1.4700,-0.0000 -2.6616,1.1916 -2.6616 2.6616c -0.0000,1.4700 1.1916,2.6616 2.6616 2.6616c 1.4700,0.0000 2.6616,-1.1916 2.6616 -2.6616Z"/></g><g stroke-linejoin="miter" stroke-opacity="1.0" fill-opacity="0.0" stroke="rgb(255,0,0)" stroke-width="1.3484817543537975" fill="rgb(0,0,0)" stroke-linecap="butt" stroke-miterlimit="10.0"><path d="M 566.9202,106.4639 c 0.8872,-0.0128 1.7744,-0.0256 2.6616 -0.0665c 0.8872,-0.0409 1.7744,-0.1100 2.6616 -0.1996c 0.8872,-0.0896 1.7744,-0.1999 2.6616 -0.3327c 0.8872,-0.1328 1.7744,-0.2883 2.6616 -0.4658c 0.8872,-0.1775 1.7744,-0.3771 2.6616 -0.5989c 0.8872,-0.2218 1.7744,-0.4658 2.6616 -0.7319c 0.8872,-0.2662 1.7744,-0.5545 2.6616 -0.8650c 0.8872,-0.3105 1.7744,-0.6432 2.6616 -0.9981c 0.8872,-0.3549 1.7744,-0.7319 2.6616 -1.1312c 0.8872,-0.3993 1.7744,-0.8208 2.6616 -1.2643c 0.8872,-0.4435 1.7744,-0.9089 2.6616 -1.3973c 0.8872,-0.4885 1.7744,-1.0001 2.6616 -1.5304c 0.8872,-0.5304 1.7744,-1.0795 2.6616 -1.6635c 0.8872,-0.5840 1.7744,-1.2029 2.6616 -1.7966c 0.8872,-0.5937 1.7744,-1.1622 2.6616 -1.7307"/></g><g stroke-linejoin="miter" stroke-opacity="1.0" fill-opacity="1.0" stroke="rgb(255,0,0)" stroke-width="1.3484817543537975" fill="rgb(255,255,255)" stroke-linecap="butt" stroke-miterlimit="10.0"><path d="M 609.5057,91.6913 c 0.0000,-1.4700 -1.1916,-2.6616 -2.6616 -2.6616c -1.4700,-0.0000 -2.6616,1.1916 -2.6616 2.6616c -0.0000,1.4700 1.1916,2.6616 2.6616 2.6616c 1.4700,0.0000 2.6616,-1.1916 2.6616 -2.6616Z"/></g><g stroke-linejoin="miter" stroke-opacity="1.0" fill-opacity="1.0" stroke="rgb(0,0,0)" stroke-width="0.0" fill="rgb(255,0,0)" stroke-linecap="butt" stroke-miterlimit="10.0"><path d="M 569.5817,106.4639 c 0.0000,-1.4700 -1.1916,-2.6616 -2.6616 -2.6616c -1.4700,-0.0000 -2.6616,1.1916 -2.6616 2.6616c -0.0000,1.4700 1.1916,2.6616 2.6616 2.6616c 1.4700,0.0000 2.6616,-1.1916 2.6616 -2.6616Z"/></g><g stroke-linejoin="miter" stroke-opacity="1.0" fill-opacity="0.0" stroke="rgb(255,0,0)" stroke-width="1.3484817543537975" fill="rgb(0,0,0)" stroke-linecap="butt" stroke-miterlimit="10.0"><path d="M 553.6122,146.3878 c 0.8872,-0.8868 1.7744,-1.7735 2.6616 -2.6616c 0.8872,-0.8880 1.7744,-1.7774 2.6616 -2.6616c 0.8872,-0.8842 1.7744,-1.7634 2.6616 -2.6616c 0.8872,-0.8982 1.7744,-1.8156 2.6616 -2.6616c 0.8872,-0.8460 1.7744,-1.6207 2.6616 -2.3954"/></g><g stroke-linejoin="miter" stroke-opacity="1.0" fill-opacity="1.0" stroke="rgb(255,0,0)" stroke-width="1.3484817543537975" fill="rgb(255,255,255)" stroke-linecap="butt" stroke-miterlimit="10.0"><path d="M 569.5817,133.3460 c 0.0000,-1.4700 -1.1916,-2.6616 -2.6616 -2.6616c -1.4700,-0.0000 -2.6616,1.1916 -2.6616 2.6616c -0.0000,1.4700 1.1916,2.6616 2.6616 2.6616c 1.4700,0.0000 2.6616,-1.1916 2.6616 -2.6616Z"/></g><g stroke-linejoin="miter" stroke-opacity="1.0" fill-opacity="1.0" stroke="rgb(0,0,0)" stroke-width="0.0" fill="rgb(255,0,0)" stroke-linecap="butt" stroke-miterlimit="10.0"><path d="M 556.2738,146.3878 c 0.0000,-1.4700 -1.1916,-2.6616 -2.6616 -2.6616c -1.4700,-0.0000 -2.6616,1.1916 -2.6616 2.6616c -0.0000,1.4700 1.1916,2.6616 2.6616 2.6616c 1.4700,0.0000 2.6616,-1.1916 2.6616 -2.6616Z"/></g><g stroke-linejoin="miter" stroke-opacity="1.0" fill-opacity="1.0" stroke="rgb(0,0,0)" stroke-width="0.0" fill="rgb(255,0,0)" stroke-linecap="butt" stroke-miterlimit="10.0"><path d="M 676.0456,119.7719 c 0.0000,-1.4700 -1.1916,-2.6616 -2.6616 -2.6616c -1.4700,-0.0000 -2.6616,1.1916 -2.6616 2.6616c -0.0000,1.4700 1.1916,2.6616 2.6616 2.6616c 1.4700,0.0000 2.6616,-1.1916 2.6616 -2.6616Z"/></g><g stroke-linejoin="miter" stroke-opacity="1.0" fill-opacity="0.0" stroke="rgb(0,0,0)" stroke-width="1.3484817543537975" fill="rgb(0,0,0)" stroke-linecap="butt" stroke-miterlimit="10.0"><path d="M 457.7947,79.8479 h 41.4327 "/></g><g stroke-linejoin="miter" stroke-opacity="1.0" fill-opacity="1.0" stroke="rgb(0,0,0)" stroke-width="0.0" fill="rgb(0,0,0)" stroke-linecap="butt" stroke-miterlimit="10.0"></g><g stroke-linejoin="miter" stroke-opacity="1.0" fill-opacity="1.0" stroke="rgb(0,0,0)" stroke-width="0.0" fill="rgb(0,0,0)" stroke-linecap="butt" stroke-miterlimit="10.0"></g><g stroke-linejoin="miter" stroke-opacity="1.0" fill-opacity="1.0" stroke="rgb(0,0,0)" stroke-width="0.0" fill="rgb(0,0,0)" stroke-linecap="butt" stroke-miterlimit="10.0"><path d="M 511.0266,79.8479 l -13.8025,-4.4847 l 2.3577,4.4847 l -2.3577,4.4847 Z"/></g><g stroke-linejoin="miter" stroke-opacity="1.0" fill-opacity="1.0" stroke="rgb(0,0,0)" stroke-width="0.0" fill="rgb(0,0,0)" stroke-linecap="butt" stroke-miterlimit="10.0"><path d="M 499.5819,79.8479 h -0.3545 v -0.6742 l 0.3545,0.6742 h -0.3545 v 0.6742 Z"/></g><g stroke-linejoin="miter" stroke-opacity="1.0" fill-opacity="0.0" stroke="rgb(0,0,0)" stroke-width="2.52840328941337" fill="rgb(0,0,0)" stroke-linecap="butt" stroke-miterlimit="10.0"><path d="M 284.7909,146.3878 l 0.0000,-134.5886 "/></g><g stroke-linejoin="miter" stroke-opacity="1.0" fill-opacity="1.0" stroke="rgb(0,0,0)" stroke-width="0.0" fill="rgb(0,0,0)" stroke-linecap="butt" stroke-miterlimit="10.0"></g><g stroke-linejoin="miter" stroke-opacity="1.0" fill-opacity="1.0" stroke="rgb(0,0,0)" stroke-width="0.0" fill="rgb(0,0,0)" stroke-linecap="butt" stroke-miterlimit="10.0"></g><g stroke-linejoin="miter" stroke-opacity="1.0" fill-opacity="1.0" stroke="rgb(0,0,0)" stroke-width="0.0" fill="rgb(0,0,0)" stroke-linecap="butt" stroke-miterlimit="10.0"><path d="M 284.7909,0.0000 l -4.3632,13.4284 l 4.3632,-2.2939 l 4.3632,2.2939 Z"/></g><g stroke-linejoin="miter" stroke-opacity="1.0" fill-opacity="1.0" stroke="rgb(0,0,0)" stroke-width="0.0" fill="rgb(0,0,0)" stroke-linecap="butt" stroke-miterlimit="10.0"><path d="M 284.7909,11.1346 l -0.0000,0.6646 l -1.2642,-0.0000 l 1.2642,-0.6646 l -0.0000,0.6646 l 1.2642,0.0000 Z"/></g><g stroke-linejoin="miter" stroke-opacity="1.0" fill-opacity="0.0" stroke="rgb(0,0,0)" stroke-width="2.52840328941337" fill="rgb(0,0,0)" stroke-linecap="butt" stroke-miterlimit="10.0"><path d="M 284.7909,146.3878 h 134.5886 "/></g><g stroke-linejoin="miter" stroke-opacity="1.0" fill-opacity="1.0" stroke="rgb(0,0,0)" stroke-width="0.0" fill="rgb(0,0,0)" stroke-linecap="butt" stroke-miterlimit="10.0"></g><g stroke-linejoin="miter" stroke-opacity="1.0" fill-opacity="1.0" stroke="rgb(0,0,0)" stroke-width="0.0" fill="rgb(0,0,0)" stroke-linecap="butt" stroke-miterlimit="10.0"></g><g stroke-linejoin="miter" stroke-opacity="1.0" fill-opacity="1.0" stroke="rgb(0,0,0)" stroke-width="0.0" fill="rgb(0,0,0)" stroke-linecap="butt" stroke-miterlimit="10.0"><path d="M 431.1787,146.3878 l -13.4284,-4.3632 l 2.2939,4.3632 l -2.2939,4.3632 Z"/></g><g stroke-linejoin="miter" stroke-opacity="1.0" fill-opacity="1.0" stroke="rgb(0,0,0)" stroke-width="0.0" fill="rgb(0,0,0)" stroke-linecap="butt" stroke-miterlimit="10.0"><path d="M 420.0441,146.3878 h -0.6646 v -1.2642 l 0.6646,1.2642 h -0.6646 v 1.2642 Z"/></g><g stroke-linejoin="miter" stroke-opacity="1.0" fill-opacity="0.0" stroke="rgb(0,0,0)" stroke-width="2.52840328941337" fill="rgb(0,0,0)" stroke-linecap="butt" stroke-miterlimit="10.0"><path d="M 282.7947,13.3080 l 3.9924,0.0000 "/></g><g stroke-linejoin="miter" stroke-opacity="1.0" fill-opacity="0.0" stroke="rgb(0,0,0)" stroke-width="2.52840328941337" fill="rgb(0,0,0)" stroke-linecap="butt" stroke-miterlimit="10.0"><path d="M 282.7947,39.9240 l 3.9924,0.0000 "/></g><g stroke-linejoin="miter" stroke-opacity="1.0" fill-opacity="0.0" stroke="rgb(0,0,0)" stroke-width="2.52840328941337" fill="rgb(0,0,0)" stroke-linecap="butt" stroke-miterlimit="10.0"><path d="M 282.7947,66.5399 l 3.9924,0.0000 "/></g><g stroke-linejoin="miter" stroke-opacity="1.0" fill-opacity="0.0" stroke="rgb(0,0,0)" stroke-width="2.52840328941337" fill="rgb(0,0,0)" stroke-linecap="butt" stroke-miterlimit="10.0"><path d="M 282.7947,93.1559 l 3.9924,0.0000 "/></g><g stroke-linejoin="miter" stroke-opacity="1.0" fill-opacity="0.0" stroke="rgb(0,0,0)" stroke-width="2.52840328941337" fill="rgb(0,0,0)" stroke-linecap="butt" stroke-miterlimit="10.0"><path d="M 282.7947,119.7719 l 3.9924,0.0000 "/></g><g stroke-linejoin="miter" stroke-opacity="1.0" fill-opacity="0.0" stroke="rgb(0,0,0)" stroke-width="2.52840328941337" fill="rgb(0,0,0)" stroke-linecap="butt" stroke-miterlimit="10.0"><path d="M 417.8707,144.3916 v 3.9924 "/></g><g stroke-linejoin="miter" stroke-opacity="1.0" fill-opacity="0.0" stroke="rgb(0,0,0)" stroke-width="2.52840328941337" fill="rgb(0,0,0)" stroke-linecap="butt" stroke-miterlimit="10.0"><path d="M 391.2548,144.3916 v 3.9924 "/></g><g stroke-linejoin="miter" stroke-opacity="1.0" fill-opacity="0.0" stroke="rgb(0,0,0)" stroke-width="2.52840328941337" fill="rgb(0,0,0)" stroke-linecap="butt" stroke-miterlimit="10.0"><path d="M 364.6388,144.3916 v 3.9924 "/></g><g stroke-linejoin="miter" stroke-opacity="1.0" fill-opacity="0.0" stroke="rgb(0,0,0)" stroke-width="2.52840328941337" fill="rgb(0,0,0)" stroke-linecap="butt" stroke-miterlimit="10.0"><path d="M 338.0228,144.3916 v 3.9924 "/></g><g stroke-linejoin="miter" stroke-opacity="1.0" fill-opacity="0.0" stroke="rgb(0,0,0)" stroke-width="2.52840328941337" fill="rgb(0,0,0)" stroke-linecap="butt" stroke-miterlimit="10.0"><path d="M 311.4068,144.3916 v 3.9924 "/></g><g stroke-linejoin="miter" stroke-opacity="1.0" fill-opacity="0.0" stroke="rgb(255,0,0)" stroke-width="1.3484817543537975" fill="rgb(0,0,0)" stroke-linecap="butt" stroke-miterlimit="10.0"><path d="M 298.0989,119.7719 c 0.8872,0.8744 1.7744,1.7488 2.6616 2.5951c 0.8872,0.8463 1.7744,1.6644 2.6616 2.4620c 0.8872,0.7976 1.7744,1.5745 2.6616 2.3289c 0.8872,0.7544 1.7744,1.4861 2.6616 2.1958c 0.8872,0.7097 1.7744,1.3973 2.6616 2.0627c 0.8872,0.6654 1.7744,1.3086 2.6616 1.9297c 0.8872,0.6210 1.7744,1.2199 2.6616 1.7966c 0.8872,0.5767 1.7744,1.1312 2.6616 1.6635c 0.8872,0.5323 1.7744,1.0425 2.6616 1.5304c 0.8872,0.4880 1.7744,0.9537 2.6616 1.3973c 0.8872,0.4436 1.7744,0.8650 2.6616 1.2643c 0.8872,0.3992 1.7744,0.7763 2.6616 1.1312c 0.8872,0.3549 1.7744,0.6876 2.6616 0.9981c 0.8872,0.3105 1.7744,0.5989 2.6616 0.8650c 0.8872,0.2662 1.7744,0.5101 2.6616 0.7319c 0.8872,0.2218 1.7744,0.4214 2.6616 0.5989c 0.8872,0.1774 1.7744,0.3327 2.6616 0.4658c 0.8872,0.1331 1.7744,0.2440 2.6616 0.3327c 0.8872,0.0887 1.7744,0.1553 2.6616 0.1996c 0.8872,0.0444 1.7744,0.0665 2.6616 0.0665c 0.8872,0.0000 1.7744,-0.0222 2.6616 -0.0665c 0.8872,-0.0444 1.7744,-0.1109 2.6616 -0.1996c 0.8872,-0.0887 1.7744,-0.1996 2.6616 -0.3327c 0.8872,-0.1331 1.7744,-0.2883 2.6616 -0.4658c 0.8872,-0.1774 1.7744,-0.3771 2.6616 -0.5989c 0.8872,-0.2218 1.7744,-0.4658 2.6616 -0.7319c 0.8872,-0.2662 1.7744,-0.5545 2.6616 -0.8650c 0.8872,-0.3105 1.7744,-0.6432 2.6616 -0.9981c 0.8872,-0.3549 1.7744,-0.7319 2.6616 -1.1312c 0.8872,-0.3992 1.7744,-0.8207 2.6616 -1.2643c 0.8872,-0.4436 1.7744,-0.9094 2.6616 -1.3973c 0.8872,-0.4880 1.7744,-0.9981 2.6616 -1.5304c 0.8872,-0.5323 1.7744,-1.0868 2.6616 -1.6635c 0.8872,-0.5767 1.7746,-1.1757 2.6616 -1.7966c 0.8870,-0.6209 1.7738,-1.2637 2.6616 -1.9297c 0.8878,-0.6660 1.7765,-1.3551 2.6616 -2.0627c 0.8851,-0.7076 1.7665,-1.4336 2.6616 -2.1958c 0.8951,-0.7622 1.8040,-1.5605 2.6616 -2.3289c 0.8576,-0.7684 1.6641,-1.5070 2.6616 -2.4620c 0.9975,-0.9550 2.1861,-2.1265 2.6616 -2.5951c 0.4754,-0.4686 0.2377,-0.2343 0.0000 -0.0000"/></g><g stroke-linejoin="miter" stroke-opacity="1.0" fill-opacity="1.0" stroke="rgb(0,0,0)" stroke-width="0.0" fill="rgb(255,0,0)" stroke-linecap="butt" stroke-miterlimit="10.0"><path d="M 300.7605,119.7719 c 0.0000,-1.4700 -1.1916,-2.6616 -2.6616 -2.6616c -1.4700,-0.0000 -2.6616,1.1916 -2.6616 2.6616c -0.0000,1.4700 1.1916,2.6616 2.6616 2.6616c 1.4700,0.0000 2.6616,-1.1916 2.6616 -2.6616Z"/></g><g stroke-linejoin="miter" stroke-opacity="1.0" fill-opacity="0.0" stroke="rgb(255,0,0)" stroke-width="1.3484817543537975" fill="rgb(0,0,0)" stroke-linecap="butt" stroke-miterlimit="10.0"><path d="M 284.7909,146.3878 c 0.8872,-0.0000 1.7744,-0.0000 2.6616 -0.0000c 0.8872,-0.0000 1.7744,-0.0000 2.6616 -0.0000c 0.8872,-0.0000 1.7744,-0.0000 2.6616 -0.0000c 0.8872,-0.0000 1.7744,-0.0000 2.6616 -0.0000c 0.8872,-0.0000 1.7744,-0.0000 2.6616 -0.0000"/></g><g stroke-linejoin="miter" stroke-opacity="1.0" fill-opacity="1.0" stroke="rgb(255,0,0)" stroke-width="1.3484817543537975" fill="rgb(255,255,255)" stroke-linecap="butt" stroke-miterlimit="10.0"><path d="M 300.7605,146.3878 c 0.0000,-1.4700 -1.1916,-2.6616 -2.6616 -2.6616c -1.4700,-0.0000 -2.6616,1.1916 -2.6616 2.6616c -0.0000,1.4700 1.1916,2.6616 2.6616 2.6616c 1.4700,0.0000 2.6616,-1.1916 2.6616 -2.6616Z"/></g><g stroke-linejoin="miter" stroke-opacity="1.0" fill-opacity="1.0" stroke="rgb(0,0,0)" stroke-width="0.0" fill="rgb(255,0,0)" stroke-linecap="butt" stroke-miterlimit="10.0"><path d="M 287.4525,146.3878 c 0.0000,-1.4700 -1.1916,-2.6616 -2.6616 -2.6616c -1.4700,-0.0000 -2.6616,1.1916 -2.6616 2.6616c -0.0000,1.4700 1.1916,2.6616 2.6616 2.6616c 1.4700,0.0000 2.6616,-1.1916 2.6616 -2.6616Z"/></g><g stroke-linejoin="miter" stroke-opacity="1.0" fill-opacity="1.0" stroke="rgb(0,0,0)" stroke-width="0.0" fill="rgb(255,0,0)" stroke-linecap="butt" stroke-miterlimit="10.0"><path d="M 407.2243,119.7719 c 0.0000,-1.4700 -1.1916,-2.6616 -2.6616 -2.6616c -1.4700,-0.0000 -2.6616,1.1916 -2.6616 2.6616c -0.0000,1.4700 1.1916,2.6616 2.6616 2.6616c 1.4700,0.0000 2.6616,-1.1916 2.6616 -2.6616Z"/></g><g stroke-linejoin="miter" stroke-opacity="1.0" fill-opacity="0.0" stroke="rgb(255,0,0)" stroke-width="1.3484817543537975" fill="rgb(0,0,0)" stroke-linecap="butt" stroke-miterlimit="10.0"><path d="M 338.0228,116.4449 c 0.8872,0.1306 1.7744,0.2612 2.6616 0.6354c 0.8872,0.3742 1.7744,0.9920 2.6616 1.6635c 0.8872,0.6715 1.7744,1.3966 2.6616 2.0562c 0.8872,0.6596 1.7744,1.2536 2.6616 1.6635c 0.8872,0.4099 1.7744,0.6356 2.6616 0.6354c 0.8872,-0.0002 1.7744,-0.2262 2.6616 -0.6354c 0.8872,-0.4092 1.7744,-1.0014 2.6616 -1.6635c 0.8872,-0.6621 1.7744,-1.3941 2.6616 -2.0562c 0.8872,-0.6621 1.7744,-1.2543 2.6616 -1.6635c 0.8872,-0.4092 1.7744,-0.6354 2.6616 -0.6354c 0.8872,0.0000 1.7744,0.2262 2.6616 0.6354c 0.8872,0.4092 1.7744,1.0014 2.6616 1.6635c 0.8872,0.6621 1.7744,1.3941 2.6616 2.0562c 0.8872,0.6621 1.7746,1.2543 2.6616 1.6635c 0.8870,0.4092 1.7738,0.6353 2.6616 0.6354c 0.8878,0.0001 1.7765,-0.2258 2.6616 -0.6354c 0.8851,-0.4096 1.7665,-1.0027 2.6616 -1.6635c 0.8951,-0.6608 1.8040,-1.3891 2.6616 -2.0562c 0.8576,-0.6671 1.6641,-1.2731 2.6616 -1.6635c 0.9975,-0.3904 2.1861,-0.5654 2.6616 -0.6354c 0.4754,-0.0700 0.2377,-0.0350 0.0000 -0.0000"/></g><g stroke-linejoin="miter" stroke-opacity="1.0" fill-opacity="1.0" stroke="rgb(0,0,0)" stroke-width="0.0" fill="rgb(255,0,0)" stroke-linecap="butt" stroke-miterlimit="10.0"><path d="M 340.6844,116.4449 c 0.0000,-1.4700 -1.1916,-2.6616 -2.6616 -2.6616c -1.4700,-0.0000 -2.6616,1.1916 -2.6616 2.6616c -0.0000,1.4700 1.1916,2.6616 2.6616 2.6616c 1.4700,0.0000 2.6616,-1.1916 2.6616 -2.6616Z"/></g><g stroke-linejoin="miter" stroke-opacity="1.0" fill-opacity="0.0" stroke="rgb(255,0,0)" stroke-width="1.3484817543537975" fill="rgb(0,0,0)" stroke-linecap="butt" stroke-miterlimit="10.0"><path d="M 284.7909,146.3878 c 0.8872,-0.0000 1.7744,-0.0000 2.6616 -0.0000c 0.8872,-0.0000 1.7744,-0.0000 2.6616 -0.0000c 0.8872,-0.0000 1.7744,-0.0000 2.6616 -0.0000c 0.8872,-0.0000 1.7744,-0.0000 2.6616 -0.0000c 0.8872,-0.0000 1.7744,-0.0000 2.6616 -0.0000c 0.8872,-0.0000 1.7744,-0.0000 2.6616 -0.0000c 0.8872,-0.0000 1.7744,-0.0000 2.6616 -0.0000c 0.8872,-0.0000 1.7744,-0.0000 2.6616 -0.0000c 0.8872,-0.0000 1.7744,-0.0000 2.6616 -0.0000c 0.8872,-0.0000 1.7744,-0.0000 2.6616 -0.0000c 0.8872,-0.0000 1.7744,-0.0000 2.6616 -0.0000c 0.8872,-0.0000 1.7744,-0.0000 2.6616 -0.0000c 0.8872,-0.0000 1.7744,-0.0000 2.6616 -0.0000c 0.8872,-0.0000 1.7744,-0.0000 2.6616 -0.0000c 0.8872,-0.0000 1.7744,-0.0000 2.6616 -0.0000c 0.8872,-0.0000 1.7744,-0.0000 2.6616 -0.0000c 0.8872,-0.0000 1.7744,-0.0000 2.6616 -0.0000c 0.8872,-0.0000 1.7744,-0.0000 2.6616 -0.0000c 0.8872,-0.0000 1.7744,-0.0000 2.6616 -0.0000c 0.8872,-0.0000 1.7744,-0.0000 2.6616 -0.0000"/></g><g stroke-linejoin="miter" stroke-opacity="1.0" fill-opacity="1.0" stroke="rgb(255,0,0)" stroke-width="1.3484817543537975" fill="rgb(255,255,255)" stroke-linecap="butt" stroke-miterlimit="10.0"><path d="M 340.6844,146.3878 c 0.0000,-1.4700 -1.1916,-2.6616 -2.6616 -2.6616c -1.4700,-0.0000 -2.6616,1.1916 -2.6616 2.6616c -0.0000,1.4700 1.1916,2.6616 2.6616 2.6616c 1.4700,0.0000 2.6616,-1.1916 2.6616 -2.6616Z"/></g><g stroke-linejoin="miter" stroke-opacity="1.0" fill-opacity="1.0" stroke="rgb(0,0,0)" stroke-width="0.0" fill="rgb(255,0,0)" stroke-linecap="butt" stroke-miterlimit="10.0"><path d="M 287.4525,146.3878 c 0.0000,-1.4700 -1.1916,-2.6616 -2.6616 -2.6616c -1.4700,-0.0000 -2.6616,1.1916 -2.6616 2.6616c -0.0000,1.4700 1.1916,2.6616 2.6616 2.6616c 1.4700,0.0000 2.6616,-1.1916 2.6616 -2.6616Z"/></g><g stroke-linejoin="miter" stroke-opacity="1.0" fill-opacity="1.0" stroke="rgb(0,0,0)" stroke-width="0.0" fill="rgb(255,0,0)" stroke-linecap="butt" stroke-miterlimit="10.0"><path d="M 393.9163,116.4449 c 0.0000,-1.4700 -1.1916,-2.6616 -2.6616 -2.6616c -1.4700,-0.0000 -2.6616,1.1916 -2.6616 2.6616c -0.0000,1.4700 1.1916,2.6616 2.6616 2.6616c 1.4700,0.0000 2.6616,-1.1916 2.6616 -2.6616Z"/></g><g stroke-linejoin="miter" stroke-opacity="1.0" fill-opacity="0.0" stroke="rgb(255,0,0)" stroke-width="1.3484817543537975" fill="rgb(0,0,0)" stroke-linecap="butt" stroke-miterlimit="10.0"><path d="M 284.7909,146.3878 c 0.8872,-0.8872 1.7744,-1.7744 2.6616 -2.6616c 0.8872,-0.8872 1.7744,-1.7744 2.6616 -2.6616c 0.8872,-0.8872 1.7744,-1.7744 2.6616 -2.6616c 0.8872,-0.8872 1.7744,-1.7744 2.6616 -2.6616c 0.8872,-0.8872 1.7744,-1.7744 2.6616 -2.6616c 0.8872,-0.8872 1.7744,-1.7744 2.6616 -2.6616c 0.8872,-0.8872 1.7744,-1.7744 2.6616 -2.6616c 0.8872,-0.8872 1.7744,-1.7744 2.6616 -2.6616c 0.8872,-0.8872 1.7744,-1.7744 2.6616 -2.6616c 0.8872,-0.8872 1.7744,-1.7744 2.6616 -2.6616c 0.8872,-0.8872 1.7744,-1.7744 2.6616 -2.6616c 0.8872,-0.8872 1.7744,-1.7744 2.6616 -2.6616c 0.8872,-0.8872 1.7744,-1.7744 2.6616 -2.6616c 0.8872,-0.8872 1.7744,-1.7744 2.6616 -2.6616c 0.8872,-0.8872 1.7744,-1.7744 2.6616 -2.6616c 0.8872,-0.8872 1.7744,-1.7744 2.6616 -2.6616c 0.8872,-0.8872 1.7744,-1.7744 2.6616 -2.6616c 0.8872,-0.8872 1.7744,-1.7744 2.6616 -2.6616c 0.8872,-0.8872 1.7744,-1.7744 2.6616 -2.6616c 0.8872,-0.8872 1.7744,-1.7744 2.6616 -2.6616c 0.8872,-0.8872 1.7744,-1.7744 2.6616 -2.6616c 0.8872,-0.8872 1.7744,-1.7744 2.6616 -2.6616c 0.8872,-0.8872 1.7744,-1.7744 2.6616 -2.6616c 0.8872,-0.8872 1.7746,-1.7746 2.6616 -2.6616c 0.8870,-0.8870 1.7738,-1.7738 2.6616 -2.6616c 0.8878,-0.8878 1.7765,-1.7765 2.6616 -2.6616c 0.8851,-0.8851 1.7665,-1.7665 2.6616 -2.6616c 0.8951,-0.8951 1.8040,-1.8040 2.6616 -2.6616c 0.8576,-0.8576 1.6641,-1.6641 2.6616 -2.6616c 0.9975,-0.9975 2.1861,-2.1861 2.6616 -2.6616c 0.4754,-0.4754 0.2377,-0.2377 0.0000 -0.0000"/></g><g stroke-linejoin="miter" stroke-opacity="1.0" fill-opacity="1.0" stroke="rgb(0,0,0)" stroke-width="0.0" fill="rgb(255,0,0)" stroke-linecap="butt" stroke-miterlimit="10.0"><path d="M 287.4525,146.3878 c 0.0000,-1.4700 -1.1916,-2.6616 -2.6616 -2.6616c -1.4700,-0.0000 -2.6616,1.1916 -2.6616 2.6616c -0.0000,1.4700 1.1916,2.6616 2.6616 2.6616c 1.4700,0.0000 2.6616,-1.1916 2.6616 -2.6616Z"/></g><g stroke-linejoin="miter" stroke-opacity="1.0" fill-opacity="1.0" stroke="rgb(0,0,0)" stroke-width="0.0" fill="rgb(255,0,0)" stroke-linecap="butt" stroke-miterlimit="10.0"><path d="M 367.3004,66.5399 c 0.0000,-1.4700 -1.1916,-2.6616 -2.6616 -2.6616c -1.4700,-0.0000 -2.6616,1.1916 -2.6616 2.6616c -0.0000,1.4700 1.1916,2.6616 2.6616 2.6616c 1.4700,0.0000 2.6616,-1.1916 2.6616 -2.6616Z"/></g><g stroke-linejoin="miter" stroke-opacity="1.0" fill-opacity="0.0" stroke="rgb(0,0,0)" stroke-width="1.3484817543537975" fill="rgb(0,0,0)" stroke-linecap="butt" stroke-miterlimit="10.0"><path d="M 188.9734,79.8479 h 41.4327 "/></g><g stroke-linejoin="miter" stroke-opacity="1.0" fill-opacity="1.0" stroke="rgb(0,0,0)" stroke-width="0.0" fill="rgb(0,0,0)" stroke-linecap="butt" stroke-miterlimit="10.0"></g><g stroke-linejoin="miter" stroke-opacity="1.0" fill-opacity="1.0" stroke="rgb(0,0,0)" stroke-width="0.0" fill="rgb(0,0,0)" stroke-linecap="butt" stroke-miterlimit="10.0"></g><g stroke-linejoin="miter" stroke-opacity="1.0" fill-opacity="1.0" stroke="rgb(0,0,0)" stroke-width="0.0" fill="rgb(0,0,0)" stroke-linecap="butt" stroke-miterlimit="10.0"><path d="M 242.2053,79.8479 l -13.8025,-4.4847 l 2.3577,4.4847 l -2.3577,4.4847 Z"/></g><g stroke-linejoin="miter" stroke-opacity="1.0" fill-opacity="1.0" stroke="rgb(0,0,0)" stroke-width="0.0" fill="rgb(0,0,0)" stroke-linecap="butt" stroke-miterlimit="10.0"><path d="M 230.7606,79.8479 h -0.3545 v -0.6742 l 0.3545,0.6742 h -0.3545 v 0.6742 Z"/></g><g stroke-linejoin="miter" stroke-opacity="1.0" fill-opacity="0.0" stroke="rgb(0,0,0)" stroke-width="2.52840328941337" fill="rgb(0,0,0)" stroke-linecap="butt" stroke-miterlimit="10.0"><path d="M 15.9696,146.3878 l 0.0000,-134.5886 "/></g><g stroke-linejoin="miter" stroke-opacity="1.0" fill-opacity="1.0" stroke="rgb(0,0,0)" stroke-width="0.0" fill="rgb(0,0,0)" stroke-linecap="butt" stroke-miterlimit="10.0"></g><g stroke-linejoin="miter" stroke-opacity="1.0" fill-opacity="1.0" stroke="rgb(0,0,0)" stroke-width="0.0" fill="rgb(0,0,0)" stroke-linecap="butt" stroke-miterlimit="10.0"></g><g stroke-linejoin="miter" stroke-opacity="1.0" fill-opacity="1.0" stroke="rgb(0,0,0)" stroke-width="0.0" fill="rgb(0,0,0)" stroke-linecap="butt" stroke-miterlimit="10.0"><path d="M 15.9696,0.0000 l -4.3632,13.4284 l 4.3632,-2.2939 l 4.3632,2.2939 Z"/></g><g stroke-linejoin="miter" stroke-opacity="1.0" fill-opacity="1.0" stroke="rgb(0,0,0)" stroke-width="0.0" fill="rgb(0,0,0)" stroke-linecap="butt" stroke-miterlimit="10.0"><path d="M 15.9696,11.1346 l -0.0000,0.6646 l -1.2642,-0.0000 l 1.2642,-0.6646 l -0.0000,0.6646 l 1.2642,0.0000 Z"/></g><g stroke-linejoin="miter" stroke-opacity="1.0" fill-opacity="0.0" stroke="rgb(0,0,0)" stroke-width="2.52840328941337" fill="rgb(0,0,0)" stroke-linecap="butt" stroke-miterlimit="10.0"><path d="M 15.9696,146.3878 h 134.5886 "/></g><g stroke-linejoin="miter" stroke-opacity="1.0" fill-opacity="1.0" stroke="rgb(0,0,0)" stroke-width="0.0" fill="rgb(0,0,0)" stroke-linecap="butt" stroke-miterlimit="10.0"></g><g stroke-linejoin="miter" stroke-opacity="1.0" fill-opacity="1.0" stroke="rgb(0,0,0)" stroke-width="0.0" fill="rgb(0,0,0)" stroke-linecap="butt" stroke-miterlimit="10.0"></g><g stroke-linejoin="miter" stroke-opacity="1.0" fill-opacity="1.0" stroke="rgb(0,0,0)" stroke-width="0.0" fill="rgb(0,0,0)" stroke-linecap="butt" stroke-miterlimit="10.0"><path d="M 162.3574,146.3878 l -13.4284,-4.3632 l 2.2939,4.3632 l -2.2939,4.3632 Z"/></g><g stroke-linejoin="miter" stroke-opacity="1.0" fill-opacity="1.0" stroke="rgb(0,0,0)" stroke-width="0.0" fill="rgb(0,0,0)" stroke-linecap="butt" stroke-miterlimit="10.0"><path d="M 151.2228,146.3878 h -0.6646 v -1.2642 l 0.6646,1.2642 h -0.6646 v 1.2642 Z"/></g><g stroke-linejoin="miter" stroke-opacity="1.0" fill-opacity="0.0" stroke="rgb(0,0,0)" stroke-width="2.52840328941337" fill="rgb(0,0,0)" stroke-linecap="butt" stroke-miterlimit="10.0"><path d="M 13.9734,13.3080 l 3.9924,0.0000 "/></g><g stroke-linejoin="miter" stroke-opacity="1.0" fill-opacity="0.0" stroke="rgb(0,0,0)" stroke-width="2.52840328941337" fill="rgb(0,0,0)" stroke-linecap="butt" stroke-miterlimit="10.0"><path d="M 13.9734,39.9240 l 3.9924,0.0000 "/></g><g stroke-linejoin="miter" stroke-opacity="1.0" fill-opacity="0.0" stroke="rgb(0,0,0)" stroke-width="2.52840328941337" fill="rgb(0,0,0)" stroke-linecap="butt" stroke-miterlimit="10.0"><path d="M 13.9734,66.5399 l 3.9924,0.0000 "/></g><g stroke-linejoin="miter" stroke-opacity="1.0" fill-opacity="0.0" stroke="rgb(0,0,0)" stroke-width="2.52840328941337" fill="rgb(0,0,0)" stroke-linecap="butt" stroke-miterlimit="10.0"><path d="M 13.9734,93.1559 l 3.9924,0.0000 "/></g><g stroke-linejoin="miter" stroke-opacity="1.0" fill-opacity="0.0" stroke="rgb(0,0,0)" stroke-width="2.52840328941337" fill="rgb(0,0,0)" stroke-linecap="butt" stroke-miterlimit="10.0"><path d="M 13.9734,119.7719 l 3.9924,0.0000 "/></g><g stroke-linejoin="miter" stroke-opacity="1.0" fill-opacity="0.0" stroke="rgb(0,0,0)" stroke-width="2.52840328941337" fill="rgb(0,0,0)" stroke-linecap="butt" stroke-miterlimit="10.0"><path d="M 149.0494,144.3916 v 3.9924 "/></g><g stroke-linejoin="miter" stroke-opacity="1.0" fill-opacity="0.0" stroke="rgb(0,0,0)" stroke-width="2.52840328941337" fill="rgb(0,0,0)" stroke-linecap="butt" stroke-miterlimit="10.0"><path d="M 122.4335,144.3916 v 3.9924 "/></g><g stroke-linejoin="miter" stroke-opacity="1.0" fill-opacity="0.0" stroke="rgb(0,0,0)" stroke-width="2.52840328941337" fill="rgb(0,0,0)" stroke-linecap="butt" stroke-miterlimit="10.0"><path d="M 95.8175,144.3916 v 3.9924 "/></g><g stroke-linejoin="miter" stroke-opacity="1.0" fill-opacity="0.0" stroke="rgb(0,0,0)" stroke-width="2.52840328941337" fill="rgb(0,0,0)" stroke-linecap="butt" stroke-miterlimit="10.0"><path d="M 69.2015,144.3916 v 3.9924 "/></g><g stroke-linejoin="miter" stroke-opacity="1.0" fill-opacity="0.0" stroke="rgb(0,0,0)" stroke-width="2.52840328941337" fill="rgb(0,0,0)" stroke-linecap="butt" stroke-miterlimit="10.0"><path d="M 42.5856,144.3916 v 3.9924 "/></g><g stroke-linejoin="miter" stroke-opacity="1.0" fill-opacity="0.0" stroke="rgb(255,0,0)" stroke-width="1.3484817543537975" fill="rgb(0,0,0)" stroke-linecap="butt" stroke-miterlimit="10.0"><path d="M 15.9696,119.7719 c 0.8872,0.8744 1.7744,1.7488 2.6616 2.5951c 0.8872,0.8463 1.7744,1.6644 2.6616 2.4620c 0.8872,0.7976 1.7744,1.5745 2.6616 2.3289c 0.8872,0.7544 1.7744,1.4861 2.6616 2.1958c 0.8872,0.7097 1.7744,1.3973 2.6616 2.0627c 0.8872,0.6654 1.7744,1.3086 2.6616 1.9297c 0.8872,0.6210 1.7744,1.2199 2.6616 1.7966c 0.8872,0.5767 1.7744,1.1312 2.6616 1.6635c 0.8872,0.5323 1.7744,1.0425 2.6616 1.5304c 0.8872,0.4880 1.7744,0.9537 2.6616 1.3973c 0.8872,0.4436 1.7744,0.8650 2.6616 1.2643c 0.8872,0.3992 1.7744,0.7763 2.6616 1.1312c 0.8872,0.3549 1.7744,0.6876 2.6616 0.9981c 0.8872,0.3105 1.7744,0.5989 2.6616 0.8650c 0.8872,0.2662 1.7744,0.5101 2.6616 0.7319c 0.8872,0.2218 1.7744,0.4214 2.6616 0.5989c 0.8872,0.1774 1.7744,0.3327 2.6616 0.4658c 0.8872,0.1331 1.7744,0.2440 2.6616 0.3327c 0.8872,0.0887 1.7744,0.1553 2.6616 0.1996c 0.8872,0.0444 1.7744,0.0665 2.6616 0.0665c 0.8872,0.0000 1.7744,-0.0222 2.6616 -0.0665c 0.8872,-0.0444 1.7744,-0.1109 2.6616 -0.1996c 0.8872,-0.0887 1.7744,-0.1996 2.6616 -0.3327c 0.8872,-0.1331 1.7744,-0.2883 2.6616 -0.4658c 0.8872,-0.1774 1.7744,-0.3771 2.6616 -0.5989c 0.8872,-0.2218 1.7744,-0.4658 2.6616 -0.7319c 0.8872,-0.2662 1.7744,-0.5545 2.6616 -0.8650c 0.8872,-0.3105 1.7744,-0.6432 2.6616 -0.9981c 0.8872,-0.3549 1.7744,-0.7319 2.6616 -1.1312c 0.8872,-0.3992 1.7744,-0.8207 2.6616 -1.2643c 0.8872,-0.4436 1.7744,-0.9094 2.6616 -1.3973c 0.8872,-0.4880 1.7744,-0.9981 2.6616 -1.5304c 0.8872,-0.5323 1.7744,-1.0868 2.6616 -1.6635c 0.8872,-0.5767 1.7746,-1.1757 2.6616 -1.7966c 0.8870,-0.6209 1.7738,-1.2637 2.6616 -1.9297c 0.8878,-0.6660 1.7765,-1.3551 2.6616 -2.0627c 0.8851,-0.7076 1.7665,-1.4336 2.6616 -2.1958c 0.8951,-0.7622 1.8040,-1.5605 2.6616 -2.3289c 0.8576,-0.7684 1.6641,-1.5070 2.6616 -2.4620c 0.9975,-0.9550 2.1861,-2.1265 2.6616 -2.5951c 0.4754,-0.4686 0.2377,-0.2343 0.0000 -0.0000"/></g><g stroke-linejoin="miter" stroke-opacity="1.0" fill-opacity="1.0" stroke="rgb(0,0,0)" stroke-width="0.0" fill="rgb(255,0,0)" stroke-linecap="butt" stroke-miterlimit="10.0"><path d="M 18.6312,119.7719 c 0.0000,-1.4700 -1.1916,-2.6616 -2.6616 -2.6616c -1.4700,-0.0000 -2.6616,1.1916 -2.6616 2.6616c -0.0000,1.4700 1.1916,2.6616 2.6616 2.6616c 1.4700,0.0000 2.6616,-1.1916 2.6616 -2.6616Z"/></g><g stroke-linejoin="miter" stroke-opacity="1.0" fill-opacity="1.0" stroke="rgb(0,0,0)" stroke-width="0.0" fill="rgb(255,0,0)" stroke-linecap="butt" stroke-miterlimit="10.0"><path d="M 125.0951,119.7719 c 0.0000,-1.4700 -1.1916,-2.6616 -2.6616 -2.6616c -1.4700,-0.0000 -2.6616,1.1916 -2.6616 2.6616c -0.0000,1.4700 1.1916,2.6616 2.6616 2.6616c 1.4700,0.0000 2.6616,-1.1916 2.6616 -2.6616Z"/></g><g stroke-linejoin="miter" stroke-opacity="1.0" fill-opacity="0.0" stroke="rgb(255,0,0)" stroke-width="1.3484817543537975" fill="rgb(0,0,0)" stroke-linecap="butt" stroke-miterlimit="10.0"><path d="M 15.9696,116.4449 c 0.8872,0.1306 1.7744,0.2612 2.6616 0.6354c 0.8872,0.3742 1.7744,0.9920 2.6616 1.6635c 0.8872,0.6715 1.7744,1.3966 2.6616 2.0562c 0.8872,0.6596 1.7744,1.2536 2.6616 1.6635c 0.8872,0.4099 1.7744,0.6356 2.6616 0.6354c 0.8872,-0.0002 1.7744,-0.2262 2.6616 -0.6354c 0.8872,-0.4092 1.7744,-1.0014 2.6616 -1.6635c 0.8872,-0.6621 1.7744,-1.3941 2.6616 -2.0562c 0.8872,-0.6621 1.7744,-1.2543 2.6616 -1.6635c 0.8872,-0.4092 1.7744,-0.6354 2.6616 -0.6354c 0.8872,0.0000 1.7744,0.2262 2.6616 0.6354c 0.8872,0.4092 1.7744,1.0014 2.6616 1.6635c 0.8872,0.6621 1.7744,1.3941 2.6616 2.0562c 0.8872,0.6621 1.7746,1.2543 2.6616 1.6635c 0.8870,0.4092 1.7738,0.6353 2.6616 0.6354c 0.8878,0.0001 1.7765,-0.2258 2.6616 -0.6354c 0.8851,-0.4096 1.7665,-1.0027 2.6616 -1.6635c 0.8951,-0.6608 1.8040,-1.3891 2.6616 -2.0562c 0.8576,-0.6671 1.6641,-1.2731 2.6616 -1.6635c 0.9975,-0.3904 2.1861,-0.5654 2.6616 -0.6354c 0.4754,-0.0700 0.2377,-0.0350 -0.0000 -0.0000"/></g><g stroke-linejoin="miter" stroke-opacity="1.0" fill-opacity="1.0" stroke="rgb(0,0,0)" stroke-width="0.0" fill="rgb(255,0,0)" stroke-linecap="butt" stroke-miterlimit="10.0"><path d="M 18.6312,116.4449 c 0.0000,-1.4700 -1.1916,-2.6616 -2.6616 -2.6616c -1.4700,-0.0000 -2.6616,1.1916 -2.6616 2.6616c -0.0000,1.4700 1.1916,2.6616 2.6616 2.6616c 1.4700,0.0000 2.6616,-1.1916 2.6616 -2.6616Z"/></g><g stroke-linejoin="miter" stroke-opacity="1.0" fill-opacity="1.0" stroke="rgb(0,0,0)" stroke-width="0.0" fill="rgb(255,0,0)" stroke-linecap="butt" stroke-miterlimit="10.0"><path d="M 71.8631,116.4449 c 0.0000,-1.4700 -1.1916,-2.6616 -2.6616 -2.6616c -1.4700,-0.0000 -2.6616,1.1916 -2.6616 2.6616c -0.0000,1.4700 1.1916,2.6616 2.6616 2.6616c 1.4700,0.0000 2.6616,-1.1916 2.6616 -2.6616Z"/></g><g stroke-linejoin="miter" stroke-opacity="1.0" fill-opacity="0.0" stroke="rgb(255,0,0)" stroke-width="1.3484817543537975" fill="rgb(0,0,0)" stroke-linecap="butt" stroke-miterlimit="10.0"><path d="M 15.9696,146.3878 c 0.8872,-0.8872 1.7744,-1.7744 2.6616 -2.6616c 0.8872,-0.8872 1.7744,-1.7744 2.6616 -2.6616c 0.8872,-0.8872 1.7744,-1.7744 2.6616 -2.6616c 0.8872,-0.8872 1.7744,-1.7744 2.6616 -2.6616c 0.8872,-0.8872 1.7744,-1.7744 2.6616 -2.6616c 0.8872,-0.8872 1.7744,-1.7744 2.6616 -2.6616c 0.8872,-0.8872 1.7744,-1.7744 2.6616 -2.6616c 0.8872,-0.8872 1.7744,-1.7744 2.6616 -2.6616c 0.8872,-0.8872 1.7744,-1.7744 2.6616 -2.6616c 0.8872,-0.8872 1.7744,-1.7744 2.6616 -2.6616c 0.8872,-0.8872 1.7744,-1.7744 2.6616 -2.6616c 0.8872,-0.8872 1.7744,-1.7744 2.6616 -2.6616c 0.8872,-0.8872 1.7744,-1.7744 2.6616 -2.6616c 0.8872,-0.8872 1.7744,-1.7744 2.6616 -2.6616c 0.8872,-0.8872 1.7744,-1.7744 2.6616 -2.6616c 0.8872,-0.8872 1.7744,-1.7744 2.6616 -2.6616c 0.8872,-0.8872 1.7744,-1.7744 2.6616 -2.6616c 0.8872,-0.8872 1.7744,-1.7744 2.6616 -2.6616c 0.8872,-0.8872 1.7744,-1.7744 2.6616 -2.6616c 0.8872,-0.8872 1.7744,-1.7744 2.6616 -2.6616c 0.8872,-0.8872 1.7744,-1.7744 2.6616 -2.6616c 0.8872,-0.8872 1.7744,-1.7744 2.6616 -2.6616c 0.8872,-0.8872 1.7744,-1.7744 2.6616 -2.6616c 0.8872,-0.8872 1.7746,-1.7746 2.6616 -2.6616c 0.8870,-0.8870 1.7738,-1.7738 2.6616 -2.6616c 0.8878,-0.8878 1.7765,-1.7765 2.6616 -2.6616c 0.8851,-0.8851 1.7665,-1.7665 2.6616 -2.6616c 0.8951,-0.8951 1.8040,-1.8040 2.6616 -2.6616c 0.8576,-0.8576 1.6641,-1.6641 2.6616 -2.6616c 0.9975,-0.9975 2.1861,-2.1861 2.6616 -2.6616c 0.4754,-0.4754 0.2377,-0.2377 0.0000 -0.0000"/></g><g stroke-linejoin="miter" stroke-opacity="1.0" fill-opacity="1.0" stroke="rgb(0,0,0)" stroke-width="0.0" fill="rgb(255,0,0)" stroke-linecap="butt" stroke-miterlimit="10.0"><path d="M 18.6312,146.3878 c 0.0000,-1.4700 -1.1916,-2.6616 -2.6616 -2.6616c -1.4700,-0.0000 -2.6616,1.1916 -2.6616 2.6616c -0.0000,1.4700 1.1916,2.6616 2.6616 2.6616c 1.4700,0.0000 2.6616,-1.1916 2.6616 -2.6616Z"/></g><g stroke-linejoin="miter" stroke-opacity="1.0" fill-opacity="1.0" stroke="rgb(0,0,0)" stroke-width="0.0" fill="rgb(255,0,0)" stroke-linecap="butt" stroke-miterlimit="10.0"><path d="M 98.4791,66.5399 c 0.0000,-1.4700 -1.1916,-2.6616 -2.6616 -2.6616c -1.4700,-0.0000 -2.6616,1.1916 -2.6616 2.6616c -0.0000,1.4700 1.1916,2.6616 2.6616 2.6616c 1.4700,0.0000 2.6616,-1.1916 2.6616 -2.6616Z"/></g></svg>