<svg xmlns="http://www.w3.org/2000/svg" height="211.7767" stroke-opacity="1" viewBox="0 0 200 212" font-size="1" width="200.0000" xmlns:xlink="http://www.w3.org/1999/xlink" stroke="rgb(0,0,0)" version="1.1"><defs></defs><g stroke-linejoin="miter" stroke-opacity="1.0" fill-opacity="0.0" stroke="rgb(0,0,0)" stroke-width="2.0" fill="rgb(0,0,0)" stroke-linecap="butt" stroke-miterlimit="10.0"><path d="M 18.1535,166.4066 l 0.0000,-159.2035 "/></g><g stroke-linejoin="miter" stroke-opacity="1.0" fill-opacity="1.0" stroke="rgb(0,0,0)" stroke-width="0.0" fill="rgb(0,0,0)" stroke-linecap="butt" stroke-miterlimit="10.0"></g><g stroke-linejoin="miter" stroke-opacity="1.0" fill-opacity="1.0" stroke="rgb(0,0,0)" stroke-width="0.0" fill="rgb(0,0,0)" stroke-linecap="butt" stroke-miterlimit="10.0"></g><g stroke-linejoin="miter" stroke-opacity="1.0" fill-opacity="1.0" stroke="rgb(0,0,0)" stroke-width="0.0" fill="rgb(0,0,0)" stroke-linecap="butt" stroke-miterlimit="10.0"><path d="M 18.1535,-0.0000 l -2.6166,8.0530 l 2.6166,-1.3756 l 2.6166,1.3756 Z"/></g><g stroke-linejoin="miter" stroke-opacity="1.0" fill-opacity="1.0" stroke="rgb(0,0,0)" stroke-width="0.0" fill="rgb(0,0,0)" stroke-linecap="butt" stroke-miterlimit="10.0"><path d="M 18.1535,6.6774 l -0.0000,0.5257 l -1.0000,-0.0000 l 1.0000,-0.5257 l -0.0000,0.5257 l 1.0000,0.0000 Z"/></g><g stroke-linejoin="miter" stroke-opacity="1.0" fill-opacity="0.0" stroke="rgb(0,0,0)" stroke-width="2.0" fill="rgb(0,0,0)" stroke-linecap="butt" stroke-miterlimit="10.0"><path d="M 18.1535,166.4066 h 159.2035 "/></g><g stroke-linejoin="miter" stroke-opacity="1.0" fill-opacity="1.0" stroke="rgb(0,0,0)" stroke-width="0.0" fill="rgb(0,0,0)" stroke-linecap="butt" stroke-miterlimit="10.0"></g><g stroke-linejoin="miter" stroke-opacity="1.0" fill-opacity="1.0" stroke="rgb(0,0,0)" stroke-width="0.0" fill="rgb(0,0,0)" stroke-linecap="butt" stroke-miterlimit="10.0"></g><g stroke-linejoin="miter" stroke-opacity="1.0" fill-opacity="1.0" stroke="rgb(0,0,0)" stroke-width="0.0" fill="rgb(0,0,0)" stroke-linecap="butt" stroke-miterlimit="10.0"><path d="M 184.5601,166.4066 l -8.0530,-2.6166 l 1.3756,2.6166 l -1.3756,2.6166 Z"/></g><g stroke-linejoin="miter" stroke-opacity="1.0" fill-opacity="1.0" stroke="rgb(0,0,0)" stroke-width="0.0" fill="rgb(0,0,0)" stroke-linecap="butt" stroke-miterlimit="10.0"><path d="M 177.8827,166.4066 h -0.5257 v -1.0000 l 0.5257,1.0000 h -0.5257 v 1.0000 Z"/></g><g stroke-linejoin="miter" stroke-opacity="1.0" fill-opacity="0.0" stroke="rgb(0,0,0)" stroke-width="2.0" fill="rgb(0,0,0)" stroke-linecap="butt" stroke-miterlimit="10.0"><path d="M 15.8843,15.1279 l 4.5384,0.0000 "/></g><g stroke-linejoin="miter" stroke-opacity="1.0" fill-opacity="0.0" stroke="rgb(0,0,0)" stroke-width="2.0" fill="rgb(0,0,0)" stroke-linecap="butt" stroke-miterlimit="10.0"><path d="M 15.8843,45.3836 l 4.5384,0.0000 "/></g><g stroke-linejoin="miter" stroke-opacity="1.0" fill-opacity="0.0" stroke="rgb(0,0,0)" stroke-width="2.0" fill="rgb(0,0,0)" stroke-linecap="butt" stroke-miterlimit="10.0"><path d="M 15.8843,75.6394 l 4.5384,0.0000 "/></g><g stroke-linejoin="miter" stroke-opacity="1.0" fill-opacity="0.0" stroke="rgb(0,0,0)" stroke-width="2.0" fill="rgb(0,0,0)" stroke-linecap="butt" stroke-miterlimit="10.0"><path d="M 15.8843,105.8951 l 4.5384,0.0000 "/></g><g stroke-linejoin="miter" stroke-opacity="1.0" fill-opacity="0.0" stroke="rgb(0,0,0)" stroke-width="2.0" fill="rgb(0,0,0)" stroke-linecap="butt" stroke-miterlimit="10.0"><path d="M 15.8843,136.1509 l 4.5384,0.0000 "/></g><g stroke-linejoin="miter" stroke-opacity="1.0" fill-opacity="0.0" stroke="rgb(0,0,0)" stroke-width="2.0" fill="rgb(0,0,0)" stroke-linecap="butt" stroke-miterlimit="10.0"><path d="M 169.4322,164.1375 v 4.5384 "/></g><g stroke-linejoin="miter" stroke-opacity="1.0" fill-opacity="0.0" stroke="rgb(0,0,0)" stroke-width="2.0" fill="rgb(0,0,0)" stroke-linecap="butt" stroke-miterlimit="10.0"><path d="M 139.1765,164.1375 v 4.5384 "/></g><g stroke-linejoin="miter" stroke-opacity="1.0" fill-opacity="0.0" stroke="rgb(0,0,0)" stroke-width="2.0" fill="rgb(0,0,0)" stroke-linecap="butt" stroke-miterlimit="10.0"><path d="M 108.9207,164.1375 v 4.5384 "/></g><g stroke-linejoin="miter" stroke-opacity="1.0" fill-opacity="0.0" stroke="rgb(0,0,0)" stroke-width="2.0" fill="rgb(0,0,0)" stroke-linecap="butt" stroke-miterlimit="10.0"><path d="M 78.6650,164.1375 v 4.5384 "/></g><g stroke-linejoin="miter" stroke-opacity="1.0" fill-opacity="0.0" stroke="rgb(0,0,0)" stroke-width="2.0" fill="rgb(0,0,0)" stroke-linecap="butt" stroke-miterlimit="10.0"><path d="M 48.4092,164.1375 v 4.5384 "/></g><g stroke-linejoin="miter" stroke-opacity="1.0" fill-opacity="0.0" stroke="rgb(255,0,0)" stroke-width="1.0" fill="rgb(0,0,0)" stroke-linecap="butt" stroke-miterlimit="10.0"><path d="M 18.1535,166.4066 c 1.0085,-6.3310 2.0171,-12.6620 3.0256 -17.7839c 1.0085,-5.1219 2.0171,-9.0347 3.0256 -10.9910c 1.0085,-1.9564 2.0171,-1.9564 3.0256 -0.0000c 1.0085,1.9564 2.0171,5.8692 3.0256 10.9910c 1.0085,5.1219 2.0171,11.4529 3.0256 17.7839c 1.0085,6.3310 2.0171,12.6620 3.0256 17.7839c 1.0085,5.1219 2.0171,9.0347 3.0256 10.9910c 1.0085,1.9564 2.0171,1.9564 3.0256 0.0000c 1.0085,-1.9564 2.0171,-5.8692 3.0256 -10.9910c 1.0085,-5.1219 2.0171,-11.4529 3.0256 -17.7839c 1.0085,-6.3310 2.0171,-12.6620 3.0256 -17.7839c 1.0085,-5.1219 2.0171,-9.0347 3.0256 -10.9910c 1.0085,-1.9564 2.0171,-1.9564 3.0256 -0.0000c 1.0085,1.9564 2.0171,5.8692 3.0256 10.9910c 1.0085,5.1219 2.0171,11.4529 3.0256 17.7839c 1.0085,6.3310 2.0171,12.6620 3.0256 17.7839c 1.0085,5.1219 2.0171,9.0347 3.0256 10.9910c 1.0085,1.9564 2.0171,1.9564 3.0256 0.0000c 1.0085,-1.9564 2.0171,-5.8692 3.0256 -10.9910c 1.0085,-5.1219 2.0171,-11.4529 3.0256 -17.7839c 1.0085,-6.3310 2.0171,-12.6620 3.0256 -17.7839c 1.0085,-5.1219 2.0171,-9.0347 3.0256 -10.9910c 1.0085,-1.9564 2.0171,-1.9564 3.0256 -0.0000c 1.0085,1.9564 2.0171,5.8692 3.0256 10.9910c 1.0085,5.1219 2.0171,11.4529 3.0256 17.7839c 1.0085,6.3310 2.0171,12.6620 3.0256 17.7839c 1.0085,5.1219 2.0171,9.0347 3.0256 10.9910c 1.0085,1.9564 2.0171,1.9564 3.0256 0.0000c 1.0085,-1.9564 2.0171,-5.8692 3.0256 -10.9910c 1.0085,-5.1219 2.0171,-11.4529 3.0256 -17.7839c 1.0085,-6.3310 2.0171,-12.6620 3.0256 -17.7839c 1.0085,-5.1219 2.0171,-9.0347 3.0256 -10.9910c 1.0085,-1.9564 2.0171,-1.9564 3.0256 -0.0000c 1.0085,1.9564 2.0171,5.8692 3.0256 10.9910c 1.0085,5.1219 2.0171,11.4529 3.0256 17.7839c 1.0085,6.3310 2.0171,12.6620 3.0256 17.7839c 1.0085,5.1219 2.0171,9.0347 3.0256 10.9910c 1.0085,1.9564 2.0171,1.9564 3.0256 0.0000c 1.0085,-1.9564 2.0171,-5.8692 3.0256 -10.9910c 1.0085,-5.1219 2.0171,-11.4529 3.0256 -17.7839c 1.0085,-6.3310 2.0171,-12.6620 3.0256 -17.7839c 1.0085,-5.1219 2.0171,-9.0347 3.0256 -10.9910c 1.0085,-1.9564 2.0171,-1.9564 3.0256 -0.0000c 1.0085,1.9564 2.0170,5.8692 3.0256 10.9910c 1.0085,5.1219 2.0171,11.4529 3.0256 17.7839c 1.0085,6.3310 2.0170,12.6620 3.0256 17.7839c 1.0085,5.1219 2.0171,9.0347 3.0256 10.9910c 1.0085,1.9563 2.0170,1.9561 3.0256 0.0000c 1.0086,-1.9561 2.0172,-5.8681 3.0256 -10.9910c 1.0084,-5.1230 2.0164,-11.4569 3.0256 -17.7839c 1.0092,-6.3269 2.0195,-12.6469 3.0256 -17.7839c 1.0061,-5.1370 2.0080,-9.0912 3.0256 -10.9910c 1.0175,-1.8999 2.0507,-1.7454 3.0256 -0.0000c 0.9749,1.7454 1.8916,5.0819 3.0256 10.9910c 1.1339,5.9092 2.4851,14.3911 3.0256 17.7839c 0.5405,3.3928 0.2702,1.6964 0.0000 -0.0000"/></g><g stroke-linejoin="miter" stroke-opacity="1.0" fill-opacity="1.0" stroke="rgb(0,0,0)" stroke-width="0.0" fill="rgb(255,0,0)" stroke-linecap="butt" stroke-miterlimit="10.0"><path d="M 21.1790,166.4066 c 0.0000,-1.6710 -1.3546,-3.0256 -3.0256 -3.0256c -1.6710,-0.0000 -3.0256,1.3546 -3.0256 3.0256c -0.0000,1.6710 1.3546,3.0256 3.0256 3.0256c 1.6710,0.0000 3.0256,-1.3546 3.0256 -3.0256Z"/></g></svg>