<svg xmlns="http://www.w3.org/2000/svg" height="200.0000" stroke-opacity="1" viewBox="0 0 200 200" font-size="1" width="200.0000" xmlns:xlink="http://www.w3.org/1999/xlink" stroke="rgb(0,0,0)" version="1.1"><defs></defs><g stroke-linejoin="miter" stroke-opacity="1.0" fill-opacity="0.0" stroke="rgb(0,0,0)" stroke-width="2.0" fill="rgb(0,0,0)" stroke-linecap="butt" stroke-miterlimit="10.0"><path d="M 19.6721,180.3279 l 0.0000,-173.3279 "/></g><g stroke-linejoin="miter" stroke-opacity="1.0" fill-opacity="1.0" stroke="rgb(0,0,0)" stroke-width="0.0" fill="rgb(0,0,0)" stroke-linecap="butt" stroke-miterlimit="10.0"></g><g stroke-linejoin="miter" stroke-opacity="1.0" fill-opacity="1.0" stroke="rgb(0,0,0)" stroke-width="0.0" fill="rgb(0,0,0)" stroke-linecap="butt" stroke-miterlimit="10.0"></g><g stroke-linejoin="miter" stroke-opacity="1.0" fill-opacity="1.0" stroke="rgb(0,0,0)" stroke-width="0.0" fill="rgb(0,0,0)" stroke-linecap="butt" stroke-miterlimit="10.0"><path d="M 19.6721,0.0000 l -2.5370,7.8080 l 2.5370,-1.3338 l 2.5370,1.3338 Z"/></g><g stroke-linejoin="miter" stroke-opacity="1.0" fill-opacity="1.0" stroke="rgb(0,0,0)" stroke-width="0.0" fill="rgb(0,0,0)" stroke-linecap="butt" stroke-miterlimit="10.0"><path d="M 19.6721,6.4743 l -0.0000,0.5257 l -1.0000,-0.0000 l 1.0000,-0.5257 l -0.0000,0.5257 l 1.0000,0.0000 Z"/></g><g stroke-linejoin="miter" stroke-opacity="1.0" fill-opacity="0.0" stroke="rgb(0,0,0)" stroke-width="2.0" fill="rgb(0,0,0)" stroke-linecap="butt" stroke-miterlimit="10.0"><path d="M 19.6721,180.3279 h 173.3279 "/></g><g stroke-linejoin="miter" stroke-opacity="1.0" fill-opacity="1.0" stroke="rgb(0,0,0)" stroke-width="0.0" fill="rgb(0,0,0)" stroke-linecap="butt" stroke-miterlimit="10.0"></g><g stroke-linejoin="miter" stroke-opacity="1.0" fill-opacity="1.0" stroke="rgb(0,0,0)" stroke-width="0.0" fill="rgb(0,0,0)" stroke-linecap="butt" stroke-miterlimit="10.0"></g><g stroke-linejoin="miter" stroke-opacity="1.0" fill-opacity="1.0" stroke="rgb(0,0,0)" stroke-width="0.0" fill="rgb(0,0,0)" stroke-linecap="butt" stroke-miterlimit="10.0"><path d="M 200.0000,180.3279 l -7.8080,-2.5370 l 1.3338,2.5370 l -1.3338,2.5370 Z"/></g><g stroke-linejoin="miter" stroke-opacity="1.0" fill-opacity="1.0" stroke="rgb(0,0,0)" stroke-width="0.0" fill="rgb(0,0,0)" stroke-linecap="butt" stroke-miterlimit="10.0"><path d="M 193.5257,180.3279 h -0.5257 v -1.0000 l 0.5257,1.0000 h -0.5257 v 1.0000 Z"/></g><g stroke-linejoin="miter" stroke-opacity="1.0" fill-opacity="0.0" stroke="rgb(0,0,0)" stroke-width="2.0" fill="rgb(0,0,0)" stroke-linecap="butt" stroke-miterlimit="10.0"><path d="M 17.2131,16.3934 l 4.9180,0.0000 "/></g><g stroke-linejoin="miter" stroke-opacity="1.0" fill-opacity="0.0" stroke="rgb(0,0,0)" stroke-width="2.0" fill="rgb(0,0,0)" stroke-linecap="butt" stroke-miterlimit="10.0"><path d="M 17.2131,49.1803 l 4.9180,0.0000 "/></g><g stroke-linejoin="miter" stroke-opacity="1.0" fill-opacity="0.0" stroke="rgb(0,0,0)" stroke-width="2.0" fill="rgb(0,0,0)" stroke-linecap="butt" stroke-miterlimit="10.0"><path d="M 17.2131,81.9672 l 4.9180,0.0000 "/></g><g stroke-linejoin="miter" stroke-opacity="1.0" fill-opacity="0.0" stroke="rgb(0,0,0)" stroke-width="2.0" fill="rgb(0,0,0)" stroke-linecap="butt" stroke-miterlimit="10.0"><path d="M 17.2131,114.7541 l 4.9180,0.0000 "/></g><g stroke-linejoin="miter" stroke-opacity="1.0" fill-opacity="0.0" stroke="rgb(0,0,0)" stroke-width="2.0" fill="rgb(0,0,0)" stroke-linecap="butt" stroke-miterlimit="10.0"><path d="M 17.2131,147.5410 l 4.9180,0.0000 "/></g><g stroke-linejoin="miter" stroke-opacity="1.0" fill-opacity="0.0" stroke="rgb(0,0,0)" stroke-width="2.0" fill="rgb(0,0,0)" stroke-linecap="butt" stroke-miterlimit="10.0"><path d="M 183.6066,177.8689 v 4.9180 "/></g><g stroke-linejoin="miter" stroke-opacity="1.0" fill-opacity="0.0" stroke="rgb(0,0,0)" stroke-width="2.0" fill="rgb(0,0,0)" stroke-linecap="butt" stroke-miterlimit="10.0"><path d="M 150.8197,177.8689 v 4.9180 "/></g><g stroke-linejoin="miter" stroke-opacity="1.0" fill-opacity="0.0" stroke="rgb(0,0,0)" stroke-width="2.0" fill="rgb(0,0,0)" stroke-linecap="butt" stroke-miterlimit="10.0"><path d="M 118.0328,177.8689 v 4.9180 "/></g><g stroke-linejoin="miter" stroke-opacity="1.0" fill-opacity="0.0" stroke="rgb(0,0,0)" stroke-width="2.0" fill="rgb(0,0,0)" stroke-linecap="butt" stroke-miterlimit="10.0"><path d="M 85.2459,177.8689 v 4.9180 "/></g><g stroke-linejoin="miter" stroke-opacity="1.0" fill-opacity="0.0" stroke="rgb(0,0,0)" stroke-width="2.0" fill="rgb(0,0,0)" stroke-linecap="butt" stroke-miterlimit="10.0"><path d="M 52.4590,177.8689 v 4.9180 "/></g><g stroke-linejoin="miter" stroke-opacity="1.0" fill-opacity="0.0" stroke="rgb(255,0,0)" stroke-width="1.0" fill="rgb(0,0,0)" stroke-linecap="butt" stroke-miterlimit="10.0"><path d="M 19.6721,180.3279 c 1.0929,-4.5232 2.1858,-9.0464 3.2787 -12.9145c 1.0929,-3.8681 2.1858,-7.0810 3.2787 -9.2340c 1.0929,-2.1529 2.1858,-3.2458 3.2787 -3.2787c 1.0929,-0.0329 2.1858,0.9943 3.2787 2.6766c 1.0929,1.6823 2.1858,4.0197 3.2787 6.3571c 1.0929,2.3374 2.1858,4.6748 3.2787 6.3571c 1.0929,1.6823 2.1858,2.7094 3.2787 2.6766c 1.0929,-0.0329 2.1858,-1.1258 3.2787 -3.2787c 1.0929,-2.1529 2.1858,-5.3659 3.2787 -9.2340c 1.0929,-3.8681 2.1858,-8.3913 3.2787 -12.9145c 1.0929,-4.5232 2.1858,-9.0464 3.2787 -12.9145c 1.0929,-3.8681 2.1858,-7.0810 3.2787 -9.2340c 1.0929,-2.1529 2.1858,-3.2458 3.2787 -3.2787c 1.0929,-0.0329 2.1858,0.9943 3.2787 2.6766c 1.0929,1.6823 2.1858,4.0197 3.2787 6.3571c 1.0929,2.3374 2.1858,4.6748 3.2787 6.3571c 1.0929,1.6823 2.1858,2.7094 3.2787 2.6766c 1.0929,-0.0329 2.1858,-1.1258 3.2787 -3.2787c 1.0929,-2.1529 2.1858,-5.3659 3.2787 -9.2340c 1.0929,-3.8681 2.1858,-8.3913 3.2787 -12.9145c 1.0929,-4.5232 2.1858,-9.0464 3.2787 -12.9145c 1.0929,-3.8681 2.1858,-7.0811 3.2787 -9.2340c 1.0929,-2.1529 2.1857,-3.2456 3.2787 -3.2787c 1.0929,-0.0331 2.1860,0.9935 3.2787 2.6766c 1.0927,1.6831 2.1851,4.0226 3.2787 6.3571c 1.0936,2.3345 2.1884,4.6640 3.2787 6.3571c 1.0903,1.6931 2.1760,2.7498 3.2787 2.6766c 1.1027,-0.0733 2.2222,-1.2765 3.2787 -3.2787c 1.0565,-2.0022 2.0499,-4.8034 3.2787 -9.2340c 1.2288,-4.4306 2.6930,-10.4905 3.2787 -12.9145c 0.5857,-2.4240 0.2928,-1.2120 0.0000 -0.0000"/></g><g stroke-linejoin="miter" stroke-opacity="1.0" fill-opacity="1.0" stroke="rgb(0,0,0)" stroke-width="0.0" fill="rgb(255,0,0)" stroke-linecap="butt" stroke-miterlimit="10.0"><path d="M 22.9508,180.3279 c 0.0000,-1.8108 -1.4679,-3.2787 -3.2787 -3.2787c -1.8108,-0.0000 -3.2787,1.4679 -3.2787 3.2787c -0.0000,1.8108 1.4679,3.2787 3.2787 3.2787c 1.8108,0.0000 3.2787,-1.4679 3.2787 -3.2787Z"/></g><g stroke-linejoin="miter" stroke-opacity="1.0" fill-opacity="1.0" stroke="rgb(0,0,0)" stroke-width="0.0" fill="rgb(255,0,0)" stroke-linecap="butt" stroke-miterlimit="10.0"><path d="M 121.3115,81.9672 c 0.0000,-1.8108 -1.4679,-3.2787 -3.2787 -3.2787c -1.8108,-0.0000 -3.2787,1.4679 -3.2787 3.2787c -0.0000,1.8108 1.4679,3.2787 3.2787 3.2787c 1.8108,0.0000 3.2787,-1.4679 3.2787 -3.2787Z"/></g></svg>