<svg xmlns="http://www.w3.org/2000/svg" height="183.0645" stroke-opacity="1" viewBox="0 0 200 183" font-size="1" width="200.0000" xmlns:xlink="http://www.w3.org/1999/xlink" stroke="rgb(0,0,0)" version="1.1"><defs></defs><g stroke-linejoin="miter" stroke-opacity="1.0" fill-opacity="0.0" stroke="rgb(0,0,0)" stroke-width="2.0" fill="rgb(0,0,0)" stroke-linecap="butt" stroke-miterlimit="10.0"><path d="M 19.3548,180.6452 l 0.0000,-170.7223 "/></g><g stroke-linejoin="miter" stroke-opacity="1.0" fill-opacity="1.0" stroke="rgb(0,0,0)" stroke-width="0.0" fill="rgb(0,0,0)" stroke-linecap="butt" stroke-miterlimit="10.0"></g><g stroke-linejoin="miter" stroke-opacity="1.0" fill-opacity="1.0" stroke="rgb(0,0,0)" stroke-width="0.0" fill="rgb(0,0,0)" stroke-linecap="butt" stroke-miterlimit="10.0"></g><g stroke-linejoin="miter" stroke-opacity="1.0" fill-opacity="1.0" stroke="rgb(0,0,0)" stroke-width="0.0" fill="rgb(0,0,0)" stroke-linecap="butt" stroke-miterlimit="10.0"><path d="M 19.3548,3.2258 l -2.4183,7.4427 l 2.4183,-1.2714 l 2.4183,1.2714 Z"/></g><g stroke-linejoin="miter" stroke-opacity="1.0" fill-opacity="1.0" stroke="rgb(0,0,0)" stroke-width="0.0" fill="rgb(0,0,0)" stroke-linecap="butt" stroke-miterlimit="10.0"><path d="M 19.3548,9.3971 l -0.0000,0.5257 l -1.0000,-0.0000 l 1.0000,-0.5257 l -0.0000,0.5257 l 1.0000,0.0000 Z"/></g><g stroke-linejoin="miter" stroke-opacity="1.0" fill-opacity="0.0" stroke="rgb(0,0,0)" stroke-width="2.0" fill="rgb(0,0,0)" stroke-linecap="butt" stroke-miterlimit="10.0"><path d="M 19.3548,180.6452 h 170.7223 "/></g><g stroke-linejoin="miter" stroke-opacity="1.0" fill-opacity="1.0" stroke="rgb(0,0,0)" stroke-width="0.0" fill="rgb(0,0,0)" stroke-linecap="butt" stroke-miterlimit="10.0"></g><g stroke-linejoin="miter" stroke-opacity="1.0" fill-opacity="1.0" stroke="rgb(0,0,0)" stroke-width="0.0" fill="rgb(0,0,0)" stroke-linecap="butt" stroke-miterlimit="10.0"></g><g stroke-linejoin="miter" stroke-opacity="1.0" fill-opacity="1.0" stroke="rgb(0,0,0)" stroke-width="0.0" fill="rgb(0,0,0)" stroke-linecap="butt" stroke-miterlimit="10.0"><path d="M 196.7742,180.6452 l -7.4427,-2.4183 l 1.2714,2.4183 l -1.2714,2.4183 Z"/></g><g stroke-linejoin="miter" stroke-opacity="1.0" fill-opacity="1.0" stroke="rgb(0,0,0)" stroke-width="0.0" fill="rgb(0,0,0)" stroke-linecap="butt" stroke-miterlimit="10.0"><path d="M 190.6029,180.6452 h -0.5257 v -1.0000 l 0.5257,1.0000 h -0.5257 v 1.0000 Z"/></g><g stroke-linejoin="miter" stroke-opacity="1.0" fill-opacity="0.0" stroke="rgb(0,0,0)" stroke-width="2.0" fill="rgb(0,0,0)" stroke-linecap="butt" stroke-miterlimit="10.0"><path d="M 16.9355,19.3548 l 4.8387,0.0000 "/></g><g stroke-linejoin="miter" stroke-opacity="1.0" fill-opacity="0.0" stroke="rgb(0,0,0)" stroke-width="2.0" fill="rgb(0,0,0)" stroke-linecap="butt" stroke-miterlimit="10.0"><path d="M 16.9355,51.6129 l 4.8387,0.0000 "/></g><g stroke-linejoin="miter" stroke-opacity="1.0" fill-opacity="0.0" stroke="rgb(0,0,0)" stroke-width="2.0" fill="rgb(0,0,0)" stroke-linecap="butt" stroke-miterlimit="10.0"><path d="M 16.9355,83.8710 l 4.8387,0.0000 "/></g><g stroke-linejoin="miter" stroke-opacity="1.0" fill-opacity="0.0" stroke="rgb(0,0,0)" stroke-width="2.0" fill="rgb(0,0,0)" stroke-linecap="butt" stroke-miterlimit="10.0"><path d="M 16.9355,116.1290 l 4.8387,0.0000 "/></g><g stroke-linejoin="miter" stroke-opacity="1.0" fill-opacity="0.0" stroke="rgb(0,0,0)" stroke-width="2.0" fill="rgb(0,0,0)" stroke-linecap="butt" stroke-miterlimit="10.0"><path d="M 16.9355,148.3871 l 4.8387,0.0000 "/></g><g stroke-linejoin="miter" stroke-opacity="1.0" fill-opacity="0.0" stroke="rgb(0,0,0)" stroke-width="2.0" fill="rgb(0,0,0)" stroke-linecap="butt" stroke-miterlimit="10.0"><path d="M 180.6452,178.2258 v 4.8387 "/></g><g stroke-linejoin="miter" stroke-opacity="1.0" fill-opacity="0.0" stroke="rgb(0,0,0)" stroke-width="2.0" fill="rgb(0,0,0)" stroke-linecap="butt" stroke-miterlimit="10.0"><path d="M 148.3871,178.2258 v 4.8387 "/></g><g stroke-linejoin="miter" stroke-opacity="1.0" fill-opacity="0.0" stroke="rgb(0,0,0)" stroke-width="2.0" fill="rgb(0,0,0)" stroke-linecap="butt" stroke-miterlimit="10.0"><path d="M 116.1290,178.2258 v 4.8387 "/></g><g stroke-linejoin="miter" stroke-opacity="1.0" fill-opacity="0.0" stroke="rgb(0,0,0)" stroke-width="2.0" fill="rgb(0,0,0)" stroke-linecap="butt" stroke-miterlimit="10.0"><path d="M 83.8710,178.2258 v 4.8387 "/></g><g stroke-linejoin="miter" stroke-opacity="1.0" fill-opacity="0.0" stroke="rgb(0,0,0)" stroke-width="2.0" fill="rgb(0,0,0)" stroke-linecap="butt" stroke-miterlimit="10.0"><path d="M 51.6129,178.2258 v 4.8387 "/></g><g stroke-linejoin="miter" stroke-opacity="1.0" fill-opacity="0.0" stroke="rgb(255,0,0)" stroke-width="1.0" fill="rgb(0,0,0)" stroke-linecap="butt" stroke-miterlimit="10.0"><path d="M 148.3871,116.1290 c 2.6882,-0.0000 5.3763,-0.0000 8.0645 -0.0000c 2.6882,-0.0000 5.3763,-0.0000 8.0645 -0.0000c 2.6882,-0.0000 5.3763,-0.0000 8.0645 -0.0000c 2.6882,-0.0000 5.3763,-0.0000 8.0645 -0.0000"/></g><g stroke-linejoin="miter" stroke-opacity="1.0" fill-opacity="1.0" stroke="rgb(255,0,0)" stroke-width="1.0" fill="rgb(255,255,255)" stroke-linecap="butt" stroke-miterlimit="10.0"><path d="M 151.6129,116.1290 c 0.0000,-1.7816 -1.4442,-3.2258 -3.2258 -3.2258c -1.7816,-0.0000 -3.2258,1.4442 -3.2258 3.2258c -0.0000,1.7816 1.4442,3.2258 3.2258 3.2258c 1.7816,0.0000 3.2258,-1.4442 3.2258 -3.2258Z"/></g><g stroke-linejoin="miter" stroke-opacity="1.0" fill-opacity="0.0" stroke="rgb(255,0,0)" stroke-width="1.0" fill="rgb(0,0,0)" stroke-linecap="butt" stroke-miterlimit="10.0"><path d="M 116.1290,19.3548 c 2.6753,-0.0000 5.3506,-0.0000 8.0645 -0.0000c 2.7139,-0.0000 5.4664,-0.0000 8.0645 -0.0000c 2.5981,-0.0000 5.0419,-0.0000 8.0645 -0.0000c 3.0226,-0.0000 6.6240,-0.0000 8.0645 -0.0000c 1.4406,-0.0000 0.7203,-0.0000 0.0000 -0.0000"/></g><g stroke-linejoin="miter" stroke-opacity="1.0" fill-opacity="1.0" stroke="rgb(0,0,0)" stroke-width="0.0" fill="rgb(255,0,0)" stroke-linecap="butt" stroke-miterlimit="10.0"><path d="M 151.6129,19.3548 c 0.0000,-1.7816 -1.4442,-3.2258 -3.2258 -3.2258c -1.7816,-0.0000 -3.2258,1.4442 -3.2258 3.2258c -0.0000,1.7816 1.4442,3.2258 3.2258 3.2258c 1.7816,0.0000 3.2258,-1.4442 3.2258 -3.2258Z"/></g><g stroke-linejoin="miter" stroke-opacity="1.0" fill-opacity="1.0" stroke="rgb(0,0,0)" stroke-width="0.0" fill="rgb(255,0,0)" stroke-linecap="butt" stroke-miterlimit="10.0"><path d="M 119.3548,19.3548 c 0.0000,-1.7816 -1.4442,-3.2258 -3.2258 -3.2258c -1.7816,-0.0000 -3.2258,1.4442 -3.2258 3.2258c -0.0000,1.7816 1.4442,3.2258 3.2258 3.2258c 1.7816,0.0000 3.2258,-1.4442 3.2258 -3.2258Z"/></g><g stroke-linejoin="miter" stroke-opacity="1.0" fill-opacity="0.0" stroke="rgb(255,0,0)" stroke-width="1.0" fill="rgb(0,0,0)" stroke-linecap="butt" stroke-miterlimit="10.0"><path d="M 83.8710,51.6129 c 2.6882,-0.0000 5.3763,-0.0000 8.0645 -0.0000c 2.6882,-0.0000 5.3763,-0.0000 8.0645 -0.0000c 2.6882,-0.0000 5.3763,-0.0000 8.0645 -0.0000c 2.6882,-0.0000 5.3763,-0.0000 8.0645 -0.0000"/></g><g stroke-linejoin="miter" stroke-opacity="1.0" fill-opacity="1.0" stroke="rgb(255,0,0)" stroke-width="1.0" fill="rgb(255,255,255)" stroke-linecap="butt" stroke-miterlimit="10.0"><path d="M 119.3548,51.6129 c 0.0000,-1.7816 -1.4442,-3.2258 -3.2258 -3.2258c -1.7816,-0.0000 -3.2258,1.4442 -3.2258 3.2258c -0.0000,1.7816 1.4442,3.2258 3.2258 3.2258c 1.7816,0.0000 3.2258,-1.4442 3.2258 -3.2258Z"/></g><g stroke-linejoin="miter" stroke-opacity="1.0" fill-opacity="1.0" stroke="rgb(0,0,0)" stroke-width="0.0" fill="rgb(255,0,0)" stroke-linecap="butt" stroke-miterlimit="10.0"><path d="M 87.0968,51.6129 c 0.0000,-1.7816 -1.4442,-3.2258 -3.2258 -3.2258c -1.7816,-0.0000 -3.2258,1.4442 -3.2258 3.2258c -0.0000,1.7816 1.4442,3.2258 3.2258 3.2258c 1.7816,0.0000 3.2258,-1.4442 3.2258 -3.2258Z"/></g><g stroke-linejoin="miter" stroke-opacity="1.0" fill-opacity="0.0" stroke="rgb(255,0,0)" stroke-width="1.0" fill="rgb(0,0,0)" stroke-linecap="butt" stroke-miterlimit="10.0"><path d="M 51.6129,148.3871 c 2.6882,-0.0000 5.3763,-0.0000 8.0645 -0.0000c 2.6882,-0.0000 5.3763,-0.0000 8.0645 -0.0000c 2.6882,-0.0000 5.3763,-0.0000 8.0645 -0.0000c 2.6882,-0.0000 5.3763,-0.0000 8.0645 -0.0000"/></g><g stroke-linejoin="miter" stroke-opacity="1.0" fill-opacity="1.0" stroke="rgb(255,0,0)" stroke-width="1.0" fill="rgb(255,255,255)" stroke-linecap="butt" stroke-miterlimit="10.0"><path d="M 87.0968,148.3871 c 0.0000,-1.7816 -1.4442,-3.2258 -3.2258 -3.2258c -1.7816,-0.0000 -3.2258,1.4442 -3.2258 3.2258c -0.0000,1.7816 1.4442,3.2258 3.2258 3.2258c 1.7816,0.0000 3.2258,-1.4442 3.2258 -3.2258Z"/></g><g stroke-linejoin="miter" stroke-opacity="1.0" fill-opacity="1.0" stroke="rgb(255,0,0)" stroke-width="1.0" fill="rgb(255,255,255)" stroke-linecap="butt" stroke-miterlimit="10.0"><path d="M 54.8387,148.3871 c 0.0000,-1.7816 -1.4442,-3.2258 -3.2258 -3.2258c -1.7816,-0.0000 -3.2258,1.4442 -3.2258 3.2258c -0.0000,1.7816 1.4442,3.2258 3.2258 3.2258c 1.7816,0.0000 3.2258,-1.4442 3.2258 -3.2258Z"/></g><g stroke-linejoin="miter" stroke-opacity="1.0" fill-opacity="0.0" stroke="rgb(255,0,0)" stroke-width="1.0" fill="rgb(0,0,0)" stroke-linecap="butt" stroke-miterlimit="10.0"><path d="M 19.3548,83.8710 c 2.6753,-0.0000 5.3506,-0.0000 8.0645 -0.0000c 2.7139,-0.0000 5.4664,-0.0000 8.0645 -0.0000c 2.5981,-0.0000 5.0419,-0.0000 8.0645 -0.0000c 3.0226,-0.0000 6.6240,-0.0000 8.0645 -0.0000c 1.4406,-0.0000 0.7203,-0.0000 0.0000 -0.0000"/></g><g stroke-linejoin="miter" stroke-opacity="1.0" fill-opacity="1.0" stroke="rgb(0,0,0)" stroke-width="0.0" fill="rgb(255,0,0)" stroke-linecap="butt" stroke-miterlimit="10.0"><path d="M 54.8387,83.8710 c 0.0000,-1.7816 -1.4442,-3.2258 -3.2258 -3.2258c -1.7816,-0.0000 -3.2258,1.4442 -3.2258 3.2258c -0.0000,1.7816 1.4442,3.2258 3.2258 3.2258c 1.7816,0.0000 3.2258,-1.4442 3.2258 -3.2258Z"/></g><g stroke-linejoin="miter" stroke-opacity="1.0" fill-opacity="1.0" stroke="rgb(0,0,0)" stroke-width="0.0" fill="rgb(255,0,0)" stroke-linecap="butt" stroke-miterlimit="10.0"><path d="M 22.5806,83.8710 c 0.0000,-1.7816 -1.4442,-3.2258 -3.2258 -3.2258c -1.7816,-0.0000 -3.2258,1.4442 -3.2258 3.2258c -0.0000,1.7816 1.4442,3.2258 3.2258 3.2258c 1.7816,0.0000 3.2258,-1.4442 3.2258 -3.2258Z"/></g><g stroke-linejoin="miter" stroke-opacity="1.0" fill-opacity="1.0" stroke="rgb(0,0,0)" stroke-width="0.0" fill="rgb(255,0,0)" stroke-linecap="butt" stroke-miterlimit="10.0"><path d="M 183.8710,116.1290 c 0.0000,-1.7816 -1.4442,-3.2258 -3.2258 -3.2258c -1.7816,-0.0000 -3.2258,1.4442 -3.2258 3.2258c -0.0000,1.7816 1.4442,3.2258 3.2258 3.2258c 1.7816,0.0000 3.2258,-1.4442 3.2258 -3.2258Z"/></g></svg>