<svg xmlns="http://www.w3.org/2000/svg" height="188.8334" stroke-opacity="1" viewBox="0 0 450 189" font-size="1" width="450.0000" xmlns:xlink="http://www.w3.org/1999/xlink" stroke="rgb(0,0,0)" version="1.1"><defs></defs><g stroke-linejoin="miter" stroke-opacity="1.0" fill-opacity="0.0" stroke="rgb(0,0,0)" stroke-width="2.0" fill="rgb(0,0,0)" stroke-linecap="butt" stroke-miterlimit="10.0"><path d="M 301.8879,148.1121 l 0.0000,-137.9095 "/></g><g stroke-linejoin="miter" stroke-opacity="1.0" fill-opacity="1.0" stroke="rgb(0,0,0)" stroke-width="0.0" fill="rgb(0,0,0)" stroke-linecap="butt" stroke-miterlimit="10.0"></g><g stroke-linejoin="miter" stroke-opacity="1.0" fill-opacity="1.0" stroke="rgb(0,0,0)" stroke-width="0.0" fill="rgb(0,0,0)" stroke-linecap="butt" stroke-miterlimit="10.0"></g><g stroke-linejoin="miter" stroke-opacity="1.0" fill-opacity="1.0" stroke="rgb(0,0,0)" stroke-width="0.0" fill="rgb(0,0,0)" stroke-linecap="butt" stroke-miterlimit="10.0"><path d="M 301.8879,-0.0000 l -3.7920,11.6705 l 3.7920,-1.9936 l 3.7920,1.9936 Z"/></g><g stroke-linejoin="miter" stroke-opacity="1.0" fill-opacity="1.0" stroke="rgb(0,0,0)" stroke-width="0.0" fill="rgb(0,0,0)" stroke-linecap="butt" stroke-miterlimit="10.0"><path d="M 301.8879,9.6769 l -0.0000,0.5257 l -1.0000,-0.0000 l 1.0000,-0.5257 l -0.0000,0.5257 l 1.0000,0.0000 Z"/></g><g stroke-linejoin="miter" stroke-opacity="1.0" fill-opacity="0.0" stroke="rgb(0,0,0)" stroke-width="2.0" fill="rgb(0,0,0)" stroke-linecap="butt" stroke-miterlimit="10.0"><path d="M 301.8879,148.1121 h 137.9095 "/></g><g stroke-linejoin="miter" stroke-opacity="1.0" fill-opacity="1.0" stroke="rgb(0,0,0)" stroke-width="0.0" fill="rgb(0,0,0)" stroke-linecap="butt" stroke-miterlimit="10.0"></g><g stroke-linejoin="miter" stroke-opacity="1.0" fill-opacity="1.0" stroke="rgb(0,0,0)" stroke-width="0.0" fill="rgb(0,0,0)" stroke-linecap="butt" stroke-miterlimit="10.0"></g><g stroke-linejoin="miter" stroke-opacity="1.0" fill-opacity="1.0" stroke="rgb(0,0,0)" stroke-width="0.0" fill="rgb(0,0,0)" stroke-linecap="butt" stroke-miterlimit="10.0"><path d="M 450.0000,148.1121 l -11.6705,-3.7920 l 1.9936,3.7920 l -1.9936,3.7920 Z"/></g><g stroke-linejoin="miter" stroke-opacity="1.0" fill-opacity="1.0" stroke="rgb(0,0,0)" stroke-width="0.0" fill="rgb(0,0,0)" stroke-linecap="butt" stroke-miterlimit="10.0"><path d="M 440.3231,148.1121 h -0.5257 v -1.0000 l 0.5257,1.0000 h -0.5257 v 1.0000 Z"/></g><g stroke-linejoin="miter" stroke-opacity="1.0" fill-opacity="0.0" stroke="rgb(0,0,0)" stroke-width="2.0" fill="rgb(0,0,0)" stroke-linecap="butt" stroke-miterlimit="10.0"><path d="M 299.8682,13.4647 l 4.0394,0.0000 "/></g><g stroke-linejoin="miter" stroke-opacity="1.0" fill-opacity="0.0" stroke="rgb(0,0,0)" stroke-width="2.0" fill="rgb(0,0,0)" stroke-linecap="butt" stroke-miterlimit="10.0"><path d="M 299.8682,40.3942 l 4.0394,0.0000 "/></g><g stroke-linejoin="miter" stroke-opacity="1.0" fill-opacity="0.0" stroke="rgb(0,0,0)" stroke-width="2.0" fill="rgb(0,0,0)" stroke-linecap="butt" stroke-miterlimit="10.0"><path d="M 299.8682,67.3237 l 4.0394,0.0000 "/></g><g stroke-linejoin="miter" stroke-opacity="1.0" fill-opacity="0.0" stroke="rgb(0,0,0)" stroke-width="2.0" fill="rgb(0,0,0)" stroke-linecap="butt" stroke-miterlimit="10.0"><path d="M 299.8682,94.2532 l 4.0394,0.0000 "/></g><g stroke-linejoin="miter" stroke-opacity="1.0" fill-opacity="0.0" stroke="rgb(0,0,0)" stroke-width="2.0" fill="rgb(0,0,0)" stroke-linecap="butt" stroke-miterlimit="10.0"><path d="M 299.8682,121.1826 l 4.0394,0.0000 "/></g><g stroke-linejoin="miter" stroke-opacity="1.0" fill-opacity="0.0" stroke="rgb(0,0,0)" stroke-width="2.0" fill="rgb(0,0,0)" stroke-linecap="butt" stroke-miterlimit="10.0"><path d="M 436.5353,146.0924 v 4.0394 "/></g><g stroke-linejoin="miter" stroke-opacity="1.0" fill-opacity="0.0" stroke="rgb(0,0,0)" stroke-width="2.0" fill="rgb(0,0,0)" stroke-linecap="butt" stroke-miterlimit="10.0"><path d="M 409.6058,146.0924 v 4.0394 "/></g><g stroke-linejoin="miter" stroke-opacity="1.0" fill-opacity="0.0" stroke="rgb(0,0,0)" stroke-width="2.0" fill="rgb(0,0,0)" stroke-linecap="butt" stroke-miterlimit="10.0"><path d="M 382.6763,146.0924 v 4.0394 "/></g><g stroke-linejoin="miter" stroke-opacity="1.0" fill-opacity="0.0" stroke="rgb(0,0,0)" stroke-width="2.0" fill="rgb(0,0,0)" stroke-linecap="butt" stroke-miterlimit="10.0"><path d="M 355.7468,146.0924 v 4.0394 "/></g><g stroke-linejoin="miter" stroke-opacity="1.0" fill-opacity="0.0" stroke="rgb(0,0,0)" stroke-width="2.0" fill="rgb(0,0,0)" stroke-linecap="butt" stroke-miterlimit="10.0"><path d="M 328.8174,146.0924 v 4.0394 "/></g><g stroke-linejoin="miter" stroke-opacity="1.0" fill-opacity="0.0" stroke="rgb(255,0,0)" stroke-width="1.0" fill="rgb(0,0,0)" stroke-linecap="butt" stroke-miterlimit="10.0"><path d="M 301.8879,121.1826 c 0.8976,1.0571 1.7953,2.1142 2.6929 5.1431c 0.8976,3.0289 1.7953,8.0297 2.6929 13.4647c 0.8976,5.4351 1.7953,11.3045 2.6929 16.6433c 0.8976,5.3388 1.7953,10.1471 2.6929 13.4647c 0.8976,3.3176 1.7953,5.1445 2.6929 5.1431c 0.8976,-0.0015 1.7953,-1.8313 2.6929 -5.1431c 0.8976,-3.3118 1.7953,-8.1055 2.6929 -13.4647c 0.8976,-5.3593 1.7953,-11.2842 2.6929 -16.6433c 0.8977,-5.3592 1.7953,-10.1526 2.6929 -13.4647c 0.8976,-3.3121 1.7953,-5.1428 2.6929 -5.1431c 0.8977,-0.0003 1.7955,1.8299 2.6929 5.1431c 0.8975,3.3131 1.7947,8.1092 2.6929 13.4647c 0.8982,5.3555 1.7974,11.2704 2.6929 16.6433c 0.8955,5.3729 1.7873,10.2038 2.6929 13.4647c 0.9057,3.2609 1.8252,4.9519 2.6929 5.1431c 0.8677,0.1911 1.6837,-1.1176 2.6929 -5.1431c 1.0093,-4.0255 2.2119,-10.7678 2.6929 -13.4647c 0.4810,-2.6969 0.2405,-1.3485 0.0000 -0.0000"/></g><g stroke-linejoin="miter" stroke-opacity="1.0" fill-opacity="1.0" stroke="rgb(0,0,0)" stroke-width="0.0" fill="rgb(255,0,0)" stroke-linecap="butt" stroke-miterlimit="10.0"><path d="M 304.5808,121.1826 c 0.0000,-1.4873 -1.2057,-2.6929 -2.6929 -2.6929c -1.4873,-0.0000 -2.6929,1.2057 -2.6929 2.6929c -0.0000,1.4873 1.2057,2.6929 2.6929 2.6929c 1.4873,0.0000 2.6929,-1.2057 2.6929 -2.6929Z"/></g><g stroke-linejoin="miter" stroke-opacity="1.0" fill-opacity="1.0" stroke="rgb(0,0,0)" stroke-width="0.0" fill="rgb(255,0,0)" stroke-linecap="butt" stroke-miterlimit="10.0"><path d="M 350.3609,156.4338 c 0.0000,-1.4873 -1.2057,-2.6929 -2.6929 -2.6929c -1.4873,-0.0000 -2.6929,1.2057 -2.6929 2.6929c -0.0000,1.4873 1.2057,2.6929 2.6929 2.6929c 1.4873,0.0000 2.6929,-1.2057 2.6929 -2.6929Z"/></g><g stroke-linejoin="miter" stroke-opacity="1.0" fill-opacity="0.0" stroke="rgb(0,0,0)" stroke-width="1.1660190758464775" fill="rgb(0,0,0)" stroke-linecap="butt" stroke-miterlimit="10.0"><path d="M 204.9418,80.7884 h 43.6563 "/></g><g stroke-linejoin="miter" stroke-opacity="1.0" fill-opacity="1.0" stroke="rgb(0,0,0)" stroke-width="0.0" fill="rgb(0,0,0)" stroke-linecap="butt" stroke-miterlimit="10.0"></g><g stroke-linejoin="miter" stroke-opacity="1.0" fill-opacity="1.0" stroke="rgb(0,0,0)" stroke-width="0.0" fill="rgb(0,0,0)" stroke-linecap="butt" stroke-miterlimit="10.0"></g><g stroke-linejoin="miter" stroke-opacity="1.0" fill-opacity="1.0" stroke="rgb(0,0,0)" stroke-width="0.0" fill="rgb(0,0,0)" stroke-linecap="butt" stroke-miterlimit="10.0"><path d="M 258.8007,80.7884 l -11.9349,-3.8779 l 2.0387,3.8779 l -2.0387,3.8779 Z"/></g><g stroke-linejoin="miter" stroke-opacity="1.0" fill-opacity="1.0" stroke="rgb(0,0,0)" stroke-width="0.0" fill="rgb(0,0,0)" stroke-linecap="butt" stroke-miterlimit="10.0"><path d="M 248.9046,80.7884 h -0.3065 v -0.5830 l 0.3065,0.5830 h -0.3065 v 0.5830 Z"/></g><g stroke-linejoin="miter" stroke-opacity="1.0" fill-opacity="0.0" stroke="rgb(0,0,0)" stroke-width="2.0" fill="rgb(0,0,0)" stroke-linecap="butt" stroke-miterlimit="10.0"><path d="M 16.1577,148.1121 l 0.0000,-137.9095 "/></g><g stroke-linejoin="miter" stroke-opacity="1.0" fill-opacity="1.0" stroke="rgb(0,0,0)" stroke-width="0.0" fill="rgb(0,0,0)" stroke-linecap="butt" stroke-miterlimit="10.0"></g><g stroke-linejoin="miter" stroke-opacity="1.0" fill-opacity="1.0" stroke="rgb(0,0,0)" stroke-width="0.0" fill="rgb(0,0,0)" stroke-linecap="butt" stroke-miterlimit="10.0"></g><g stroke-linejoin="miter" stroke-opacity="1.0" fill-opacity="1.0" stroke="rgb(0,0,0)" stroke-width="0.0" fill="rgb(0,0,0)" stroke-linecap="butt" stroke-miterlimit="10.0"><path d="M 16.1577,-0.0000 l -3.7920,11.6705 l 3.7920,-1.9936 l 3.7920,1.9936 Z"/></g><g stroke-linejoin="miter" stroke-opacity="1.0" fill-opacity="1.0" stroke="rgb(0,0,0)" stroke-width="0.0" fill="rgb(0,0,0)" stroke-linecap="butt" stroke-miterlimit="10.0"><path d="M 16.1577,9.6769 l -0.0000,0.5257 l -1.0000,-0.0000 l 1.0000,-0.5257 l -0.0000,0.5257 l 1.0000,0.0000 Z"/></g><g stroke-linejoin="miter" stroke-opacity="1.0" fill-opacity="0.0" stroke="rgb(0,0,0)" stroke-width="2.0" fill="rgb(0,0,0)" stroke-linecap="butt" stroke-miterlimit="10.0"><path d="M 16.1577,148.1121 h 137.9095 "/></g><g stroke-linejoin="miter" stroke-opacity="1.0" fill-opacity="1.0" stroke="rgb(0,0,0)" stroke-width="0.0" fill="rgb(0,0,0)" stroke-linecap="butt" stroke-miterlimit="10.0"></g><g stroke-linejoin="miter" stroke-opacity="1.0" fill-opacity="1.0" stroke="rgb(0,0,0)" stroke-width="0.0" fill="rgb(0,0,0)" stroke-linecap="butt" stroke-miterlimit="10.0"></g><g stroke-linejoin="miter" stroke-opacity="1.0" fill-opacity="1.0" stroke="rgb(0,0,0)" stroke-width="0.0" fill="rgb(0,0,0)" stroke-linecap="butt" stroke-miterlimit="10.0"><path d="M 164.2698,148.1121 l -11.6705,-3.7920 l 1.9936,3.7920 l -1.9936,3.7920 Z"/></g><g stroke-linejoin="miter" stroke-opacity="1.0" fill-opacity="1.0" stroke="rgb(0,0,0)" stroke-width="0.0" fill="rgb(0,0,0)" stroke-linecap="butt" stroke-miterlimit="10.0"><path d="M 154.5929,148.1121 h -0.5257 v -1.0000 l 0.5257,1.0000 h -0.5257 v 1.0000 Z"/></g><g stroke-linejoin="miter" stroke-opacity="1.0" fill-opacity="0.0" stroke="rgb(0,0,0)" stroke-width="2.0" fill="rgb(0,0,0)" stroke-linecap="butt" stroke-miterlimit="10.0"><path d="M 14.1380,13.4647 l 4.0394,0.0000 "/></g><g stroke-linejoin="miter" stroke-opacity="1.0" fill-opacity="0.0" stroke="rgb(0,0,0)" stroke-width="2.0" fill="rgb(0,0,0)" stroke-linecap="butt" stroke-miterlimit="10.0"><path d="M 14.1380,40.3942 l 4.0394,0.0000 "/></g><g stroke-linejoin="miter" stroke-opacity="1.0" fill-opacity="0.0" stroke="rgb(0,0,0)" stroke-width="2.0" fill="rgb(0,0,0)" stroke-linecap="butt" stroke-miterlimit="10.0"><path d="M 14.1380,67.3237 l 4.0394,0.0000 "/></g><g stroke-linejoin="miter" stroke-opacity="1.0" fill-opacity="0.0" stroke="rgb(0,0,0)" stroke-width="2.0" fill="rgb(0,0,0)" stroke-linecap="butt" stroke-miterlimit="10.0"><path d="M 14.1380,94.2532 l 4.0394,0.0000 "/></g><g stroke-linejoin="miter" stroke-opacity="1.0" fill-opacity="0.0" stroke="rgb(0,0,0)" stroke-width="2.0" fill="rgb(0,0,0)" stroke-linecap="butt" stroke-miterlimit="10.0"><path d="M 14.1380,121.1826 l 4.0394,0.0000 "/></g><g stroke-linejoin="miter" stroke-opacity="1.0" fill-opacity="0.0" stroke="rgb(0,0,0)" stroke-width="2.0" fill="rgb(0,0,0)" stroke-linecap="butt" stroke-miterlimit="10.0"><path d="M 150.8051,146.0924 v 4.0394 "/></g><g stroke-linejoin="miter" stroke-opacity="1.0" fill-opacity="0.0" stroke="rgb(0,0,0)" stroke-width="2.0" fill="rgb(0,0,0)" stroke-linecap="butt" stroke-miterlimit="10.0"><path d="M 123.8756,146.0924 v 4.0394 "/></g><g stroke-linejoin="miter" stroke-opacity="1.0" fill-opacity="0.0" stroke="rgb(0,0,0)" stroke-width="2.0" fill="rgb(0,0,0)" stroke-linecap="butt" stroke-miterlimit="10.0"><path d="M 96.9461,146.0924 v 4.0394 "/></g><g stroke-linejoin="miter" stroke-opacity="1.0" fill-opacity="0.0" stroke="rgb(0,0,0)" stroke-width="2.0" fill="rgb(0,0,0)" stroke-linecap="butt" stroke-miterlimit="10.0"><path d="M 70.0166,146.0924 v 4.0394 "/></g><g stroke-linejoin="miter" stroke-opacity="1.0" fill-opacity="0.0" stroke="rgb(0,0,0)" stroke-width="2.0" fill="rgb(0,0,0)" stroke-linecap="butt" stroke-miterlimit="10.0"><path d="M 43.0872,146.0924 v 4.0394 "/></g><g stroke-linejoin="miter" stroke-opacity="1.0" fill-opacity="0.0" stroke="rgb(255,0,0)" stroke-width="1.0" fill="rgb(0,0,0)" stroke-linecap="butt" stroke-miterlimit="10.0"><path d="M 16.1577,121.1826 c 0.8976,1.0571 1.7953,2.1142 2.6929 5.1431c 0.8976,3.0289 1.7953,8.0297 2.6929 13.4647c 0.8976,5.4351 1.7953,11.3045 2.6929 16.6433c 0.8976,5.3388 1.7953,10.1471 2.6929 13.4647c 0.8976,3.3176 1.7953,5.1445 2.6929 5.1431c 0.8976,-0.0015 1.7953,-1.8313 2.6929 -5.1431c 0.8976,-3.3118 1.7953,-8.1055 2.6929 -13.4647c 0.8976,-5.3593 1.7953,-11.2842 2.6929 -16.6433c 0.8976,-5.3592 1.7953,-10.1526 2.6929 -13.4647c 0.8976,-3.3122 1.7953,-5.1431 2.6929 -5.1431c 0.8976,0.0000 1.7953,1.8309 2.6929 5.1431c 0.8976,3.3122 1.7953,8.1056 2.6929 13.4647c 0.8976,5.3592 1.7953,11.2841 2.6929 16.6433c 0.8976,5.3592 1.7953,10.1526 2.6929 13.4647c 0.8976,3.3122 1.7953,5.1431 2.6929 5.1431c 0.8976,-0.0000 1.7953,-1.8309 2.6929 -5.1431c 0.8976,-3.3122 1.7953,-8.1056 2.6929 -13.4647c 0.8976,-5.3592 1.7953,-11.2841 2.6929 -16.6433c 0.8976,-5.3592 1.7953,-10.1526 2.6929 -13.4647c 0.8976,-3.3122 1.7953,-5.1431 2.6929 -5.1431c 0.8976,0.0000 1.7953,1.8309 2.6929 5.1431c 0.8976,3.3122 1.7953,8.1056 2.6929 13.4647c 0.8976,5.3592 1.7953,11.2841 2.6929 16.6433c 0.8976,5.3592 1.7953,10.1526 2.6929 13.4647c 0.8976,3.3122 1.7953,5.1431 2.6929 5.1431c 0.8976,-0.0000 1.7953,-1.8309 2.6929 -5.1431c 0.8976,-3.3122 1.7953,-8.1056 2.6929 -13.4647c 0.8976,-5.3592 1.7953,-11.2841 2.6929 -16.6433c 0.8976,-5.3592 1.7953,-10.1526 2.6929 -13.4647c 0.8976,-3.3122 1.7953,-5.1431 2.6929 -5.1431c 0.8976,-0.0000 1.7953,1.8309 2.6929 5.1431c 0.8976,3.3122 1.7953,8.1056 2.6929 13.4647c 0.8976,5.3592 1.7953,11.2841 2.6929 16.6433c 0.8976,5.3592 1.7953,10.1526 2.6929 13.4647c 0.8976,3.3122 1.7953,5.1431 2.6929 5.1431c 0.8976,0.0000 1.7953,-1.8309 2.6929 -5.1431c 0.8976,-3.3122 1.7953,-8.1056 2.6929 -13.4647c 0.8976,-5.3592 1.7953,-11.2841 2.6929 -16.6433c 0.8976,-5.3592 1.7953,-10.1526 2.6929 -13.4647c 0.8976,-3.3122 1.7953,-5.1431 2.6929 -5.1431c 0.8976,-0.0000 1.7953,1.8309 2.6929 5.1431c 0.8976,3.3122 1.7953,8.1056 2.6929 13.4647c 0.8976,5.3592 1.7953,11.2841 2.6929 16.6433c 0.8976,5.3592 1.7953,10.1526 2.6929 13.4647c 0.8976,3.3122 1.7953,5.1431 2.6929 5.1431c 0.8976,0.0000 1.7953,-1.8309 2.6929 -5.1431c 0.8977,-3.3122 1.7953,-8.1056 2.6929 -13.4647c 0.8976,-5.3592 1.7953,-11.2841 2.6929 -16.6433c 0.8977,-5.3592 1.7955,-10.1528 2.6929 -13.4647c 0.8975,-3.3119 1.7947,-5.1423 2.6929 -5.1431c 0.8982,-0.0008 1.7974,1.8280 2.6929 5.1431c 0.8955,3.3151 1.7873,8.1165 2.6929 13.4647c 0.9057,5.3483 1.8252,11.2435 2.6929 16.6433c 0.8677,5.3999 1.6837,10.3044 2.6929 13.4647c 1.0093,3.1604 2.2119,4.5766 2.6929 5.1431c 0.4810,0.5665 0.2405,0.2832 0.0000 -0.0000"/></g><g stroke-linejoin="miter" stroke-opacity="1.0" fill-opacity="1.0" stroke="rgb(0,0,0)" stroke-width="0.0" fill="rgb(255,0,0)" stroke-linecap="butt" stroke-miterlimit="10.0"><path d="M 18.8506,121.1826 c 0.0000,-1.4873 -1.2057,-2.6929 -2.6929 -2.6929c -1.4873,-0.0000 -2.6929,1.2057 -2.6929 2.6929c -0.0000,1.4873 1.2057,2.6929 2.6929 2.6929c 1.4873,0.0000 2.6929,-1.2057 2.6929 -2.6929Z"/></g></svg>