<svg xmlns="http://www.w3.org/2000/svg" height="169.4444" stroke-opacity="1" viewBox="0 0 450 169" font-size="1" width="450.0000" xmlns:xlink="http://www.w3.org/1999/xlink" stroke="rgb(0,0,0)" version="1.1"><defs></defs><g stroke-linejoin="miter" stroke-opacity="1.0" fill-opacity="0.0" stroke="rgb(0,0,0)" stroke-width="2.0" fill="rgb(0,0,0)" stroke-linecap="butt" stroke-miterlimit="10.0"><path d="M 297.2222,152.7778 l 0.0000,-143.1131 "/></g><g stroke-linejoin="miter" stroke-opacity="1.0" fill-opacity="1.0" stroke="rgb(0,0,0)" stroke-width="0.0" fill="rgb(0,0,0)" stroke-linecap="butt" stroke-miterlimit="10.0"></g><g stroke-linejoin="miter" stroke-opacity="1.0" fill-opacity="1.0" stroke="rgb(0,0,0)" stroke-width="0.0" fill="rgb(0,0,0)" stroke-linecap="butt" stroke-miterlimit="10.0"></g><g stroke-linejoin="miter" stroke-opacity="1.0" fill-opacity="1.0" stroke="rgb(0,0,0)" stroke-width="0.0" fill="rgb(0,0,0)" stroke-linecap="butt" stroke-miterlimit="10.0"><path d="M 297.2222,0.0000 l -3.5812,11.0217 l 3.5812,-1.8827 l 3.5812,1.8827 Z"/></g><g stroke-linejoin="miter" stroke-opacity="1.0" fill-opacity="1.0" stroke="rgb(0,0,0)" stroke-width="0.0" fill="rgb(0,0,0)" stroke-linecap="butt" stroke-miterlimit="10.0"><path d="M 297.2222,9.1390 l -0.0000,0.5257 l -1.0000,-0.0000 l 1.0000,-0.5257 l -0.0000,0.5257 l 1.0000,0.0000 Z"/></g><g stroke-linejoin="miter" stroke-opacity="1.0" fill-opacity="0.0" stroke="rgb(0,0,0)" stroke-width="2.0" fill="rgb(0,0,0)" stroke-linecap="butt" stroke-miterlimit="10.0"><path d="M 297.2222,152.7778 h 143.1131 "/></g><g stroke-linejoin="miter" stroke-opacity="1.0" fill-opacity="1.0" stroke="rgb(0,0,0)" stroke-width="0.0" fill="rgb(0,0,0)" stroke-linecap="butt" stroke-miterlimit="10.0"></g><g stroke-linejoin="miter" stroke-opacity="1.0" fill-opacity="1.0" stroke="rgb(0,0,0)" stroke-width="0.0" fill="rgb(0,0,0)" stroke-linecap="butt" stroke-miterlimit="10.0"></g><g stroke-linejoin="miter" stroke-opacity="1.0" fill-opacity="1.0" stroke="rgb(0,0,0)" stroke-width="0.0" fill="rgb(0,0,0)" stroke-linecap="butt" stroke-miterlimit="10.0"><path d="M 450.0000,152.7778 l -11.0217,-3.5812 l 1.8827,3.5812 l -1.8827,3.5812 Z"/></g><g stroke-linejoin="miter" stroke-opacity="1.0" fill-opacity="1.0" stroke="rgb(0,0,0)" stroke-width="0.0" fill="rgb(0,0,0)" stroke-linecap="butt" stroke-miterlimit="10.0"><path d="M 440.8610,152.7778 h -0.5257 v -1.0000 l 0.5257,1.0000 h -0.5257 v 1.0000 Z"/></g><g stroke-linejoin="miter" stroke-opacity="1.0" fill-opacity="0.0" stroke="rgb(0,0,0)" stroke-width="2.0" fill="rgb(0,0,0)" stroke-linecap="butt" stroke-miterlimit="10.0"><path d="M 295.1389,13.8889 l 4.1667,0.0000 "/></g><g stroke-linejoin="miter" stroke-opacity="1.0" fill-opacity="0.0" stroke="rgb(0,0,0)" stroke-width="2.0" fill="rgb(0,0,0)" stroke-linecap="butt" stroke-miterlimit="10.0"><path d="M 295.1389,41.6667 l 4.1667,0.0000 "/></g><g stroke-linejoin="miter" stroke-opacity="1.0" fill-opacity="0.0" stroke="rgb(0,0,0)" stroke-width="2.0" fill="rgb(0,0,0)" stroke-linecap="butt" stroke-miterlimit="10.0"><path d="M 295.1389,69.4444 l 4.1667,0.0000 "/></g><g stroke-linejoin="miter" stroke-opacity="1.0" fill-opacity="0.0" stroke="rgb(0,0,0)" stroke-width="2.0" fill="rgb(0,0,0)" stroke-linecap="butt" stroke-miterlimit="10.0"><path d="M 295.1389,97.2222 l 4.1667,0.0000 "/></g><g stroke-linejoin="miter" stroke-opacity="1.0" fill-opacity="0.0" stroke="rgb(0,0,0)" stroke-width="2.0" fill="rgb(0,0,0)" stroke-linecap="butt" stroke-miterlimit="10.0"><path d="M 295.1389,125.0000 l 4.1667,0.0000 "/></g><g stroke-linejoin="miter" stroke-opacity="1.0" fill-opacity="0.0" stroke="rgb(0,0,0)" stroke-width="2.0" fill="rgb(0,0,0)" stroke-linecap="butt" stroke-miterlimit="10.0"><path d="M 436.1111,150.6944 v 4.1667 "/></g><g stroke-linejoin="miter" stroke-opacity="1.0" fill-opacity="0.0" stroke="rgb(0,0,0)" stroke-width="2.0" fill="rgb(0,0,0)" stroke-linecap="butt" stroke-miterlimit="10.0"><path d="M 408.3333,150.6944 v 4.1667 "/></g><g stroke-linejoin="miter" stroke-opacity="1.0" fill-opacity="0.0" stroke="rgb(0,0,0)" stroke-width="2.0" fill="rgb(0,0,0)" stroke-linecap="butt" stroke-miterlimit="10.0"><path d="M 380.5556,150.6944 v 4.1667 "/></g><g stroke-linejoin="miter" stroke-opacity="1.0" fill-opacity="0.0" stroke="rgb(0,0,0)" stroke-width="2.0" fill="rgb(0,0,0)" stroke-linecap="butt" stroke-miterlimit="10.0"><path d="M 352.7778,150.6944 v 4.1667 "/></g><g stroke-linejoin="miter" stroke-opacity="1.0" fill-opacity="0.0" stroke="rgb(0,0,0)" stroke-width="2.0" fill="rgb(0,0,0)" stroke-linecap="butt" stroke-miterlimit="10.0"><path d="M 325.0000,150.6944 v 4.1667 "/></g><g stroke-linejoin="miter" stroke-opacity="1.0" fill-opacity="0.0" stroke="rgb(255,0,0)" stroke-width="1.0" fill="rgb(0,0,0)" stroke-linecap="butt" stroke-miterlimit="10.0"><path d="M 352.7778,96.9444 c 0.9259,-0.9259 1.8519,-1.8519 2.7778 -2.7778c 0.9259,-0.9259 1.8519,-1.8518 2.7778 -2.7778c 0.9259,-0.9259 1.8519,-1.8519 2.7778 -2.7778c 0.9259,-0.9259 1.8519,-1.8518 2.7778 -2.7778c 0.9259,-0.9260 1.8519,-1.8521 2.7778 -2.7778c 0.9259,-0.9257 1.8519,-1.8510 2.7778 -2.7778c 0.9259,-0.9268 1.8519,-1.8549 2.7778 -2.7778c 0.9259,-0.9228 1.8519,-1.8403 2.7778 -2.7778c 0.9259,-0.9374 1.8519,-1.8948 2.7778 -2.7778c 0.9259,-0.8830 1.8519,-1.6915 2.7778 -2.5000"/></g><g stroke-linejoin="miter" stroke-opacity="1.0" fill-opacity="1.0" stroke="rgb(255,0,0)" stroke-width="1.0" fill="rgb(255,255,255)" stroke-linecap="butt" stroke-miterlimit="10.0"><path d="M 355.5556,96.9444 c 0.0000,-1.5341 -1.2437,-2.7778 -2.7778 -2.7778c -1.5341,-0.0000 -2.7778,1.2437 -2.7778 2.7778c -0.0000,1.5341 1.2437,2.7778 2.7778 2.7778c 1.5341,0.0000 2.7778,-1.2437 2.7778 -2.7778Z"/></g><g stroke-linejoin="miter" stroke-opacity="1.0" fill-opacity="0.0" stroke="rgb(255,0,0)" stroke-width="1.0" fill="rgb(0,0,0)" stroke-linecap="butt" stroke-miterlimit="10.0"><path d="M 297.2222,121.5278 c 0.9259,-0.7896 1.8519,-1.5793 2.7778 -2.1146c 0.9259,-0.5354 1.8519,-0.8165 2.7778 -1.0417c 0.9259,-0.2251 1.8519,-0.3943 2.7778 -0.6318c 0.9259,-0.2375 1.8519,-0.5435 2.7778 -1.0417c 0.9259,-0.4982 1.8519,-1.1885 2.7778 -2.1146c 0.9259,-0.9261 1.8519,-2.0880 2.7778 -3.4409c 0.9259,-1.3529 1.8519,-2.8969 2.7778 -4.5139c 0.9259,-1.6169 1.8519,-3.3068 2.7778 -4.9237c 0.9259,-1.6169 1.8519,-3.1609 2.7778 -4.5139c 0.9259,-1.3530 1.8519,-2.5150 2.7778 -3.4409c 0.9259,-0.9259 1.8518,-1.6158 2.7778 -2.1146c 0.9259,-0.4989 1.8519,-0.8068 2.7778 -1.0417c 0.9259,-0.2349 1.8518,-0.3969 2.7778 -0.6318c 0.9260,-0.2350 1.8520,-0.5429 2.7778 -1.0417c 0.9258,-0.4987 1.8513,-1.1882 2.7778 -2.1146c 0.9265,-0.9264 1.8541,-2.0898 2.7778 -3.4409c 0.9237,-1.3511 1.8436,-2.8901 2.7778 -4.5139c 0.9342,-1.6238 1.8827,-3.3324 2.7778 -4.9237c 0.8951,-1.5913 1.7367,-3.0653 2.7778 -4.5139c 1.0411,-1.4486 2.2816,-2.8717 2.7778 -3.4409c 0.4962,-0.5692 0.2481,-0.2846 -0.0000 -0.0000"/></g><g stroke-linejoin="miter" stroke-opacity="1.0" fill-opacity="1.0" stroke="rgb(0,0,0)" stroke-width="0.0" fill="rgb(255,0,0)" stroke-linecap="butt" stroke-miterlimit="10.0"><path d="M 355.5556,65.9722 c 0.0000,-1.5341 -1.2437,-2.7778 -2.7778 -2.7778c -1.5341,-0.0000 -2.7778,1.2437 -2.7778 2.7778c -0.0000,1.5341 1.2437,2.7778 2.7778 2.7778c 1.5341,0.0000 2.7778,-1.2437 2.7778 -2.7778Z"/></g><g stroke-linejoin="miter" stroke-opacity="1.0" fill-opacity="1.0" stroke="rgb(0,0,0)" stroke-width="0.0" fill="rgb(255,0,0)" stroke-linecap="butt" stroke-miterlimit="10.0"><path d="M 300.0000,121.5278 c 0.0000,-1.5341 -1.2437,-2.7778 -2.7778 -2.7778c -1.5341,-0.0000 -2.7778,1.2437 -2.7778 2.7778c -0.0000,1.5341 1.2437,2.7778 2.7778 2.7778c 1.5341,0.0000 2.7778,-1.2437 2.7778 -2.7778Z"/></g><g stroke-linejoin="miter" stroke-opacity="1.0" fill-opacity="1.0" stroke="rgb(0,0,0)" stroke-width="0.0" fill="rgb(255,0,0)" stroke-linecap="butt" stroke-miterlimit="10.0"><path d="M 383.3333,69.4444 c 0.0000,-1.5341 -1.2437,-2.7778 -2.7778 -2.7778c -1.5341,-0.0000 -2.7778,1.2437 -2.7778 2.7778c -0.0000,1.5341 1.2437,2.7778 2.7778 2.7778c 1.5341,0.0000 2.7778,-1.2437 2.7778 -2.7778Z"/></g><g stroke-linejoin="miter" stroke-opacity="1.0" fill-opacity="0.0" stroke="rgb(0,0,0)" stroke-width="1.104536101718726" fill="rgb(0,0,0)" stroke-linecap="butt" stroke-miterlimit="10.0"><path d="M 197.2222,83.3333 h 45.8909 "/></g><g stroke-linejoin="miter" stroke-opacity="1.0" fill-opacity="1.0" stroke="rgb(0,0,0)" stroke-width="0.0" fill="rgb(0,0,0)" stroke-linecap="butt" stroke-miterlimit="10.0"></g><g stroke-linejoin="miter" stroke-opacity="1.0" fill-opacity="1.0" stroke="rgb(0,0,0)" stroke-width="0.0" fill="rgb(0,0,0)" stroke-linecap="butt" stroke-miterlimit="10.0"></g><g stroke-linejoin="miter" stroke-opacity="1.0" fill-opacity="1.0" stroke="rgb(0,0,0)" stroke-width="0.0" fill="rgb(0,0,0)" stroke-linecap="butt" stroke-miterlimit="10.0"><path d="M 252.7778,83.3333 l -11.3056,-3.6734 l 1.9312,3.6734 l -1.9312,3.6734 Z"/></g><g stroke-linejoin="miter" stroke-opacity="1.0" fill-opacity="1.0" stroke="rgb(0,0,0)" stroke-width="0.0" fill="rgb(0,0,0)" stroke-linecap="butt" stroke-miterlimit="10.0"><path d="M 243.4034,83.3333 h -0.2903 v -0.5523 l 0.2903,0.5523 h -0.2903 v 0.5523 Z"/></g><g stroke-linejoin="miter" stroke-opacity="1.0" fill-opacity="0.0" stroke="rgb(0,0,0)" stroke-width="2.0" fill="rgb(0,0,0)" stroke-linecap="butt" stroke-miterlimit="10.0"><path d="M 16.6667,152.7778 l 0.0000,-143.1131 "/></g><g stroke-linejoin="miter" stroke-opacity="1.0" fill-opacity="1.0" stroke="rgb(0,0,0)" stroke-width="0.0" fill="rgb(0,0,0)" stroke-linecap="butt" stroke-miterlimit="10.0"></g><g stroke-linejoin="miter" stroke-opacity="1.0" fill-opacity="1.0" stroke="rgb(0,0,0)" stroke-width="0.0" fill="rgb(0,0,0)" stroke-linecap="butt" stroke-miterlimit="10.0"></g><g stroke-linejoin="miter" stroke-opacity="1.0" fill-opacity="1.0" stroke="rgb(0,0,0)" stroke-width="0.0" fill="rgb(0,0,0)" stroke-linecap="butt" stroke-miterlimit="10.0"><path d="M 16.6667,0.0000 l -3.5812,11.0217 l 3.5812,-1.8827 l 3.5812,1.8827 Z"/></g><g stroke-linejoin="miter" stroke-opacity="1.0" fill-opacity="1.0" stroke="rgb(0,0,0)" stroke-width="0.0" fill="rgb(0,0,0)" stroke-linecap="butt" stroke-miterlimit="10.0"><path d="M 16.6667,9.1390 l -0.0000,0.5257 l -1.0000,-0.0000 l 1.0000,-0.5257 l -0.0000,0.5257 l 1.0000,0.0000 Z"/></g><g stroke-linejoin="miter" stroke-opacity="1.0" fill-opacity="0.0" stroke="rgb(0,0,0)" stroke-width="2.0" fill="rgb(0,0,0)" stroke-linecap="butt" stroke-miterlimit="10.0"><path d="M 16.6667,152.7778 h 143.1131 "/></g><g stroke-linejoin="miter" stroke-opacity="1.0" fill-opacity="1.0" stroke="rgb(0,0,0)" stroke-width="0.0" fill="rgb(0,0,0)" stroke-linecap="butt" stroke-miterlimit="10.0"></g><g stroke-linejoin="miter" stroke-opacity="1.0" fill-opacity="1.0" stroke="rgb(0,0,0)" stroke-width="0.0" fill="rgb(0,0,0)" stroke-linecap="butt" stroke-miterlimit="10.0"></g><g stroke-linejoin="miter" stroke-opacity="1.0" fill-opacity="1.0" stroke="rgb(0,0,0)" stroke-width="0.0" fill="rgb(0,0,0)" stroke-linecap="butt" stroke-miterlimit="10.0"><path d="M 169.4444,152.7778 l -11.0217,-3.5812 l 1.8827,3.5812 l -1.8827,3.5812 Z"/></g><g stroke-linejoin="miter" stroke-opacity="1.0" fill-opacity="1.0" stroke="rgb(0,0,0)" stroke-width="0.0" fill="rgb(0,0,0)" stroke-linecap="butt" stroke-miterlimit="10.0"><path d="M 160.3055,152.7778 h -0.5257 v -1.0000 l 0.5257,1.0000 h -0.5257 v 1.0000 Z"/></g><g stroke-linejoin="miter" stroke-opacity="1.0" fill-opacity="0.0" stroke="rgb(0,0,0)" stroke-width="2.0" fill="rgb(0,0,0)" stroke-linecap="butt" stroke-miterlimit="10.0"><path d="M 14.5833,13.8889 l 4.1667,0.0000 "/></g><g stroke-linejoin="miter" stroke-opacity="1.0" fill-opacity="0.0" stroke="rgb(0,0,0)" stroke-width="2.0" fill="rgb(0,0,0)" stroke-linecap="butt" stroke-miterlimit="10.0"><path d="M 14.5833,41.6667 l 4.1667,0.0000 "/></g><g stroke-linejoin="miter" stroke-opacity="1.0" fill-opacity="0.0" stroke="rgb(0,0,0)" stroke-width="2.0" fill="rgb(0,0,0)" stroke-linecap="butt" stroke-miterlimit="10.0"><path d="M 14.5833,69.4444 l 4.1667,0.0000 "/></g><g stroke-linejoin="miter" stroke-opacity="1.0" fill-opacity="0.0" stroke="rgb(0,0,0)" stroke-width="2.0" fill="rgb(0,0,0)" stroke-linecap="butt" stroke-miterlimit="10.0"><path d="M 14.5833,97.2222 l 4.1667,0.0000 "/></g><g stroke-linejoin="miter" stroke-opacity="1.0" fill-opacity="0.0" stroke="rgb(0,0,0)" stroke-width="2.0" fill="rgb(0,0,0)" stroke-linecap="butt" stroke-miterlimit="10.0"><path d="M 14.5833,125.0000 l 4.1667,0.0000 "/></g><g stroke-linejoin="miter" stroke-opacity="1.0" fill-opacity="0.0" stroke="rgb(0,0,0)" stroke-width="2.0" fill="rgb(0,0,0)" stroke-linecap="butt" stroke-miterlimit="10.0"><path d="M 155.5556,150.6944 v 4.1667 "/></g><g stroke-linejoin="miter" stroke-opacity="1.0" fill-opacity="0.0" stroke="rgb(0,0,0)" stroke-width="2.0" fill="rgb(0,0,0)" stroke-linecap="butt" stroke-miterlimit="10.0"><path d="M 127.7778,150.6944 v 4.1667 "/></g><g stroke-linejoin="miter" stroke-opacity="1.0" fill-opacity="0.0" stroke="rgb(0,0,0)" stroke-width="2.0" fill="rgb(0,0,0)" stroke-linecap="butt" stroke-miterlimit="10.0"><path d="M 100.0000,150.6944 v 4.1667 "/></g><g stroke-linejoin="miter" stroke-opacity="1.0" fill-opacity="0.0" stroke="rgb(0,0,0)" stroke-width="2.0" fill="rgb(0,0,0)" stroke-linecap="butt" stroke-miterlimit="10.0"><path d="M 72.2222,150.6944 v 4.1667 "/></g><g stroke-linejoin="miter" stroke-opacity="1.0" fill-opacity="0.0" stroke="rgb(0,0,0)" stroke-width="2.0" fill="rgb(0,0,0)" stroke-linecap="butt" stroke-miterlimit="10.0"><path d="M 44.4444,150.6944 v 4.1667 "/></g><g stroke-linejoin="miter" stroke-opacity="1.0" fill-opacity="0.0" stroke="rgb(255,0,0)" stroke-width="1.0" fill="rgb(0,0,0)" stroke-linecap="butt" stroke-miterlimit="10.0"><path d="M 16.6667,121.5278 c 0.9259,0.1363 1.8519,0.2726 2.7778 0.6631c 0.9259,0.3905 1.8519,1.0353 2.7778 1.7361c 0.9259,0.7008 1.8519,1.4576 2.7778 2.1460c 0.9259,0.6884 1.8519,1.3083 2.7778 1.7361c 0.9259,0.4278 1.8519,0.6633 2.7778 0.6631c 0.9259,-0.0002 1.8519,-0.2361 2.7778 -0.6631c 0.9259,-0.4270 1.8519,-1.0451 2.7778 -1.7361c 0.9259,-0.6910 1.8519,-1.4550 2.7778 -2.1460c 0.9259,-0.6910 1.8519,-1.3090 2.7778 -1.7361c 0.9259,-0.4271 1.8519,-0.6631 2.7778 -0.6631c 0.9259,0.0000 1.8518,0.2361 2.7778 0.6631c 0.9259,0.4271 1.8519,1.0451 2.7778 1.7361c 0.9259,0.6910 1.8518,1.4549 2.7778 2.1460c 0.9260,0.6910 1.8520,1.3091 2.7778 1.7361c 0.9258,0.4270 1.8513,0.6630 2.7778 0.6631c 0.9265,0.0001 1.8541,-0.2357 2.7778 -0.6631c 0.9237,-0.4274 1.8436,-1.0465 2.7778 -1.7361c 0.9342,-0.6896 1.8827,-1.4497 2.7778 -2.1460c 0.8951,-0.6962 1.7367,-1.3286 2.7778 -1.7361c 1.0411,-0.4075 2.2816,-0.5901 2.7778 -0.6631c 0.4962,-0.0730 0.2481,-0.0365 -0.0000 -0.0000"/></g><g stroke-linejoin="miter" stroke-opacity="1.0" fill-opacity="1.0" stroke="rgb(0,0,0)" stroke-width="0.0" fill="rgb(255,0,0)" stroke-linecap="butt" stroke-miterlimit="10.0"><path d="M 19.4444,121.5278 c 0.0000,-1.5341 -1.2437,-2.7778 -2.7778 -2.7778c -1.5341,-0.0000 -2.7778,1.2437 -2.7778 2.7778c -0.0000,1.5341 1.2437,2.7778 2.7778 2.7778c 1.5341,0.0000 2.7778,-1.2437 2.7778 -2.7778Z"/></g><g stroke-linejoin="miter" stroke-opacity="1.0" fill-opacity="1.0" stroke="rgb(0,0,0)" stroke-width="0.0" fill="rgb(255,0,0)" stroke-linecap="butt" stroke-miterlimit="10.0"><path d="M 75.0000,121.5278 c 0.0000,-1.5341 -1.2437,-2.7778 -2.7778 -2.7778c -1.5341,-0.0000 -2.7778,1.2437 -2.7778 2.7778c -0.0000,1.5341 1.2437,2.7778 2.7778 2.7778c 1.5341,0.0000 2.7778,-1.2437 2.7778 -2.7778Z"/></g><g stroke-linejoin="miter" stroke-opacity="1.0" fill-opacity="0.0" stroke="rgb(255,0,0)" stroke-width="1.0" fill="rgb(0,0,0)" stroke-linecap="butt" stroke-miterlimit="10.0"><path d="M 16.6667,152.7778 c 0.9259,-0.9259 1.8519,-1.8519 2.7778 -2.7778c 0.9259,-0.9259 1.8519,-1.8519 2.7778 -2.7778c 0.9259,-0.9259 1.8519,-1.8519 2.7778 -2.7778c 0.9259,-0.9259 1.8519,-1.8519 2.7778 -2.7778c 0.9259,-0.9259 1.8519,-1.8519 2.7778 -2.7778c 0.9259,-0.9259 1.8519,-1.8519 2.7778 -2.7778c 0.9259,-0.9259 1.8519,-1.8519 2.7778 -2.7778c 0.9259,-0.9259 1.8519,-1.8519 2.7778 -2.7778c 0.9259,-0.9259 1.8519,-1.8519 2.7778 -2.7778c 0.9259,-0.9259 1.8519,-1.8519 2.7778 -2.7778c 0.9259,-0.9259 1.8519,-1.8519 2.7778 -2.7778c 0.9259,-0.9259 1.8519,-1.8519 2.7778 -2.7778c 0.9259,-0.9259 1.8519,-1.8519 2.7778 -2.7778c 0.9259,-0.9259 1.8519,-1.8519 2.7778 -2.7778c 0.9259,-0.9259 1.8519,-1.8519 2.7778 -2.7778c 0.9259,-0.9259 1.8519,-1.8519 2.7778 -2.7778c 0.9259,-0.9259 1.8519,-1.8519 2.7778 -2.7778c 0.9259,-0.9259 1.8519,-1.8519 2.7778 -2.7778c 0.9259,-0.9259 1.8519,-1.8519 2.7778 -2.7778c 0.9259,-0.9259 1.8519,-1.8519 2.7778 -2.7778c 0.9259,-0.9259 1.8518,-1.8518 2.7778 -2.7778c 0.9259,-0.9259 1.8519,-1.8519 2.7778 -2.7778c 0.9259,-0.9259 1.8518,-1.8518 2.7778 -2.7778c 0.9260,-0.9260 1.8520,-1.8520 2.7778 -2.7778c 0.9258,-0.9258 1.8513,-1.8513 2.7778 -2.7778c 0.9265,-0.9265 1.8541,-1.8541 2.7778 -2.7778c 0.9237,-0.9237 1.8436,-1.8436 2.7778 -2.7778c 0.9342,-0.9342 1.8827,-1.8827 2.7778 -2.7778c 0.8951,-0.8951 1.7367,-1.7367 2.7778 -2.7778c 1.0411,-1.0411 2.2816,-2.2816 2.7778 -2.7778c 0.4962,-0.4962 0.2481,-0.2481 0.0000 -0.0000"/></g><g stroke-linejoin="miter" stroke-opacity="1.0" fill-opacity="1.0" stroke="rgb(0,0,0)" stroke-width="0.0" fill="rgb(255,0,0)" stroke-linecap="butt" stroke-miterlimit="10.0"><path d="M 19.4444,152.7778 c 0.0000,-1.5341 -1.2437,-2.7778 -2.7778 -2.7778c -1.5341,-0.0000 -2.7778,1.2437 -2.7778 2.7778c -0.0000,1.5341 1.2437,2.7778 2.7778 2.7778c 1.5341,0.0000 2.7778,-1.2437 2.7778 -2.7778Z"/></g><g stroke-linejoin="miter" stroke-opacity="1.0" fill-opacity="1.0" stroke="rgb(0,0,0)" stroke-width="0.0" fill="rgb(255,0,0)" stroke-linecap="butt" stroke-miterlimit="10.0"><path d="M 102.7778,69.4444 c 0.0000,-1.5341 -1.2437,-2.7778 -2.7778 -2.7778c -1.5341,-0.0000 -2.7778,1.2437 -2.7778 2.7778c -0.0000,1.5341 1.2437,2.7778 2.7778 2.7778c 1.5341,0.0000 2.7778,-1.2437 2.7778 -2.7778Z"/></g></svg>