<svg xmlns="http://www.w3.org/2000/svg" height="182.7869" stroke-opacity="1" viewBox="0 0 200 183" font-size="1" width="200.0000" xmlns:xlink="http://www.w3.org/1999/xlink" stroke="rgb(0,0,0)" version="1.1"><defs></defs><g stroke-linejoin="miter" stroke-opacity="1.0" fill-opacity="0.0" stroke="rgb(0,0,0)" stroke-width="2.0" fill="rgb(0,0,0)" stroke-linecap="butt" stroke-miterlimit="10.0"><path d="M 19.6721,180.3279 l 0.0000,-173.6359 "/></g><g stroke-linejoin="miter" stroke-opacity="1.0" fill-opacity="1.0" stroke="rgb(0,0,0)" stroke-width="0.0" fill="rgb(0,0,0)" stroke-linecap="butt" stroke-miterlimit="10.0"></g><g stroke-linejoin="miter" stroke-opacity="1.0" fill-opacity="1.0" stroke="rgb(0,0,0)" stroke-width="0.0" fill="rgb(0,0,0)" stroke-linecap="butt" stroke-miterlimit="10.0"></g><g stroke-linejoin="miter" stroke-opacity="1.0" fill-opacity="1.0" stroke="rgb(0,0,0)" stroke-width="0.0" fill="rgb(0,0,0)" stroke-linecap="butt" stroke-miterlimit="10.0"><path d="M 19.6721,0.0000 l -2.4163,7.4366 l 2.4163,-1.2703 l 2.4163,1.2703 Z"/></g><g stroke-linejoin="miter" stroke-opacity="1.0" fill-opacity="1.0" stroke="rgb(0,0,0)" stroke-width="0.0" fill="rgb(0,0,0)" stroke-linecap="butt" stroke-miterlimit="10.0"><path d="M 19.6721,6.1663 l -0.0000,0.5257 l -1.0000,-0.0000 l 1.0000,-0.5257 l -0.0000,0.5257 l 1.0000,0.0000 Z"/></g><g stroke-linejoin="miter" stroke-opacity="1.0" fill-opacity="0.0" stroke="rgb(0,0,0)" stroke-width="2.0" fill="rgb(0,0,0)" stroke-linecap="butt" stroke-miterlimit="10.0"><path d="M 19.6721,180.3279 h 173.6359 "/></g><g stroke-linejoin="miter" stroke-opacity="1.0" fill-opacity="1.0" stroke="rgb(0,0,0)" stroke-width="0.0" fill="rgb(0,0,0)" stroke-linecap="butt" stroke-miterlimit="10.0"></g><g stroke-linejoin="miter" stroke-opacity="1.0" fill-opacity="1.0" stroke="rgb(0,0,0)" stroke-width="0.0" fill="rgb(0,0,0)" stroke-linecap="butt" stroke-miterlimit="10.0"></g><g stroke-linejoin="miter" stroke-opacity="1.0" fill-opacity="1.0" stroke="rgb(0,0,0)" stroke-width="0.0" fill="rgb(0,0,0)" stroke-linecap="butt" stroke-miterlimit="10.0"><path d="M 200.0000,180.3279 l -7.4366,-2.4163 l 1.2703,2.4163 l -1.2703,2.4163 Z"/></g><g stroke-linejoin="miter" stroke-opacity="1.0" fill-opacity="1.0" stroke="rgb(0,0,0)" stroke-width="0.0" fill="rgb(0,0,0)" stroke-linecap="butt" stroke-miterlimit="10.0"><path d="M 193.8337,180.3279 h -0.5257 v -1.0000 l 0.5257,1.0000 h -0.5257 v 1.0000 Z"/></g><g stroke-linejoin="miter" stroke-opacity="1.0" fill-opacity="0.0" stroke="rgb(0,0,0)" stroke-width="2.0" fill="rgb(0,0,0)" stroke-linecap="butt" stroke-miterlimit="10.0"><path d="M 17.2131,16.3934 l 4.9180,0.0000 "/></g><g stroke-linejoin="miter" stroke-opacity="1.0" fill-opacity="0.0" stroke="rgb(0,0,0)" stroke-width="2.0" fill="rgb(0,0,0)" stroke-linecap="butt" stroke-miterlimit="10.0"><path d="M 17.2131,49.1803 l 4.9180,0.0000 "/></g><g stroke-linejoin="miter" stroke-opacity="1.0" fill-opacity="0.0" stroke="rgb(0,0,0)" stroke-width="2.0" fill="rgb(0,0,0)" stroke-linecap="butt" stroke-miterlimit="10.0"><path d="M 17.2131,81.9672 l 4.9180,0.0000 "/></g><g stroke-linejoin="miter" stroke-opacity="1.0" fill-opacity="0.0" stroke="rgb(0,0,0)" stroke-width="2.0" fill="rgb(0,0,0)" stroke-linecap="butt" stroke-miterlimit="10.0"><path d="M 17.2131,114.7541 l 4.9180,0.0000 "/></g><g stroke-linejoin="miter" stroke-opacity="1.0" fill-opacity="0.0" stroke="rgb(0,0,0)" stroke-width="2.0" fill="rgb(0,0,0)" stroke-linecap="butt" stroke-miterlimit="10.0"><path d="M 17.2131,147.5410 l 4.9180,0.0000 "/></g><g stroke-linejoin="miter" stroke-opacity="1.0" fill-opacity="0.0" stroke="rgb(0,0,0)" stroke-width="2.0" fill="rgb(0,0,0)" stroke-linecap="butt" stroke-miterlimit="10.0"><path d="M 183.6066,177.8689 v 4.9180 "/></g><g stroke-linejoin="miter" stroke-opacity="1.0" fill-opacity="0.0" stroke="rgb(0,0,0)" stroke-width="2.0" fill="rgb(0,0,0)" stroke-linecap="butt" stroke-miterlimit="10.0"><path d="M 150.8197,177.8689 v 4.9180 "/></g><g stroke-linejoin="miter" stroke-opacity="1.0" fill-opacity="0.0" stroke="rgb(0,0,0)" stroke-width="2.0" fill="rgb(0,0,0)" stroke-linecap="butt" stroke-miterlimit="10.0"><path d="M 118.0328,177.8689 v 4.9180 "/></g><g stroke-linejoin="miter" stroke-opacity="1.0" fill-opacity="0.0" stroke="rgb(0,0,0)" stroke-width="2.0" fill="rgb(0,0,0)" stroke-linecap="butt" stroke-miterlimit="10.0"><path d="M 85.2459,177.8689 v 4.9180 "/></g><g stroke-linejoin="miter" stroke-opacity="1.0" fill-opacity="0.0" stroke="rgb(0,0,0)" stroke-width="2.0" fill="rgb(0,0,0)" stroke-linecap="butt" stroke-miterlimit="10.0"><path d="M 52.4590,177.8689 v 4.9180 "/></g><g stroke-linejoin="miter" stroke-opacity="1.0" fill-opacity="0.0" stroke="rgb(255,0,0)" stroke-width="1.0" fill="rgb(0,0,0)" stroke-linecap="butt" stroke-miterlimit="10.0"><path d="M 85.2459,49.1803 c 2.7192,-0.0000 5.4383,-0.0000 8.1967 -0.0000c 2.7584,-0.0000 5.5560,-0.0000 8.1967 -0.0000c 2.6407,-0.0000 5.1246,-0.0000 8.1967 -0.0000c 3.0721,-0.0000 6.7326,-0.0000 8.1967 -0.0000c 1.4642,-0.0000 0.7321,-0.0000 0.0000 -0.0000"/></g><g stroke-linejoin="miter" stroke-opacity="1.0" fill-opacity="1.0" stroke="rgb(0,0,0)" stroke-width="0.0" fill="rgb(255,0,0)" stroke-linecap="butt" stroke-miterlimit="10.0"><path d="M 88.5246,49.1803 c 0.0000,-1.8108 -1.4679,-3.2787 -3.2787 -3.2787c -1.8108,-0.0000 -3.2787,1.4679 -3.2787 3.2787c -0.0000,1.8108 1.4679,3.2787 3.2787 3.2787c 1.8108,0.0000 3.2787,-1.4679 3.2787 -3.2787Z"/></g><g stroke-linejoin="miter" stroke-opacity="1.0" fill-opacity="0.0" stroke="rgb(255,0,0)" stroke-width="1.0" fill="rgb(0,0,0)" stroke-linecap="butt" stroke-miterlimit="10.0"><path d="M 52.4590,114.7541 c 2.7322,-0.0000 5.4645,-0.0000 8.1967 -0.0000c 2.7322,-0.0000 5.4645,-0.0000 8.1967 -0.0000c 2.7322,-0.0000 5.4645,-0.0000 8.1967 -0.0000c 2.7322,-0.0000 5.4645,-0.0000 8.1967 -0.0000"/></g><g stroke-linejoin="miter" stroke-opacity="1.0" fill-opacity="1.0" stroke="rgb(255,0,0)" stroke-width="1.0" fill="rgb(255,255,255)" stroke-linecap="butt" stroke-miterlimit="10.0"><path d="M 88.5246,114.7541 c 0.0000,-1.8108 -1.4679,-3.2787 -3.2787 -3.2787c -1.8108,-0.0000 -3.2787,1.4679 -3.2787 3.2787c -0.0000,1.8108 1.4679,3.2787 3.2787 3.2787c 1.8108,0.0000 3.2787,-1.4679 3.2787 -3.2787Z"/></g><g stroke-linejoin="miter" stroke-opacity="1.0" fill-opacity="1.0" stroke="rgb(255,0,0)" stroke-width="1.0" fill="rgb(255,255,255)" stroke-linecap="butt" stroke-miterlimit="10.0"><path d="M 55.7377,114.7541 c 0.0000,-1.8108 -1.4679,-3.2787 -3.2787 -3.2787c -1.8108,-0.0000 -3.2787,1.4679 -3.2787 3.2787c -0.0000,1.8108 1.4679,3.2787 3.2787 3.2787c 1.8108,0.0000 3.2787,-1.4679 3.2787 -3.2787Z"/></g><g stroke-linejoin="miter" stroke-opacity="1.0" fill-opacity="0.0" stroke="rgb(255,0,0)" stroke-width="1.0" fill="rgb(0,0,0)" stroke-linecap="butt" stroke-miterlimit="10.0"><path d="M 19.6721,81.9672 c 2.7192,-0.0000 5.4383,-0.0000 8.1967 -0.0000c 2.7584,-0.0000 5.5560,-0.0000 8.1967 -0.0000c 2.6407,-0.0000 5.1246,-0.0000 8.1967 -0.0000c 3.0721,-0.0000 6.7326,-0.0000 8.1967 -0.0000c 1.4642,-0.0000 0.7321,-0.0000 0.0000 -0.0000"/></g><g stroke-linejoin="miter" stroke-opacity="1.0" fill-opacity="1.0" stroke="rgb(0,0,0)" stroke-width="0.0" fill="rgb(255,0,0)" stroke-linecap="butt" stroke-miterlimit="10.0"><path d="M 55.7377,81.9672 c 0.0000,-1.8108 -1.4679,-3.2787 -3.2787 -3.2787c -1.8108,-0.0000 -3.2787,1.4679 -3.2787 3.2787c -0.0000,1.8108 1.4679,3.2787 3.2787 3.2787c 1.8108,0.0000 3.2787,-1.4679 3.2787 -3.2787Z"/></g><g stroke-linejoin="miter" stroke-opacity="1.0" fill-opacity="1.0" stroke="rgb(0,0,0)" stroke-width="0.0" fill="rgb(255,0,0)" stroke-linecap="butt" stroke-miterlimit="10.0"><path d="M 22.9508,81.9672 c 0.0000,-1.8108 -1.4679,-3.2787 -3.2787 -3.2787c -1.8108,-0.0000 -3.2787,1.4679 -3.2787 3.2787c -0.0000,1.8108 1.4679,3.2787 3.2787 3.2787c 1.8108,0.0000 3.2787,-1.4679 3.2787 -3.2787Z"/></g><g stroke-linejoin="miter" stroke-opacity="1.0" fill-opacity="1.0" stroke="rgb(0,0,0)" stroke-width="0.0" fill="rgb(255,0,0)" stroke-linecap="butt" stroke-miterlimit="10.0"><path d="M 121.3115,49.1803 c 0.0000,-1.8108 -1.4679,-3.2787 -3.2787 -3.2787c -1.8108,-0.0000 -3.2787,1.4679 -3.2787 3.2787c -0.0000,1.8108 1.4679,3.2787 3.2787 3.2787c 1.8108,0.0000 3.2787,-1.4679 3.2787 -3.2787Z"/></g></svg>